<svg xmlns="http://www.w3.org/2000/svg" width="765" height="108" viewBox="0 0 206.33 29.02" shape-rendering="geometricPrecision" image-rendering="optimizeQuality" fill-rule="nonzero" fill="#fefefe" xmlns:v="https://vecta.io/nano"><path d="M0 28.55V1.54h7.38c1.12 0 2.13.15 3.02.45.9.31 1.66.73 2.29 1.28.64.54 1.12 1.2 1.46 1.96.35.77.51 1.61.51 2.53 0 .78-.11 1.51-.32 2.19-.21.67-.52 1.29-.92 1.85s-.89 1.05-1.48 1.45c-.58.42-1.25.74-1.98.98v.07c.9.09 1.73.3 2.48.66.74.35 1.38.81 1.91 1.37.53.57.94 1.23 1.23 1.99s.43 1.59.43 2.5c0 1.14-.2 2.18-.62 3.13a7.35 7.35 0 0 1-1.74 2.45c-.75.68-1.64 1.22-2.67 1.59-1.03.38-2.17.56-3.42.56H0zM2.51 3.86v9.57h3.5c.92 0 1.75-.12 2.49-.36s1.37-.58 1.9-1.03a4.47 4.47 0 0 0 1.21-1.64c.29-.64.43-1.36.43-2.16 0-2.92-1.82-4.38-5.46-4.38H2.51zm0 11.84v10.58h4.65c2 0 3.54-.47 4.62-1.4 1.07-.94 1.61-2.26 1.61-3.99 0-3.46-2.36-5.19-7.07-5.19H2.51zm25.24 13.32c-1.42 0-2.71-.24-3.84-.72-1.14-.48-2.11-1.15-2.91-2.03-.81-.87-1.42-1.92-1.84-3.14-.43-1.22-.65-2.57-.65-4.06 0-1.6.23-3.04.68-4.31s1.1-2.35 1.93-3.24c.83-.88 1.84-1.56 3.02-2.02 1.18-.47 2.5-.7 3.96-.7 1.39 0 2.64.23 3.76.69 1.12.45 2.06 1.12 2.84 1.98.78.87 1.38 1.93 1.79 3.17.42 1.25.62 2.67.62 4.25 0 1.51-.22 2.88-.65 4.12s-1.05 2.3-1.85 3.2c-.8.89-1.78 1.58-2.94 2.07-1.15.49-2.46.74-3.92.74zm.2-18.14c-1.06 0-2.02.18-2.87.55a5.9 5.9 0 0 0-2.2 1.59c-.61.7-1.08 1.55-1.41 2.57-.33 1.01-.49 2.16-.49 3.44 0 1.21.16 2.3.49 3.26.33.97.79 1.8 1.39 2.5a6.03 6.03 0 0 0 2.18 1.58c.86.38 1.81.56 2.87.56 1.08 0 2.04-.18 2.87-.54.83-.35 1.53-.87 2.11-1.56s1.01-1.52 1.31-2.52c.29-.99.44-2.12.44-3.4 0-2.59-.58-4.59-1.73-5.96-1.16-1.38-2.81-2.07-4.96-2.07zm23.4 17.67v-3.43h-.07c-.63 1.23-1.49 2.19-2.57 2.87-1.09.69-2.32 1.03-3.69 1.03-.93 0-1.77-.14-2.51-.4-.76-.27-1.39-.64-1.91-1.12-.53-.49-.92-1.07-1.21-1.75-.28-.68-.42-1.43-.42-2.25 0-1.75.54-3.15 1.62-4.18 1.08-1.04 2.71-1.72 4.9-2.03l5.86-.85c0-3.71-1.44-5.56-4.32-5.56-2.26 0-4.36.82-6.29 2.47v-2.64a9.4 9.4 0 0 1 1.37-.77c.52-.24 1.06-.43 1.62-.61.57-.17 1.16-.29 1.75-.39a10.78 10.78 0 0 1 1.76-.14c2.15 0 3.79.6 4.89 1.8 1.1 1.21 1.66 3.01 1.66 5.4v12.55h-2.44zm-4.98-9.37c-.87.13-1.61.28-2.23.47s-1.13.45-1.53.77c-.41.32-.7.71-.89 1.18-.19.48-.28 1.06-.28 1.75 0 .52.09.99.27 1.44.18.43.45.81.8 1.13.34.33.76.58 1.26.75s1.06.26 1.69.26c.86 0 1.64-.16 2.36-.49.72-.32 1.34-.78 1.86-1.35.52-.58.94-1.28 1.23-2.08.3-.8.44-1.68.44-2.62v-1.91l-4.98.7zm21.5-7.44c-.56-.42-1.29-.63-2.18-.63-.64 0-1.2.12-1.69.37-.5.24-.92.57-1.3.99-.37.41-.68.89-.94 1.44a10.16 10.16 0 0 0-.62 1.7 12.53 12.53 0 0 0-.34 1.79 15.03 15.03 0 0 0-.1 1.72v9.43h-2.4V9.26h2.4v4.14h.07c.23-.71.51-1.34.86-1.89.35-.56.75-1.04 1.2-1.42a4.73 4.73 0 0 1 1.48-.87c.53-.2 1.09-.31 1.68-.31a6.6 6.6 0 0 1 1.05.08c.3.05.58.12.83.23v2.52zm15.24 16.81v-3.38h-.08a6.88 6.88 0 0 1-2.74 2.84c-1.19.67-2.54 1.01-4.04 1.01-1.21 0-2.31-.23-3.3-.67a7.15 7.15 0 0 1-2.53-1.94c-.7-.84-1.25-1.86-1.63-3.05-.38-1.2-.58-2.55-.58-4.05 0-1.57.22-2.99.63-4.28.43-1.29 1.03-2.39 1.8-3.32a7.93 7.93 0 0 1 2.79-2.15c1.09-.5 2.3-.76 3.63-.76 2.77 0 4.77 1.11 5.97 3.34h.08V0h2.43v28.55h-2.43zm0-11.65a6.35 6.35 0 0 0-.44-2.36c-.29-.73-.69-1.36-1.2-1.9-.52-.54-1.14-.97-1.87-1.29-.72-.31-1.51-.47-2.38-.47a6.15 6.15 0 0 0-2.65.57c-.8.38-1.49.92-2.07 1.63-.57.71-1.01 1.58-1.33 2.59-.33 1.02-.49 2.18-.49 3.48 0 1.21.15 2.3.44 3.27.29.98.7 1.79 1.24 2.46a5.53 5.53 0 0 0 1.91 1.53c.74.35 1.57.52 2.47.52.99 0 1.87-.17 2.66-.52.78-.36 1.45-.84 2-1.46.54-.61.97-1.34 1.26-2.16.3-.83.45-1.72.45-2.67V16.9zm19.61 11.65V1.54h7.37c1.12 0 2.13.15 3.03.45.9.31 1.66.73 2.29 1.28.64.54 1.12 1.2 1.46 1.96.34.77.51 1.61.51 2.53 0 .78-.11 1.51-.32 2.19-.21.67-.52 1.29-.92 1.85-.41.56-.9 1.05-1.48 1.45-.59.42-1.25.74-1.99.98v.07c.91.09 1.74.3 2.48.66.74.35 1.39.81 1.91 1.37.53.57.94 1.23 1.23 1.99s.44 1.59.44 2.5c0 1.14-.21 2.18-.62 3.13a7.38 7.38 0 0 1-1.75 2.45c-.74.68-1.64 1.22-2.67 1.59-1.02.38-2.16.56-3.41.56h-7.56zm2.5-24.69v9.57h3.51c.91 0 1.74-.12 2.48-.36.75-.24 1.38-.58 1.91-1.03.52-.45.93-1 1.21-1.64s.43-1.36.43-2.16c0-2.92-1.82-4.38-5.46-4.38h-4.08zm0 11.84v10.58h4.66c2 0 3.54-.47 4.61-1.4 1.08-.94 1.62-2.26 1.62-3.99 0-3.46-2.36-5.19-7.08-5.19h-3.81zm30.02 12.85v-3.26h-.08c-1.31 2.49-3.33 3.73-6.08 3.73-4.59 0-6.89-2.81-6.89-8.41V9.26h2.43v10.89c0 2.31.42 4.02 1.24 5.12.82 1.11 2.08 1.66 3.77 1.66.83 0 1.58-.16 2.27-.48a5.19 5.19 0 0 0 1.77-1.36c.49-.57.88-1.28 1.15-2.09.28-.82.42-1.73.42-2.72V9.26h2.43v19.29h-2.43zM143.8 4.4c-.47 0-.87-.16-1.21-.49-.35-.33-.51-.75-.51-1.25 0-.49.16-.89.51-1.21.34-.32.74-.49 1.21-.49.24 0 .47.04.68.13a1.75 1.75 0 0 1 .56.34 2.03 2.03 0 0 1 .38.54c.1.21.14.44.14.69 0 .24-.04.47-.13.68-.09.22-.21.4-.38.56-.16.16-.35.28-.56.36-.21.09-.44.14-.69.14zm-1.2 24.15V9.26h2.44v19.29h-2.44zm7.37 0V0h2.43v28.55zm20.86 0v-3.38h-.07a6.88 6.88 0 0 1-2.74 2.84c-1.19.67-2.54 1.01-4.05 1.01-1.21 0-2.3-.23-3.29-.67-.99-.45-1.84-1.1-2.54-1.94s-1.24-1.86-1.63-3.05c-.38-1.2-.57-2.55-.57-4.05 0-1.57.21-2.99.63-4.28s1.02-2.39 1.79-3.32 1.71-1.64 2.79-2.15c1.09-.5 2.3-.76 3.63-.76 2.78 0 4.77 1.11 5.98 3.34h.07V0h2.43v28.55h-2.43zm0-11.65a6.55 6.55 0 0 0-.43-2.36c-.29-.73-.69-1.36-1.21-1.9s-1.14-.97-1.86-1.29c-.72-.31-1.52-.47-2.39-.47-.96 0-1.84.19-2.64.57a5.75 5.75 0 0 0-2.07 1.63c-.57.71-1.02 1.58-1.34 2.59-.32 1.02-.48 2.18-.48 3.48 0 1.21.15 2.3.43 3.27.29.98.71 1.79 1.24 2.46.53.66 1.17 1.17 1.92 1.53.74.35 1.57.52 2.47.52.98 0 1.87-.17 2.65-.52.79-.36 1.46-.84 2-1.46.55-.61.97-1.34 1.27-2.16a8.04 8.04 0 0 0 .44-2.67V16.9zm8.5 2.43c.02 1.19.17 2.25.47 3.19s.73 1.74 1.3 2.39a5.52 5.52 0 0 0 2.07 1.5c.81.35 1.72.52 2.73.52 2.18 0 4.23-.76 6.17-2.28v2.39c-1.85 1.31-4.09 1.98-6.71 1.98-1.29 0-2.47-.23-3.53-.68-1.05-.46-1.94-1.11-2.69-1.97-.74-.86-1.31-1.93-1.71-3.18-.41-1.26-.61-2.69-.61-4.3 0-1.45.22-2.79.66-4.02s1.05-2.3 1.83-3.2 1.7-1.6 2.77-2.11c1.07-.5 2.23-.76 3.5-.76 1.24 0 2.34.22 3.3.65.95.43 1.75 1.05 2.39 1.86.65.8 1.14 1.78 1.48 2.93.34 1.16.51 2.45.51 3.88v1.21h-13.93zm11.46-2.12c-.04-2.01-.51-3.56-1.43-4.67s-2.2-1.66-3.83-1.66c-.82 0-1.58.14-2.28.43s-1.31.71-1.84 1.26c-.53.54-.96 1.21-1.31 2-.35.78-.59 1.66-.73 2.64h11.42zm15.54-5.47c-.56-.42-1.29-.63-2.18-.63-.64 0-1.2.12-1.69.37-.5.24-.92.57-1.3.99-.37.41-.68.89-.93 1.44-.27.55-.47 1.11-.63 1.7a12.53 12.53 0 0 0-.34 1.79 15.03 15.03 0 0 0-.1 1.72v9.43h-2.39V9.26h2.39v4.14h.07c.23-.71.51-1.34.86-1.89.35-.56.75-1.04 1.2-1.42a4.73 4.73 0 0 1 1.48-.87c.53-.2 1.09-.31 1.68-.31a6.6 6.6 0 0 1 1.05.08c.3.05.58.12.83.23v2.52z"/></svg>