<svg xmlns="http://www.w3.org/2000/svg" xmlns:xlink="http://www.w3.org/1999/xlink" width="1920" height="1200"
     shape-rendering="geometricPrecision" image-rendering="optimizeQuality" fill-rule="evenodd"><style>.x{fill-rule:nonzero}  .y{stroke-miterlimit:22.9256}  .z{stroke-linejoin:round}  .AA{stroke-linecap:round}  .AB{fill:none}  .AC{fill:#fff}  .AD{stroke:#000}  .AE{stroke:#5fa3e3}  .AF{stroke-width:10}  .AG{fill:#206eb5}  .AH{fill:#d0cfce}  .AI{stroke-width:11.95}  .AJ{fill:#fcea2b}  .AK{fill:#fadcbc}  .AL{stroke-width:5.86}  .AM{stroke-width:12.51}  .AN{stroke-width:23.25}</style><path d="M411.91 55.32h1096.18V1151.5H411.91z" class="AC"/><g class="x"><path d="M1508.09 63.46H411.91V47.18h1096.18l8.11 8.14-8.11 8.14zm0-16.28h8.11v8.14l-8.11-8.14zm-8.11 1104.32V55.32h16.22V1151.5l-8.11 8.14-8.11-8.14zm16.22 0v8.14h-8.11l8.11-8.14zm-1104.29-8.14h1096.18v16.28H411.91l-8.11-8.14 8.11-8.14zm0 16.28h-8.11v-8.14l8.11 8.14zm8.11-1104.32V1151.5H403.8V55.32l8.11-8.14 8.11 8.14zm-16.22 0v-8.14h8.11l-8.11 8.14z" fill="#5fa3e3"/><path d="M311.57 238.42h-9.17l-3.63-9.57H281.9l-3.49 9.57h-9.01l16.33-42.05h8.99l16.85 42.05zm-15.56-16.68l-5.85-15.56-5.68 15.56h11.53z" class="AG"/></g><g stroke="#206eb5" class="AB"><g class="y"><path d="M257.66 183.99h66.8v66.8h-66.8z" stroke-width="4"/><path d="M257.66 698.68h66.8v66.8h-66.8zm33.47-120.32l28.93 50.1h-57.85l14.46-25.05zm-33.47-103.62h66.8" stroke-width="8"/></g><circle cx="291.06" cy="346.07" r="33.4" stroke-width="8"/></g><path d="M321.04 1122.1h-59.96v-8h59.96v8zm7.83-4l-29.16 16.05v-32.08l29.16 16.03zm-63.79-107.42l4.72 4.73 21.26-21.26 21.26 21.26 4.72-4.73-21.26-21.25 21.26-21.26-4.72-4.72-21.26 21.25-21.26-21.25-4.72 4.72 21.26 21.26-21.26 21.25zm22.64-116.52h6.68V864.1h30.06v-6.68H294.4v-30.06h-6.68v30.06h-30.06v6.68h30.06v30.06zm0-15.03" class="x AG"/><path d="M286.62 86.52l6.84 9.2-4.12 2.81-10.64-14.31-14.19 19.09 53.1.04-21.76-29.25z" class="AG"/><path d="M257.66 55.32h66.8v66.8h-66.8z" stroke="#206eb5" stroke-width="4" class="y AB"/><path d="M-638.59 904.39l45.1-34.22-86.76-86.76-33.44 45.89z" fill="#d22f27" class="x"/><g stroke-width="7.79" class="y AB AD"><path d="M-638.59 904.39l45.1-34.22-86.76-86.76-33.44 45.89z"/><g class="z AA"><path d="M-545.56 833.82l-143.78 109.07-61.97-61.97 106.59-146.26"/><path d="M-644.72 734.66l99.16 99.16"/><path d="M-552.31 741.41l-33.05 33.05"/></g></g><g class="x"><path d="M-464.75 330.33a89.11 89.11 0 0 0-9.53.57l-4.21.45-1.99-3.75c-16.72-31.57-53.17-51.97-92.91-51.97-56.46 0-102.39 40.03-102.39 89.25a78.07 78.07 0 0 0 .62 9.66l.63 5.15-4.96 1.57c-25.11 7.96-41.33 26.18-41.33 46.42 0 27.81 30.34 50.42 67.64 50.42 14.41.15 28.61-3.49 41.18-10.55l3.7-2.14 1.18.95 2.15 1.72c16.98 13.55 44.3 21.65 73.08 21.65 48.56 0 89.58-23.08 89.58-50.42-.01-1.69-.17-3.38-.49-5.04l-.86-4.69-.14-.73 5.27-1.67c25.15-7.95 41.42-26.18 41.42-46.44 0-27.77-30.35-50.41-67.64-50.41z" fill="#b1cc33"/><path d="M-540.39 394.55s30.76 45.86 96.6 34.33l5.57 22.34-25.02 30.79-57.63 12.71-75.88-15.98-11.55-13.3a109.82 109.82 0 0 0 67.91-70.89z" fill="#5c9e31"/></g><g class="y AB AD AM"><path d="M-563.4 619.4v-69.85l-47.74-47.01m47.74 47.01l27.32-28.43" class="z AA"/><path d="M-390.85 380.64c0-31.28-33.09-56.68-73.89-56.68a96.81 96.81 0 0 0-10.21.63c-17.28-32.63-54.81-55.29-98.44-55.29-60.01 0-108.65 42.76-108.65 95.5.01 3.49.24 6.97.68 10.43-26.83 8.5-45.7 28.74-45.7 52.38 0 31.28 33.08 56.68 73.89 56.68 15.51.13 30.79-3.8 44.31-11.4 17.46 13.95 45.4 23.03 76.98 23.03 52.93 0 95.83-25.38 95.83-56.68a33.66 33.66 0 0 0-.58-6.17c26.85-8.51 45.78-28.76 45.78-52.43z"/></g><g class="x"><path d="M-763.74 943.47l20.96 20.97 94.35-94.34 94.34 94.34 20.96-20.97-94.34-94.34 94.34-94.34-20.96-20.97-94.34 94.35-94.35-94.35-20.96 20.97 94.34 94.34-94.34 94.34zm47.17-47.17" fill="red"/><path d="M-338.83 662.22v35.56h213.59l3.85-35.56zm40.84 254.67l2.98 31.56h128.58l3.54-31.56z" class="AH"/><path d="M-177.37 949.69h43.75l3.08-34.24h-43.25zm86.24-286.16h-45.35l-3.75 33.54h49.1z" fill="#9b9b9a"/></g><g class="y AB"><g class="AD"><g class="z AA AI"><path d="M-301.15 891.22l-21.56-169.59m218.04-.16l-22.45 169.66m-59.33-169.03l48.84 59.87m-109.55-59.63l102.49 123.35m-150.68-110.66l130.65 156.38m-121.39-80.24l71.86 81.47"/><path d="M-277.63 885.27l8.14 8.11m-20.62-116.64l51.3-54.56m-43.05 118.19l109.01-118.03m-95.41 170.3l134.42-142.9m-76.52 142.9l68.97-71.38m-23.31 72.12l12.71-10.72"/></g><path d="M-339.84 661.98h251.23v35.53h-251.23z" class="z AI"/><path d="M-172.85 915.19h43.45" stroke-width="5.98"/><path d="M-129.4 915.19l-4.23 33.24h-161.25l-4.07-33.24h169.55" class="z AA AI"/></g><path d="M1288.87 582.63l22.75 40.4m37.14-127.51l54.84 32.59m-5.86-131.67l44.48 1.3" stroke="#fcea2b" class="AN z AA"/></g><g class="x"><g class="AH"><path d="M829.73 184.56c-16.09 27.88-26.94 55.3-15.25 64.65l311.55 179.87c2.27-16 8.3-36.81 16.63-51.22 8.32-14.42 34.15-42.93 46.87-52.89l-318.1-178.36c-5.08 1.87-25.18 9.36-41.7 37.95z"/><path d="M1176.45 525.45l69.97 38.8 116.27-201.39-75.35-41.7c-24.2-13.98-47.3-5.95-74.3 1.29-27 7.23-53.2 25.27-67.18 49.48-28.86 49.98-19.39 124.66 30.59 153.52z"/></g><path d="M1148.43 348.01c5.78-6.91 34.07-17.54 41.11-23.04L871.43 146.61c-2.25.83-23.68 7.62-28.77 15.5-2.93 4.53 11.3 9.38 7.62 13.77l298.15 172.13zm194.52 49.05l19.74-34.2-69.26-39.21c-24.2-13.99-58.23-13.15-85.23-5.92-8.97 2.4-31.09 13.05-36.14 20.34-5.19 7.48 6.72 11.65.19 18.25-3.13 3.16 24.57-13.22 66.36-10.69 41.8 2.53 104.34 51.43 104.34 51.43z" fill="#9b9b9a"/></g><g class="y AB z"><g class="AD AN"><path d="M1126.03 429.08L814.48 249.21s-14.02-14.2 11.61-58.59c25.63-44.4 47.8-44.31 47.8-44.31l311.55 179.87" class="AA"/><path d="M1188.42 530.76c-55.61-32.11-74.67-103.22-42.56-158.83 32.11-55.62 103.22-74.67 158.83-42.56l58 33.49-116.27 201.39-58-33.49z"/><path d="M1288.87 582.63l22.75 40.4m37.14-127.51l54.84 32.59m-5.86-131.67l44.48 1.3" class="AA"/></g><path d="M1288.87 582.63l22.75 40.4m37.14-127.51l54.84 32.59m-5.86-131.67l44.48 1.3" stroke="#fcea2b" stroke-width="24.42" class="AA"/></g><g class="x"><path d="M778.98 695.45l-146.09-.69v351.33h141.69z" class="AC"/><path d="M729.95 1046.09h49.03V694.21l-49.03-.22z" class="AH"/><path d="M648.32 506.71c0 22.42-.14 55.07 4.86 71.61 1.81 5.98 13.15 25.04 7.17 26.86h96.97c-.41-.1-1.55.07-1.23-.23 9.19-8.75 9.19-8.75 11.4-14.6 6.62-17.51 5.88-48.96 1.32-74.34-5.9-32.86-44.76-81.3-58.53-96.5-15.94 16.71-61.96 52.84-61.96 87.2z" class="AJ"/></g><g stroke-width="22.66" class="y z AB AD"><path d="M657.04 594.36c-4.83-16-8.72-41.81-8.72-67.42 0-50.04 61.96-107.43 61.96-107.43s49.93 48.63 58.53 96.5c4.9 27.3-1.42 59.02-8.72 78.35" class="AA"/><path d="M632.89 1046.09h146.09V694.76l-146.09-.77z"/><path d="M707.62 594.35v45.79" class="AA"/></g><path d="M483.76 929.73l41.38 41.38 186.2-186.19 186.19 186.19 41.38-41.38-186.19-186.19 186.19-186.2-41.38-41.38-186.19 186.19-186.2-186.19-41.38 41.38 186.19 186.2-186.19 186.19zm93.1-93.1" fill="red" class="x"/><path d="M1581.17 55.32h219.24v219.24h-219.24z" class="y AC AE AF"/><g class="x"><g class="AK"><path d="M1641.55 192.89c-19.02 0-29.21-11.37-29.21-25.81s9.42-30.64 49.48-26.39l-20.27 52.2zm0 0h0z"/><path d="M1611.54 167.08h1.59l.03 1.31.09 1.29.14 1.26.2 1.25.26 1.22.31 1.19.38 1.17.42 1.14.48 1.1.54 1.08.59 1.04.65 1.01.7.98.76.94.81.9.86.86.92.82.98.78 1.02.74 1.09.69 1.13.65 1.19.59 1.25.55 1.29.5 1.36.45 1.4.39 1.46.33 1.52.28 1.56.22 1.63.16 1.67.09 1.73.04v1.58l-1.79-.03-1.74-.1-1.68-.16-1.64-.23-1.58-.29-1.53-.35-1.47-.42-1.43-.46-1.37-.53-1.31-.58-1.27-.63-1.2-.69-1.16-.74-1.09-.78-1.04-.83-.99-.88-.92-.93-.87-.96-.81-1.01-.75-1.04-.7-1.09-.63-1.11-.58-1.16-.51-1.18-.45-1.21-.4-1.25-.33-1.27-.28-1.29-.21-1.32-.16-1.34-.09-1.36-.03-1.38zm50.36-27.18l-.17 1.58-3.64-.34-3.47-.22-3.29-.11-3.13-.01-2.95.1-2.8.2-2.64.29-2.48.38-2.34.47-2.19.54-2.04.63-1.91.69-1.77.77-1.64.82-1.52.89-1.4.94-1.28.99-1.17 1.04-1.06 1.09-.96 1.12-.86 1.16-.76 1.19-.68 1.23-.59 1.24-.5 1.28-.43 1.29-.35 1.3-.28 1.32-.21 1.33-.15 1.33-.08 1.33-.03 1.32h-1.59l.03-1.39.09-1.4.15-1.4.23-1.41.29-1.4.38-1.39.45-1.38.55-1.36.63-1.34.72-1.31.83-1.28.92-1.25 1.03-1.21 1.14-1.16 1.25-1.11 1.36-1.06 1.48-1 1.61-.93 1.73-.88 1.86-.79 1.99-.73 2.12-.65 2.26-.56 2.41-.48 2.55-.4 2.71-.29 2.85-.21 3.02-.1 3.18.01 3.34.11 3.51.23 3.69.34zm-20.35 52.99h0zm0 0h0z"/><path d="M1658.92 194.01h-19.06v-1.59h19.06z"/><path d="M1659.39 182.11a5.56 5.56 0 1 1-.47 11.11l.47-11.11zm0 0h0z"/><path d="M1665.5 187.93l-1.58-.06v-.25l-.01-.24-.02-.24-.03-.24-.04-.23-.06-.23-.06-.22-.08-.22-.09-.22-.09-.21-.22-.4-.26-.38-.15-.18-.15-.17-.32-.32-.18-.15-.18-.14-.19-.13-.19-.12-.2-.12-.42-.2-.22-.08-.22-.07-.23-.07-.23-.05-.24-.04-.24-.03-.25-.01.07-1.59.33.02.32.04.31.05.31.07.31.08.3.1.29.12.28.12.28.14.27.15.5.34.25.19.23.2.22.21.21.22.2.23.19.23.18.25.17.26.15.26.14.28.13.27.12.29.1.29.09.31.07.3.06.31.04.31.03.32.01.33-.01.32zm-6.61 6.08l.07-1.58h.24l.25-.01.23-.02.24-.03.23-.04.46-.12.21-.08.22-.09.21-.09.4-.22.38-.26.18-.15.17-.15.17-.16.15-.16.15-.18.14-.18.26-.38.11-.2.2-.42.16-.44.06-.23.05-.23.04-.24.03-.24.02-.24 1.58.06-.02.33-.04.32-.05.31-.07.32-.08.3-.1.3-.11.29-.13.28-.14.28-.15.27-.17.26-.17.25-.19.24-.2.23-.21.22-.21.21-.23.2-.24.19-.25.18-.26.17-.26.15-.27.14-.28.13-.29.12-.29.1-.3.09-.31.07-.31.06-.31.04-.32.03-.33.01-.32-.01zm.5-11.9h0zm0 0h0z"/><path d="M1659.76 171a5.56 5.56 0 0 1 5.32 5.79c-.13 3.06-2.72 5.44-5.79 5.32l.47-11.11zm0 0h0z"/><path d="M1665.87 176.82l-1.58-.07v-.24l-.01-.25-.02-.24-.03-.23-.04-.23-.12-.46-.08-.22-.18-.42-.11-.21-.11-.19-.13-.2-.13-.18-.15-.18-.15-.17-.16-.17-.16-.16-.36-.28-.19-.14-.19-.12-.2-.11-.21-.11-.21-.09-.22-.09-.22-.07-.23-.06-.23-.05-.24-.04-.24-.03-.25-.02.07-1.59.32.03.33.03.31.06.31.07.31.08.3.1.29.11.28.13.28.14.27.15.25.16.5.36.23.2.22.21.21.22.2.23.19.24.18.25.17.25.15.27.14.27.13.28.12.29.1.29.09.3.07.3.06.31.04.32.03.32.01.32-.01.33zm-6.61 6.08l.06-1.59.25.01.24-.01.24-.02.24-.03.46-.1.44-.14.22-.09.21-.1.2-.1.2-.12.19-.12.19-.14.18-.14.17-.15.17-.16.3-.34.14-.18.26-.38.11-.21.1-.2.1-.21.16-.44.06-.23.05-.23.04-.24.03-.24.02-.25 1.58.07-.02.32-.04.33-.05.31-.07.31-.08.31-.1.29-.11.29-.13.29-.14.28-.15.26-.17.26-.17.25-.19.24-.2.23-.21.23-.22.21-.22.2-.24.19-.25.18-.52.32-.27.14-.28.13-.58.22-.3.08-.31.08-.62.1-.32.02-.33.01h-.32zm.5-11.9h0zm0 0h0z"/><path d="M1659.97 171c3.06.25 5.34 2.93 5.1 5.99-.25 3.06-2.93 5.34-5.99 5.1l.89-11.09zm0 0h0z"/><path d="M1665.86 177.06l-1.59-.13.02-.25v-.24l-.01-.24-.02-.24-.04-.23-.1-.46-.07-.22-.08-.22-.09-.21-.1-.21-.1-.2-.12-.2-.13-.19-.13-.18-.15-.18-.15-.17-.16-.17-.34-.3-.19-.14-.18-.13-.2-.12-.21-.11-.2-.11-.22-.09-.22-.08-.22-.07-.23-.06-.24-.05-.24-.04-.24-.03.12-1.58.33.04.32.05.31.06.31.08.3.1.29.11.29.12.28.14.27.15.26.16.26.17.24.19.23.19.23.21.21.22.4.46.18.25.16.25.16.27.14.27.13.27.12.29.11.29.09.3.07.3.06.31.05.31.03.32.02.32v.32l-.02.33zm-6.84 5.82l.12-1.58.25.01h.24l.24-.01.24-.02.46-.08.23-.06.22-.07.22-.08.42-.18.2-.11.2-.12.19-.13.18-.13.18-.15.17-.15.17-.16.3-.34.14-.19.13-.18.12-.2.11-.2.11-.21.09-.22.08-.21.07-.23.06-.23.05-.24.04-.24.02-.24 1.59.13-.04.32-.05.32-.06.31-.08.31-.1.3-.11.3-.12.28-.14.28-.15.27-.16.26-.17.26-.19.24-.4.46-.22.21-.46.4-.25.18-.25.17-.54.3-.27.13-.58.22-.3.09-.3.07-.31.07-.31.04-.32.03-.32.02h-.32l-.32-.02zm.95-11.88h0zm0 0h0z"/><path d="M1660.52 159.82a5.56 5.56 0 0 1 5.19 5.9c-.2 3.07-2.84 5.39-5.9 5.19l.71-11.09zm0 0h0z"/><path d="M1666.5 165.77l-1.58-.1.01-.24-.01-.25-.01-.24-.03-.23-.04-.24-.05-.23-.06-.22-.07-.22-.08-.22-.09-.21-.1-.21-.11-.2-.12-.19-.13-.19-.14-.18-.15-.18-.15-.17-.17-.16-.17-.15-.18-.15-.18-.13-.19-.13-.2-.12-.21-.11-.2-.09-.22-.09-.22-.08-.23-.07-.23-.06-.48-.08-.24-.02.1-1.58.32.03.32.04.32.06.31.08.3.09.29.1.29.12.29.13.27.15.26.16.26.17.24.18.24.19.23.2.22.22.2.22.2.23.36.5.16.26.28.54.12.28.11.29.1.3.08.3.12.62.03.32.02.32v.32l-.01.32zm-6.75 5.94l.11-1.59.24.01h.25l.23-.02.24-.02.24-.04.22-.05.23-.06.22-.07.22-.08.21-.1.2-.1.21-.11.19-.12.19-.13.18-.14.18-.15.17-.15.16-.16.15-.17.14-.18.14-.19.13-.19.12-.2.1-.2.1-.21.09-.22.08-.22.07-.22.06-.24.04-.23.03-.24.03-.25 1.58.1-.03.33-.04.32-.06.31-.08.31-.09.31-.1.29-.12.29-.14.28-.14.27-.16.27-.17.25-.18.25-.19.24-.42.44-.22.21-.48.38-.25.17-.26.16-.27.15-.27.14-.29.12-.29.11-.29.09-.3.08-.31.07-.31.05-.31.04-.33.02h-.32l-.33-.01zm.77-11.89h0zm0 0h0zm-14.78-18.29c12.1-9.32 16.97-10.71 19.11-8.5 2.13 2.21-1.25 9.04-3.46 11.17l-15.65-2.67zm0 0h0z"/><path d="M1665.42 132.47l-1.15 1.11-.15-.15-.16-.12-.18-.11-.18-.09-.21-.08-.23-.06-.25-.04-.27-.02h-.31l-.34.02-.36.06-.4.07-.43.11-.45.14-.49.17-.53.21-.55.24-.59.27-.62.31-.65.35-.69.38-.72.43-.76.46-.79.5-.83.54-.87.58-.91.63-.94.67-.99.71-1.02.75-1.07.8-1.11.85-.97-1.26 1.12-.85 1.08-.81 1.04-.77 1-.72.95-.67.93-.64.88-.59.85-.56.82-.51.78-.48.74-.44.72-.4.69-.36.65-.33.63-.29.6-.26.57-.22.55-.2.52-.16.51-.12.48-.1.46-.07.45-.03h.42l.41.03.39.07.38.09.35.14.34.16.31.19.28.23.27.24zm-3.48 12.31l-1.1-1.15.19-.18.19-.22.2-.24.21-.27.21-.28.22-.32.21-.32.22-.35.21-.35.21-.37.2-.38.2-.39.19-.39.18-.4.17-.41.16-.4.14-.4.13-.4.12-.39.1-.39.09-.37.06-.36.05-.35.02-.34.01-.31-.01-.29-.04-.26-.05-.24-.06-.21-.09-.18-.09-.16-.12-.13 1.15-1.11.25.31.21.34.17.35.12.38.08.38.05.4.02.4-.01.42-.03.41-.06.43-.08.43-.09.44-.12.44-.13.44-.15.44-.16.45-.17.44-.19.43-.19.44-.42.84-.22.41-.23.4-.23.39-.23.38-.24.35-.23.35-.24.32-.24.31-.24.28-.24.27-.24.24zm-16.2-3.25h0zm0 0h0zm50.31 7.17a5.56 5.56 0 1 1 0 11.12V148.7zm0 0h0z"/><path d="M1702.41 154.26h-1.59l-.01-.25-.02-.24-.03-.24-.04-.23-.05-.23-.07-.23-.07-.22-.09-.22-.09-.21-.1-.2-.12-.2-.12-.19-.14-.19-.14-.18-.15-.17-.16-.17-.16-.16-.18-.15-.18-.14-.18-.13-.2-.13-.4-.22-.21-.09-.44-.16-.22-.07-.24-.05-.23-.04-.24-.03-.24-.02-.25-.01v-1.58h.33l.32.03.32.04.31.06.31.07.3.08.3.1.29.12.28.12.27.14.27.16.26.16.24.18.25.19.23.2.22.21.21.22.2.23.18.24.18.25.17.25.15.27.14.28.13.28.11.29.1.29.09.3.07.31.05.31.04.32.03.32.01.33zm-6.36 6.35v-1.58l.25-.01.24-.02.24-.03.23-.04.24-.05.44-.14.22-.09.21-.09.4-.22.2-.13.18-.13.18-.14.18-.15.16-.16.16-.17.15-.17.14-.18.26-.38.12-.2.1-.21.09-.2.09-.22.07-.22.07-.23.05-.23.04-.23.03-.24.02-.24.01-.25h1.59l-.01.33-.03.32-.04.32-.05.31-.07.31-.09.3-.1.29-.11.29-.13.28-.14.28-.15.26-.17.26-.17.25-.19.24-.2.23-.21.22-.22.21-.23.2-.25.19-.25.18-.25.16-.27.16-.27.14-.28.12-.29.12-.3.1-.3.08-.31.07-.31.06-.32.04-.32.03h-.33zm0-11.91h0zm0 0h0z"/><path d="M1696.05 160.61h-35.47v-1.58h35.47zm-44.14-12.7h44.14v1.58h-44.14zm13.33-6.43l-3.52 3.11-1.05-1.19 3.51-3.11zm-11.94-5.78c-3.4 3.1-8.21 5.36-15.12 5.24l15.12-5.24zm0 0h0z"/><path d="M1638.16 141.73l.03-1.58h.62l.62-.01.6-.02 1.16-.08.57-.06.55-.07.54-.09.53-.09.52-.11.5-.11.5-.13.48-.13.48-.15.46-.15.46-.17.44-.17.43-.18.43-.19.41-.2.41-.21.39-.21.39-.22.37-.23.37-.24.36-.24.7-.5.33-.27.33-.26.32-.27.31-.28 1.07 1.18-.34.3-.7.58-.36.28-.37.28-.39.27-.39.26-.4.26-.41.24-.42.25-.42.23-.45.22-.44.22-.46.2-.48.2-.47.19-.5.18-.5.16-.51.16-.52.15-1.08.26-.56.11-.56.1-.58.09-1.19.14-.61.05-.63.04-.63.02-.65.01-.66-.01zm15.14-6.03h0zm0 0h0z"/><path d="M1652.72 135.15l3.78-2.89.97 1.26-3.78 2.89zm-.21 24.84l3.12-11.21h40.95v11.04z"/><path d="M1656.4 148.99l-3.13 11.22-1.53-.43 3.13-11.22.76-.58.77 1.01zm-1.53-.43l.16-.58h.6l-.76.58zm41.71 1.01h-40.95v-1.59h40.95l.8.8-.8.79zm0-1.59h.8v.8l-.8-.8zm-.79 11.84v-11.04h1.59v11.04l-.79.79-.8-.79zm1.59 0v.79h-.79l.79-.79zm-44.88-.62l44.08-.17.01 1.58-44.08.18-.77-1.01.76-.58zm.01 1.59h-1.05l.28-1.01.77 1.01z"/><path d="M1641.16 159.99v33.24h19.42v-33.24z"/><path d="M1640.36 193.23v-33.24h1.59v33.24l-.79.79-.8-.79zm.8.79h-.8v-.79l.8.79zm19.42 0h-19.42v-1.59h19.42l.79.8-.79.79zm.79-.79v.79h-.79l.79-.79zm0-33.24v33.24h-1.59v-33.24l.8-.79.79.79zm-.79-.79h.79v.79l-.79-.79zm-19.42 0h19.42v1.59h-19.42l-.8-.8.8-.79zm-.8.79v-.79h.8l-.8.79zm15.1-11.29l1.58-4.22 5.06.81-4.65 3.44z"/><path d="M1657.78 144.76l-1.58 4.22-1.48-.56 1.58-4.22.87-.5.61 1.06zm-1.48-.56l.22-.61.65.11-.87.5zm5.68 1.88l-5.06-.81.25-1.57 5.06.81.34 1.42-.59.15zm.25-1.57l1.86.3-1.52 1.12-.34-1.42zm-5.25 3.58l4.65-3.44.94 1.28-4.65 3.44-.48.15-.46-1.43zm.94 1.28l-.22.16-.26-.01.48-.15zm-2.45-1.46l1.99.02-.02 1.59-1.99-.03-.73-1.07.75-.51zm-.02 1.58l-1.13-.01.4-1.06.73 1.07z"/></g><path d="M1638.47 191.63a1.59 1.59 0 0 1 1.59 1.59c0 .87-.71 1.59-1.59 1.59v-3.18zm-27.72-24.55h3.17l.04 1.26.09 1.25.16 1.23.21 1.21.28 1.19.33 1.16.38 1.14.44 1.12.49 1.08.55 1.06.59 1.03.63.99.69.97.73.93.77.89.81.85.86.81.89.77.93.73.96.69.99.64 1.03.59 1.06.54 1.09.49 1.11.44 1.14.39 1.17.33 1.18.27 1.21.22 1.23.15 1.25.1 1.26.03v3.18l-1.42-.04-1.41-.11-1.39-.17-1.36-.25-1.34-.31-1.32-.37-1.29-.44-1.26-.49-1.23-.56-1.19-.61-1.16-.67-1.13-.72-1.09-.77-1.04-.83-1.01-.87-.96-.91-.92-.97-.87-1-.82-1.05-.78-1.09-.72-1.12-.67-1.16-.61-1.2-.55-1.23-.5-1.26-.44-1.29-.37-1.31-.31-1.34-.24-1.37-.18-1.39-.11-1.4-.03-1.43zm0 0c0-.88.71-1.59 1.58-1.59a1.59 1.59 0 0 1 1.59 1.59h-3.17zm27.72-27.73v3.18l-1.26.03-1.25.1-1.23.15-1.21.22-1.18.27-1.17.33-1.14.39-1.11.44-1.09.49-1.06.54-1.02.59-1 .64-.96.69-.93.73-.89.77-.86.81-.81.85-.77.89-.73.93-.69.97-.63.99-.59 1.03-.55 1.06-.49 1.08-.44 1.12-.38 1.14-.33 1.16-.28 1.19-.21 1.21-.16 1.23-.09 1.24-.04 1.27h-3.17l.03-1.43.11-1.4.18-1.39.24-1.37.31-1.34.37-1.31.44-1.29.5-1.26.55-1.23.61-1.2.67-1.16.72-1.12.78-1.09.82-1.05.87-1 .92-.97.96-.91 1.01-.87 1.04-.83 1.09-.77 1.12-.72 1.17-.67 1.19-.61 1.23-.56 1.26-.49 1.29-.44 1.32-.37 1.34-.31 1.36-.25 1.39-.17 1.41-.11 1.42-.04zm0 0a1.59 1.59 0 0 1 0 3.18v-3.18z"/><path d="M1639.86 194.81a1.6 1.6 0 0 1-1.59-1.59c0-.88.72-1.59 1.59-1.59v3.18zm19.06 0h-19.06v-3.18h19.06v3.18zm0-3.18a1.59 1.59 0 0 1 1.59 1.59c0 .87-.71 1.59-1.59 1.59v-3.18z"/><path d="M1659.32 183.7c-.88-.04-1.56-.78-1.52-1.65a1.6 1.6 0 0 1 1.65-1.53l-.13 3.18zm6.98 4.27l-3.18-.14.01-.2-.01-.21-.02-.19-.03-.2-.03-.19-.05-.2-.05-.18-.06-.18-.16-.36-.08-.17-.1-.16-.22-.32-.12-.15-.12-.14-.27-.27-.3-.24-.16-.11-.16-.1-.17-.1-.17-.09-.54-.21-.19-.05-.2-.04-.19-.03-.2-.03-.21-.01.13-3.18.37.03.36.04.36.06.35.08.34.09.66.24.32.14.31.16.3.17.29.18.29.2.27.21.26.23.25.23.24.25.44.52.2.28.18.29.18.3.16.31.14.31.13.32.12.33.18.68.06.35.05.36.03.36.01.36v.37zm0 0c-.04.87-.78 1.55-1.66 1.52-.87-.04-1.55-.78-1.52-1.66l3.18.14zm-7.44 6.84l.13-3.18.2.01.21-.01.2-.02.19-.02.2-.04.19-.05.18-.05.18-.06.19-.08.34-.16.16-.1.17-.1.3-.24.14-.12.14-.13.13-.14.24-.3.11-.16.1-.16.1-.17.09-.17.07-.17.08-.19.06-.18.05-.19.04-.19.04-.2.02-.2.01-.21 3.18.14-.03.36-.04.36-.06.36-.08.35-.09.34-.11.33-.13.33-.14.32-.16.31-.17.31-.18.29-.2.28-.21.27-.23.26-.23.25-.25.24-.25.22-.27.22-.28.2-.29.18-.3.18-.3.16-.32.14-.32.13-.33.12-.68.18-.35.06-.36.05-.36.03-.36.01h-.36zm0 0c-.88-.04-1.56-.78-1.53-1.66.04-.87.78-1.55 1.66-1.52l-.13 3.18z"/><path d="M1659.69 172.59a1.59 1.59 0 0 1-1.52-1.66c.04-.87.78-1.56 1.65-1.52l-.13 3.18zm6.98 4.26l-3.18-.13.01-.21-.01-.2-.02-.2-.03-.2-.03-.19-.1-.38-.06-.18-.08-.18-.16-.34-.1-.17-.11-.16-.11-.15-.24-.3-.27-.27-.15-.12-.15-.11-.16-.12-.16-.1-.34-.18-.18-.08-.18-.07-.18-.06-.19-.05-.2-.04-.19-.04-.2-.02-.21-.01.13-3.18.37.03.36.04.36.06.34.08.35.09.33.11.33.13.32.14.31.16.3.17.29.18.29.2.27.21.26.22.25.24.24.24.22.26.22.27.2.28.18.29.18.3.16.3.14.31.13.33.12.33.18.68.06.35.05.35.03.36.01.37v.36zm0 0a1.59 1.59 0 0 1-1.66 1.52c-.87-.03-1.55-.77-1.52-1.65l3.18.13zm-7.44 6.84l.13-3.17h.2l.21-.01.19-.01.4-.06.19-.05.18-.05.18-.07.19-.07.17-.08.17-.09.16-.09.32-.22.15-.12.28-.26.13-.14.12-.14.12-.15.11-.16.1-.16.1-.17.09-.17.21-.54.05-.19.04-.2.04-.19.02-.2.01-.21 3.18.13-.03.37-.04.36-.06.35-.08.35-.09.35-.11.33-.13.33-.14.32-.16.31-.17.3-.19.29-.19.28-.21.27-.23.27-.23.25-.25.23-.26.23-.26.21-.28.2-.29.19-.3.17-.31.16-.31.15-.32.13-.33.11-.34.1-.34.08-.35.07-.36.05-.36.03-.36.01-.36-.01zm0 0a1.59 1.59 0 0 1-1.53-1.65 1.59 1.59 0 0 1 1.66-1.52l-.13 3.17z"/><path d="M1659.84 172.59a1.59 1.59 0 0 1-1.45-1.71c.07-.88.83-1.53 1.71-1.46l-.26 3.17zm6.81 4.53l-3.17-.26.01-.2v-.2l-.01-.21-.01-.19-.03-.2-.04-.19-.05-.19-.05-.18-.14-.36-.17-.34-.1-.17-.11-.15-.11-.16-.12-.15-.26-.28-.14-.13-.3-.24-.32-.2-.17-.1-.18-.08-.17-.08-.18-.07-.19-.06-.2-.05-.19-.04-.2-.03-.21-.02.26-3.17.36.04.36.06.35.07.35.09.34.11.33.12.32.14.32.16.3.16.29.18.29.2.27.21.27.22.25.23.24.25.23.25.42.54.19.29.34.6.14.31.13.32.12.33.1.34.09.34.07.34.05.35.03.36.02.36v.36l-.02.37zm0 0c-.07.87-.84 1.53-1.71 1.46-.88-.07-1.53-.84-1.46-1.72l3.17.26zm-7.7 6.55l.26-3.17.2.01h.41l.19-.02.19-.03.2-.04.19-.05.18-.05.36-.14.17-.08.17-.09.17-.1.15-.11.16-.11.15-.12.28-.26.13-.14.24-.3.2-.32.1-.17.08-.18.08-.17.07-.18.06-.19.05-.2.04-.19.03-.2.02-.21 3.17.26-.04.36-.06.36-.07.36-.09.34-.11.34-.12.33-.14.33-.15.31-.17.3-.18.3-.2.28-.21.28-.22.26-.23.25-.25.24-.25.23-.27.22-.27.2-.29.19-.6.34-.31.14-.32.13-.33.12-.33.1-.35.09-.34.07-.35.05-.36.04-.36.01h-.36l-.37-.02zm0 0a1.59 1.59 0 0 1-1.45-1.71c.06-.87.83-1.53 1.71-1.46l-.26 3.17z"/><path d="M1660.42 161.4a1.59 1.59 0 0 1-1.49-1.68c.06-.88.81-1.54 1.69-1.49l-.2 3.17zm6.87 4.42l-3.17-.2.01-.2v-.21l-.01-.2-.02-.19-.04-.2-.04-.19-.05-.19-.06-.18-.14-.36-.18-.34-.1-.16-.11-.16-.11-.15-.13-.15-.13-.13-.13-.14-.15-.13-.14-.12-.32-.22-.16-.1-.17-.09-.17-.08-.18-.07-.19-.07-.38-.1-.2-.04-.2-.03-.2-.02.2-3.17.36.04.36.05.36.07.34.08.35.1.33.12.32.13.32.15.31.17.29.17.29.19.28.21.27.22.5.46.23.26.22.26.21.27.19.29.18.29.17.3.15.31.14.31.12.33.11.34.09.33.07.35.06.35.04.36.02.36.01.36-.02.36zm0 0a1.59 1.59 0 0 1-1.68 1.49c-.88-.06-1.54-.81-1.49-1.69l3.17.2zm-7.59 6.68l.21-3.17.2.01h.21l.19-.02.2-.02.2-.03.19-.04.18-.05.19-.06.18-.07.17-.07.18-.09.17-.09.16-.11.16-.1.15-.12.14-.12.14-.13.14-.14.13-.14.12-.15.11-.15.11-.16.27-.51.07-.18.07-.19.05-.18.05-.2.04-.19.03-.2.01-.21 3.17.2-.03.37-.05.36-.07.35-.08.35-.1.34-.12.33-.14.33-.14.31-.17.31-.18.3-.19.29-.2.28-.22.26-.23.26-.24.24-.25.23-.26.22-.27.21-.29.2-.29.18-.3.16-.31.16-.32.14-.32.12-.33.1-.34.1-.35.07-.35.06-.35.04-.37.02h-.36l-.37-.01zm0 0a1.59 1.59 0 0 1-1.48-1.69 1.59 1.59 0 0 1 1.69-1.48l-.21 3.17zm-1.61-38.47c-.63.61-1.64.59-2.25-.04a1.58 1.58 0 0 1 .04-2.24l2.21 2.28zm7.9-2.11l-2.29 2.21-.14-.14-.16-.14-.15-.13-.16-.11-.17-.11-.17-.1-.17-.09-.17-.07-.18-.08-.19-.06-.18-.05-.19-.04-.18-.04-.19-.03-.38-.02h-.19l-.19.01-.19.02-.2.03-.18.04-.19.04-.36.12-.36.16-.17.09-.17.1-.16.12-.16.11-.16.13-.15.14-2.21-2.28.27-.25.28-.23.29-.22.3-.2.3-.18.31-.17.32-.15.32-.13.33-.12.33-.1.34-.08.34-.07.33-.05.34-.04.35-.02h.34l.34.02.35.03.34.04.33.07.34.08.33.09.33.11.32.13.32.15.31.16.31.18.29.19.3.21.28.22.27.25.26.25zm0 0c.61.63.59 1.64-.04 2.25s-1.64.59-2.25-.04l2.29-2.21zm-.18 10.11l-2.2-2.28.28-.3.24-.32.2-.34.09-.17.08-.17.07-.18.06-.18.06-.19.04-.18.04-.19.04-.38.01-.19v-.19l-.01-.2-.02-.18-.03-.19-.04-.19-.05-.19-.05-.18-.14-.36-.08-.18-.09-.17-.11-.17-.11-.16-.12-.16-.13-.16-.14-.15 2.29-2.21.25.27.23.28.22.29.38.6.16.32.15.31.14.32.12.33.1.34.08.33.07.34.05.34.03.34.02.34.01.34-.02.35-.03.34-.05.34-.06.33-.08.34-.1.33-.11.33-.13.32-.14.32-.16.31-.18.31-.19.3-.21.29-.23.28-.24.27-.26.26zm0 0a1.58 1.58 0 0 1-2.24-.04c-.61-.63-.59-1.64.04-2.24l2.2 2.28zm30.24 8.26c-.87 0-1.59-.71-1.59-1.59s.72-1.59 1.59-1.59v3.18zm7.15 3.97h-3.18v-.21l-.04-.4-.08-.38-.05-.19-.07-.19-.07-.18-.16-.34-.1-.17-.1-.16-.11-.15-.12-.15-.13-.15-.13-.14-.14-.13-.14-.12-.15-.12-.32-.22-.16-.09-.18-.09-.17-.08-.18-.07-.19-.06-.18-.06-.2-.04-.19-.04-.4-.04h-.21v-3.18l.37.01.36.03.36.04.35.07.35.08.34.09.66.24.31.15.31.16.3.17.29.18.28.2.27.22.26.22.25.24.23.24.23.26.21.27.2.28.18.29.18.3.16.31.14.32.13.32.11.33.1.35.08.34.06.35.04.36.03.37.01.36zm0 0a1.59 1.59 0 0 1-1.59 1.59c-.87 0-1.59-.71-1.59-1.59h3.18zm-7.15 7.15v-3.18h.21l.4-.04.19-.04.2-.04.18-.06.19-.06.18-.07.17-.08.34-.18.32-.22.15-.11.28-.26.26-.28.12-.15.11-.16.1-.16.1-.17.16-.34.07-.18.07-.19.05-.19.04-.19.04-.2.02-.19.02-.2v-.21h3.18l-.01.37-.03.36-.04.36-.06.35-.08.34-.1.35-.11.33-.13.32-.14.32-.16.31-.18.3-.18.28-.2.29-.21.27-.23.26-.23.24-.25.24-.26.22-.27.22-.28.2-.29.18-.3.17-.31.16-.31.15-.66.24-.34.09-.35.08-.35.07-.36.04-.36.03-.37.01zm0 0c-.87 0-1.59-.71-1.59-1.59s.72-1.59 1.59-1.59v3.18z"/><path d="M1660.58 161.41a1.59 1.59 0 0 1 0-3.18v3.18zm35.47 0h-35.47v-3.18h35.47v3.18zm0-3.18a1.59 1.59 0 0 1 0 3.18v-3.18zm0-11.12a1.59 1.59 0 0 1 0 3.18v-3.18zm-44.14 0h44.14v3.18h-44.14v-3.18zm0 3.18a1.59 1.59 0 0 1 0-3.18v3.18zm10.34-5.1c-.66.58-1.66.52-2.25-.14-.58-.66-.52-1.66.14-2.24l2.11 2.38zm3.51-3.11l-3.51 3.11-2.11-2.38 3.52-3.11 2.1 2.38zm-2.1-2.38c.65-.58 1.66-.52 2.24.14.58.65.52 1.66-.14 2.24l-2.1-2.38zm-11.43-5.18c.65-.59 1.66-.54 2.25.11.58.65.54 1.65-.11 2.24l-2.14-2.35zm-14.08 8.01l.05-3.18.61.01.6-.01.58-.02.57-.04.56-.05.54-.05.54-.07.52-.08.51-.09.5-.1.49-.11.47-.12.47-.14.9-.28.44-.16.84-.34.4-.18.4-.19.39-.2.38-.21.36-.21.37-.22.35-.22.34-.23.34-.24.32-.25.33-.25.31-.25.3-.26.3-.27 2.14 2.35-.35.31-.36.31-.37.3-.37.29-.39.29-.39.28-.41.27-.42.27-.42.26-.44.25-.45.24-.45.23-.47.23-.48.21-.49.21-.49.19-.51.19-.52.17-.54.16-.54.15-.55.15-.56.12-.58.12-.58.1-.6.09-.61.08-.62.07-.63.05-.64.04-.65.02-.66.01h-.68zm0 0c-.88-.01-1.58-.74-1.56-1.62.01-.87.74-1.57 1.61-1.56l-.05 3.18z"/><path d="M1656.02 131.63c.7-.53 1.69-.4 2.23.3a1.58 1.58 0 0 1-.3 2.22l-1.93-2.52zm-3.78 2.89l3.78-2.89 1.93 2.52-3.78 2.89-1.93-2.52zm1.93 2.52c-.7.54-1.69.4-2.23-.29-.53-.7-.4-1.7.3-2.23l1.93 2.52z"/><use xlink:href="#B"/><circle cx="1754.22" cy="154.26" r="30.9" class="AJ"/><path d="M1769.88 127.62c5.11 5.54 8.31 12.9 8.31 21.1 0 17.05-13.85 30.9-30.9 30.9-5.75 0-11.08-1.6-15.66-4.26 5.65 5.96 13.75 9.8 22.59 9.8 17.05 0 30.9-13.85 30.9-30.9 0-11.4-6.08-21.31-15.24-26.64z" fill="#f1b31c"/><use xlink:href="#B" class="AC"/><path d="M1754.22 124.43v-2.13l1.64.04 1.63.12 1.59.2 1.58.29 1.54.35 1.52.43 1.49.51 1.45.57 1.42.64 1.37.7 1.34.77 1.3.84 1.25.89 1.21.95 1.16 1 1.11 1.06 1.06 1.11 1 1.16.95 1.21.89 1.25.83 1.3.77 1.33.71 1.38.64 1.42.57 1.45.51 1.49.43 1.51.35 1.55.28 1.57.21 1.6.12 1.63.04 1.64h-2.13l-.04-1.54-.11-1.51-.19-1.49-.27-1.47-.33-1.45-.4-1.41-.47-1.39-.53-1.35-.6-1.32-.66-1.29-.72-1.25-.77-1.21-.83-1.17-.89-1.13-.94-1.08-.99-1.04-1.03-.98-1.09-.94-1.12-.89-1.17-.83-1.21-.78-1.25-.71-1.29-.66-1.32-.6-1.35-.53-1.39-.47-1.41-.4-1.45-.34-1.47-.26-1.49-.19-1.52-.11-1.53-.04zm-29.83 29.83h-2.13l.04-1.64.12-1.63.2-1.6.28-1.57.36-1.55.43-1.51.5-1.49.58-1.45.64-1.42.7-1.38.77-1.34.84-1.29.89-1.25.94-1.21 1.01-1.16 1.06-1.11 1.11-1.06 1.16-1 1.2-.95 1.26-.89 1.29-.84 1.34-.77 1.38-.7 1.42-.64 1.45-.57 1.48-.51 1.52-.43 1.55-.35 1.57-.29 1.6-.2 1.63-.12 1.64-.04v2.13l-1.54.04-1.51.11-1.5.19-1.46.26-1.45.34-1.41.4-1.39.47-1.35.53-1.32.6-1.29.66-1.25.71-1.21.78-1.17.83-1.13.89-1.08.94-1.04.98-.98 1.04-.94 1.08-.89 1.13-.83 1.17-.78 1.21-.71 1.25-.66 1.29-.6 1.32-.53 1.35-.47 1.39-.4 1.41-.34 1.45-.26 1.47-.19 1.49-.12 1.51-.03 1.54zm29.83 29.83v2.13l-1.64-.04-1.63-.12-1.6-.2-1.57-.29-1.55-.35-1.52-.43-1.48-.51-1.45-.57-1.42-.64-1.38-.7-1.34-.77-1.29-.84-1.26-.89-1.2-.95-1.16-1-1.11-1.06-1.06-1.11-1.01-1.16-.94-1.21-.89-1.25-.84-1.29-.77-1.34-.7-1.38-.64-1.42-.58-1.45-.5-1.49-.43-1.51-.36-1.55-.28-1.57-.2-1.6-.12-1.63-.04-1.64h2.13l.03 1.54.12 1.51.19 1.5.26 1.46.34 1.45.4 1.41.47 1.39.53 1.35.6 1.32.66 1.29.71 1.25.78 1.21.83 1.17.89 1.13.94 1.08.98 1.03 1.04.99 1.08.94 1.13.89 1.17.83 1.21.77 1.25.72 1.28.66 1.33.6 1.35.53 1.39.47 1.41.4 1.45.34 1.46.26 1.5.19 1.51.11 1.54.04zm29.83-29.83h2.13l-.04 1.64-.12 1.63-.21 1.6-.28 1.57-.35 1.55-.43 1.51-.51 1.49-.57 1.45-.64 1.42-.71 1.38-.77 1.33-.83 1.3-.89 1.25-.95 1.21-1 1.16-1.06 1.11-1.11 1.06-1.16 1-1.21.95-1.25.89-1.3.84-1.34.77-1.37.7-1.42.64-1.45.57-1.49.51-1.51.43-1.55.35-1.58.29-1.59.2-1.63.12-1.64.04v-2.13l1.53-.04 1.52-.11 1.49-.19 1.47-.26 1.44-.34 1.42-.4 1.39-.47 1.35-.53 1.32-.6 1.29-.66 1.25-.72 1.21-.77 1.17-.83 1.12-.89 1.09-.94 1.03-.99.99-1.03.94-1.08.89-1.13.83-1.17.77-1.21.72-1.25.66-1.29.6-1.32.53-1.35.47-1.39.4-1.41.33-1.45.27-1.46.19-1.5.11-1.51.04-1.54z"/><path d="M1596.46 199.02l7.5 7.5 33.74-33.75 33.75 33.75 7.5-7.5-33.75-33.75 33.75-33.74-7.5-7.5-33.75 33.74-33.74-33.74-7.5 7.5 33.74 33.74-33.74 33.75zm16.87-16.88" fill="red"/></g><path d="M1581.17 347.64h219.24v219.24h-219.24z" class="y AC AE AF"/><g class="x"><g class="AK"><path d="M1634.75 495.06c-18.71 0-28.74-11.19-28.74-25.39s9.28-30.15 48.68-25.97l-19.94 51.36zm0 0h0z"/><path d="M1605.23 469.67h1.56l.03 1.29.09 1.26.14 1.25.2 1.22.25 1.2.31 1.17.37 1.15.42 1.12.47 1.09.53 1.06.58 1.03.64.99.69.96.74.93.8.88.85.85.9.81.96.77 1.01.72 1.07.68 1.11.64 1.18.58 1.22.54 1.28.49 1.33.44 1.38.38 1.44.33 1.49.28 1.54.21 1.59.16 1.65.09 1.7.04v1.56l-1.76-.03-1.71-.1-1.66-.16-1.6-.23-1.56-.28-1.5-.35-1.46-.41-1.4-.46-1.35-.51-1.29-.57-1.24-.63-1.19-.67-1.13-.73-1.08-.77-1.02-.82-.97-.86-.91-.91-.86-.95-.79-.99-.74-1.03-.69-1.06-.62-1.1-.56-1.14-.51-1.16-.45-1.2-.39-1.22-.33-1.25-.27-1.27-.21-1.3-.15-1.32-.09-1.34-.03-1.35zm49.54-26.74l-.16 1.55-3.59-.33-3.41-.22-3.24-.11h-3.07l-2.91.09-2.75.2-2.6.28-2.44.38-2.3.46-2.15.54-2.01.61-1.88.68-1.74.75-1.62.82-1.49.87-1.38.93-1.26.97-1.15 1.02-1.04 1.07-.94 1.11-.85 1.14-.75 1.17-.67 1.2-.58 1.23-.49 1.25-.42 1.27-.35 1.29-.27 1.3-.21 1.3-.14 1.31-.09 1.3-.03 1.31h-1.56l.03-1.37.09-1.38.15-1.38.22-1.38.29-1.38.37-1.36.45-1.36.53-1.34.62-1.32.72-1.29.81-1.26.91-1.23 1.01-1.18 1.12-1.15 1.23-1.09 1.34-1.04 1.46-.98 1.58-.93 1.7-.85 1.83-.79 1.95-.71 2.09-.64 2.23-.56 2.37-.47 2.51-.39 2.66-.29 2.81-.2 2.96-.09h3.13l3.29.11 3.46.22 3.62.34zm-20.02 52.13h0zm0 0h0z"/><path d="M1651.84 496.16h-18.75v-1.56h18.75z"/><path d="M1652.3 484.45c3.02.13 5.36 2.68 5.24 5.7a5.47 5.47 0 0 1-5.7 5.23l.46-10.93zm0 0h0z"/><path d="M1658.32 490.18l-1.57-.07.01-.24-.01-.24-.02-.23-.03-.23-.04-.23-.06-.23-.06-.22-.16-.42-.1-.21-.1-.2-.12-.2-.12-.19-.13-.18-.14-.17-.15-.17-.16-.17-.16-.15-.17-.15-.18-.14-.18-.13-.19-.12-.2-.11-.21-.1-.42-.18-.22-.07-.22-.06-.23-.05-.24-.04-.23-.03-.24-.02.06-1.56.32.02.32.04.31.06.3.06.6.18.28.11.28.13.27.13.27.15.25.16.25.18.24.18.23.2.21.2.21.22.2.22.19.24.17.24.16.25.16.26.14.27.24.56.1.29.08.29.08.3.05.31.04.31.03.31.01.32v.32zm-6.51 5.98l.06-1.56.25.01.24-.01.23-.02.23-.03.46-.1.22-.06.42-.16.21-.1.2-.1.2-.12.19-.12.18-.13.17-.14.17-.15.17-.16.15-.16.15-.17.14-.18.13-.19.12-.19.11-.19.1-.21.18-.42.07-.22.06-.22.05-.23.04-.24.03-.23.01-.25 1.57.07-.06.64-.06.31-.06.3-.18.6-.11.28-.13.28-.13.27-.15.27-.34.5-.18.23-.2.23-.2.22-.22.21-.22.2-.48.36-.25.16-.26.15-.27.14-.28.13-.28.11-.29.1-.29.09-.3.07-.31.06-.31.04-.31.03-.32.01-.32-.01zm.49-11.71h0zm0 0h0z"/><path d="M1652.66 473.52c3.02.13 5.37 2.68 5.24 5.69-.13 3.02-2.68 5.37-5.69 5.24l.45-10.93zm0 0h0z"/><path d="M1658.68 479.25l-1.56-.07v-.24l-.01-.24-.02-.23-.03-.24-.04-.23-.05-.22-.14-.44-.09-.21-.09-.2-.22-.4-.12-.19-.28-.36-.14-.17-.16-.16-.16-.15-.18-.15-.18-.14-.18-.13-.19-.12-.2-.11-.2-.1-.21-.1-.21-.08-.22-.07-.23-.06-.23-.05-.23-.04-.24-.03-.24-.02.07-1.56.32.02.31.04.31.05.31.07.3.08.29.1.29.11.28.12.27.14.26.15.26.16.25.17.46.38.22.21.21.21.19.23.19.24.18.24.16.25.15.26.14.27.13.27.11.29.1.29.09.29.07.3.06.31.04.3.02.32.01.32v.32zm-6.51 5.98l.07-1.56h.24l.24-.01.23-.02.24-.03.23-.04.22-.05.44-.14.21-.09.2-.09.4-.22.19-.12.36-.28.17-.14.16-.16.3-.34.14-.18.13-.18.12-.19.11-.2.1-.2.1-.21.08-.21.07-.22.06-.23.05-.23.04-.23.03-.24.02-.24 1.56.07-.02.32-.04.31-.05.31-.07.31-.08.3-.1.29-.11.29-.12.28-.14.27-.15.26-.16.26-.17.25-.38.46-.21.22-.21.21-.23.19-.24.19-.24.18-.25.16-.26.15-.27.14-.27.13-.29.11-.28.1-.3.09-.3.07-.31.06-.3.04-.32.02-.32.01h-.32zm.49-11.71h0zm0 0h0z"/><path d="M1652.87 473.53c3.01.24 5.26 2.88 5.02 5.89-.25 3.01-2.88 5.25-5.89 5.01l.87-10.9zm0 0h0z"/><path d="M1658.66 479.48l-1.55-.12.01-.25v-.24l-.01-.23-.02-.24-.04-.22-.04-.23-.12-.44-.08-.22-.09-.21-.09-.2-.11-.2-.24-.38-.13-.18-.14-.18-.15-.17-.16-.16-.34-.3-.18-.13-.19-.13-.19-.12-.2-.11-.21-.1-.21-.09-.21-.08-.22-.07-.23-.06-.23-.05-.24-.04-.24-.02.13-1.56.32.03.31.05.31.07.3.08.3.09.29.11.28.12.27.13.27.15.26.16.24.17.24.18.46.4.2.21.2.23.19.23.18.24.17.25.15.26.14.27.13.27.12.28.1.29.09.29.07.3.06.3.05.31.03.31.01.31v.32l-.02.32zm-6.73 5.73l.13-1.56.48.02.24-.02.23-.02.23-.03.23-.05.22-.05.22-.07.42-.16.2-.1.21-.11.19-.11.19-.13.18-.13.17-.14.17-.15.16-.16.15-.16.15-.18.14-.18.12-.18.12-.2.11-.2.1-.2.1-.21.08-.22.07-.22.06-.23.04-.23.04-.24.03-.23 1.55.12-.03.32-.05.31-.06.31-.08.31-.2.58-.13.28-.13.27-.15.27-.16.26-.17.25-.18.24-.19.23-.21.22-.21.21-.22.2-.24.19-.24.18-.25.16-.52.3-.27.12-.28.12-.29.1-.29.09-.3.08-.3.06-.31.04-.31.03-.32.02h-.32l-.32-.02zm.94-11.68h0zm0 0h0z"/><path d="M1653.41 462.52a5.48 5.48 0 0 1 5.11 5.81c-.19 3.02-2.79 5.3-5.81 5.11l.7-10.92zm0 0h0z"/><path d="M1659.3 468.38l-1.56-.1.01-.24v-.24l-.02-.24-.02-.23-.04-.23-.05-.22-.06-.23-.07-.21-.08-.21-.09-.21-.1-.21-.11-.19-.12-.2-.26-.36-.3-.34-.16-.16-.17-.15-.17-.14-.38-.26-.19-.11-.2-.11-.21-.1-.21-.09-.44-.14-.23-.06-.23-.04-.48-.06.1-1.56.32.03.32.05.31.06.3.07.3.09.29.1.28.12.28.13.27.14.26.16.25.17.24.17.23.19.23.2.21.21.21.22.19.23.18.24.17.25.16.26.14.26.14.27.12.28.1.28.1.29.08.3.06.3.05.31.04.31.02.31v.32l-.01.32zm-6.64 5.84l.1-1.56.24.01h.24l.24-.02.23-.02.23-.04.23-.05.22-.06.22-.07.21-.08.21-.09.2-.1.2-.11.19-.12.19-.13.17-.13.18-.15.16-.15.16-.16.15-.17.14-.17.14-.19.24-.38.11-.2.18-.42.08-.22.06-.22.06-.23.04-.23.04-.24.02-.24 1.56.1-.03.32-.04.32-.06.31-.08.3-.09.3-.1.29-.12.28-.13.28-.14.27-.15.26-.17.25-.18.24-.19.23-.2.23-.21.21-.22.2-.23.2-.24.18-.25.17-.25.16-.54.28-.28.12-.28.1-.29.1-.3.08-.3.06-.31.05-.31.04-.31.02h-.32l-.32-.01zm.75-11.7h0zm0 0h0zm-14.54-17.98c11.91-9.17 16.7-10.55 18.8-8.37 2.1 2.17-1.22 8.9-3.4 10.99l-15.4-2.62zm0 0h0z"/><path d="M1658.23 435.62l-1.12 1.09-.15-.14-.16-.13-.17-.1-.19-.09-.2-.08-.23-.06-.24-.04-.28-.02h-.3l-.33.03-.36.05-.39.07-.42.11-.45.14-.48.17-.51.2-.55.24-.58.27-.61.3-.64.34-.67.38-.71.41-.75.46-.78.49-.82.53-.85.58-.89.61-.93.66-.97.7-1.01.74-1.05.79-1.09.83-.95-1.23 1.1-.84 1.06-.8 1.02-.75.98-.71.94-.67.91-.62.87-.59.84-.54.8-.51.77-.47.73-.43.71-.39.67-.36.64-.32.62-.29.59-.25.56-.23.54-.18.52-.16.5-.13.47-.09.45-.07.44-.03h.42l.4.03.39.06.37.1.35.13.32.16.31.19.28.22.26.24zm-3.42 12.11l-1.08-1.13.18-.18.19-.21.2-.24.21-.26.2-.29.22-.3.21-.32.21-.34.21-.35.4-.74.19-.38.19-.39.18-.39.17-.4.15-.39.15-.4.13-.39.11-.39.1-.38.08-.37.07-.35.04-.35.03-.32.01-.31-.02-.29-.03-.26-.05-.23-.07-.21-.08-.17-.09-.16-.11-.13 1.12-1.09.25.31.21.33.16.35.12.37.08.38.05.38.02.4-.01.41-.03.41-.06.42-.08.42-.09.43-.11.43-.13.44-.15.44-.16.43-.17.43-.18.43-.19.43-.2.42-.21.41-.22.41-.22.39-.23.38-.23.37-.23.35-.23.34-.24.32-.23.3-.24.28-.23.26-.24.24zm-15.94-3.19h0zm0 0h0zm49.5 7.05c3.02 0 5.47 2.45 5.47 5.47s-2.45 5.46-5.47 5.46v-10.93zm0 0h0z"/><path d="M1694.62 457.06h-1.56l-.01-.25-.02-.23-.03-.24-.04-.23-.05-.23-.06-.22-.08-.22-.08-.21-.1-.21-.1-.2-.11-.19-.12-.19-.13-.19-.14-.18-.15-.17-.16-.16-.16-.15-.17-.15-.18-.14-.18-.13-.19-.12-.4-.22-.42-.18-.22-.07-.22-.06-.23-.06-.23-.04-.23-.03-.48-.02v-1.56h.32l.32.03.31.04.31.05.3.07.3.09.29.1.28.11.28.12.27.14.26.15.26.16.24.18.23.18.23.2.22.21.21.21.19.23.19.24.17.24.16.25.15.27.14.27.13.27.11.29.1.29.08.29.07.31.06.31.04.31.02.31.01.33zm-6.25 6.25v-1.57h.24l.24-.02.23-.03.23-.04.23-.06.22-.06.22-.07.21-.08.21-.1.2-.1.2-.11.19-.13.18-.13.18-.14.17-.15.16-.15.16-.16.15-.17.14-.18.13-.18.12-.19.11-.2.1-.2.1-.21.08-.21.08-.22.06-.22.05-.23.04-.23.03-.23.02-.24.01-.24h1.56l-.01.32-.02.31-.04.32-.06.3-.07.31-.08.29-.1.3-.11.28-.13.28-.14.26-.15.27-.16.25-.17.25-.38.46-.21.22-.22.2-.23.2-.23.18-.24.18-.26.16-.26.15-.27.14-.56.24-.29.1-.3.08-.3.07-.31.05-.31.04-.32.03-.32.01zm0-11.72h0zm0 0h0z"/><path d="M1688.37 463.31h-34.9v-1.57h34.9zm-43.43-12.5h43.43v1.56h-43.43zm13.11-6.32l-3.46 3.06-1.03-1.18 3.46-3.06zm-11.74-5.7c-3.35 3.06-8.07 5.28-14.88 5.16l14.88-5.16zm0 0h0z"/><path d="M1631.42 444.73l.03-1.56.61.01.61-.01.59-.03.57-.03.57-.05.56-.05.54-.08.53-.08.52-.09.51-.1.5-.12.49-.12.47-.13.47-.15.46-.15.44-.16.44-.17.43-.18.82-.38.4-.21.39-.21.38-.21.37-.23.36-.23.36-.24.34-.24.34-.25.33-.26.32-.26.62-.54 1.05 1.15-.33.3-.34.29-.35.28-.36.28-.36.27-.38.27-.38.26-.4.25-.4.24-.41.24-.42.23-.44.22-.44.21-.45.2-.46.2-.96.36-.49.16-.51.16-.51.14-1.06.26-.55.11-.55.1-.57.08-.58.08-.59.06-.6.05-.62.04-.62.02-.64.01-.65-.01zm14.89-5.94h0zm0 0h0z"/><path d="M1645.74 438.26l3.72-2.85.95 1.24-3.72 2.85zm-.21 24.44l3.08-11.04h40.28v10.86z"/><path d="M1649.36 451.87l-3.08 11.04-1.5-.42 3.07-11.04.76-.57.75.99zm-1.51-.42l.16-.57h.6l-.76.57zm41.04.99h-40.28v-1.56h40.28l.78.78-.78.78zm0-1.56h.78v.78l-.78-.78zm-.78 11.64v-10.86h1.56v10.86l-.78.79-.78-.79zm1.56 0v.78l-.78.01.78-.79zm-44.14-.6l43.36-.18v1.57l-43.36.17-.75-.99.75-.57zm0 1.56h-1.03l.28-.99.75.99z"/><path d="M1634.37 462.7v32.69h19.1V462.7z"/><path d="M1633.59 495.39V462.7h1.56v32.69l-.78.78-.78-.78zm.78.78h-.78v-.78l.78.78zm19.1 0h-19.1v-1.56h19.1l.78.78-.78.78zm.78-.78v.78h-.78l.78-.78zm0-32.69v32.69h-1.56V462.7l.78-.78.78.78zm-.78-.78h.78v.78l-.78-.78zm-19.1 0h19.1v1.56h-19.1l-.78-.78.78-.78zm-.78.78v-.78h.78l-.78.78zm14.85-11.11l1.55-4.15 4.98.79-4.58 3.38z"/><path d="M1650.72 447.71l-1.55 4.15-1.46-.55 1.55-4.15.85-.49.61 1.04zm-1.46-.55l.22-.59.63.1-.85.49zm5.59 1.84l-4.98-.79.24-1.54 4.98.79.34 1.4-.58.14zm.24-1.54l1.84.3-1.5 1.1-.34-1.4zm-5.16 3.53l4.57-3.39.93 1.26-4.57 3.38-.48.16-.45-1.41zm.93 1.25l-.22.16h-.26l.48-.16zm-2.41-1.43l1.95.02-.02 1.57-1.95-.03-.72-1.06.74-.5zm-.02 1.56l-1.11-.02.39-1.04.72 1.06z"/></g><path d="M1631.73 493.82c.86 0 1.56.7 1.56 1.56s-.7 1.56-1.56 1.56v-3.12zm-27.28-24.15h3.13l.03 1.24.09 1.23.15 1.21.22 1.19.27 1.16.32 1.15.38 1.12.43 1.1.49 1.07.53 1.04.58 1.01.63.98.67.95.72.91.76.87.8.84.84.8.87.76.92.72.94.67.99.63 1.01.58 1.04.54 1.07.48 1.09.43 1.12.38 1.15.33 1.17.27 1.19.21 1.21.15 1.22.1 1.25.03v3.12l-1.4-.03-1.39-.11-1.37-.17-1.34-.24-1.32-.31-1.29-.36-1.27-.43-1.24-.49-1.21-.55-1.18-.6-1.14-.66-1.1-.71-1.07-.76-1.03-.81-.99-.85-.95-.91-.9-.94-.86-.99-.81-1.03-.76-1.07-.71-1.11-.66-1.14-.6-1.18-.54-1.21-.49-1.23-.43-1.27-.37-1.3-.31-1.32-.24-1.34-.17-1.37-.1-1.38-.04-1.4zm0 0c0-.87.7-1.57 1.56-1.57.87 0 1.57.7 1.57 1.57h-3.13zm27.28-27.28v3.13l-1.25.03-1.22.09-1.21.16-1.19.21-1.17.27-1.15.32-1.12.38-1.09.43-1.07.49-1.04.53-1.01.58-.99.63-.94.67-.92.72-.87.76-.84.8-.8.84-.76.88-.72.91-.67.94-.63.99-.58 1.01-.53 1.04-.49 1.07-.43 1.09-.38 1.12-.32 1.15-.27 1.17-.22 1.19-.15 1.21-.09 1.22-.03 1.25h-3.13l.04-1.4.1-1.39.17-1.37.24-1.34.31-1.32.37-1.29.43-1.27.49-1.24.54-1.21.6-1.18.66-1.14.71-1.1.76-1.07.81-1.03.86-.99.9-.95.95-.9.99-.86 1.03-.81 1.07-.76 1.1-.71 1.14-.65 1.18-.61 1.21-.54 1.24-.49 1.27-.43 1.29-.37 1.32-.3 1.34-.24 1.37-.18 1.39-.1 1.4-.04zm0 0c.86 0 1.56.7 1.56 1.56 0 .87-.7 1.57-1.56 1.57v-3.13z"/><path d="M1633.09 496.94c-.86 0-1.56-.7-1.56-1.56s.7-1.56 1.56-1.56v3.12zm18.75 0h-18.75v-3.12h18.75v3.12zm0-3.12c.86 0 1.56.7 1.56 1.56s-.7 1.56-1.56 1.56v-3.12z"/><path d="M1652.23 486.02c-.86-.04-1.53-.77-1.49-1.63.03-.86.76-1.53 1.63-1.5l-.14 3.13zm6.87 4.19l-3.13-.13.01-.2-.01-.2-.02-.2-.02-.19-.08-.38-.12-.36-.07-.17-.08-.18-.08-.16-.1-.17-.1-.16-.11-.15-.24-.28-.27-.27-.14-.12-.15-.12-.16-.11-.16-.1-.16-.09-.34-.16-.18-.07-.19-.06-.18-.05-.19-.04-.2-.04-.19-.02-.21-.01.14-3.13.36.03.35.04.35.06.34.07.34.1.33.11.32.12.32.14.3.15.3.17.29.18.27.2.27.21.26.22.24.23.24.24.22.25.21.27.2.27.18.28.17.3.16.3.14.31.13.32.11.32.1.33.08.34.06.34.05.35.03.35.01.36v.36zm0 0a1.57 1.57 0 0 1-1.63 1.5 1.57 1.57 0 0 1-1.5-1.63l3.13.13zm-7.32 6.73l.13-3.12h.4l.2-.02.19-.02.19-.04.18-.05.19-.05.18-.06.17-.07.18-.08.16-.09.17-.09.15-.11.16-.11.14-.11.28-.26.13-.13.12-.14.12-.16.11-.15.09-.16.1-.16.08-.17.08-.18.07-.18.06-.18.05-.18.04-.19.04-.2.02-.2.01-.2 3.13.13-.03.36-.04.36-.06.35-.08.34-.09.34-.11.33-.12.32-.14.32-.15.3-.17.3-.19.29-.19.27-.21.27-.21.25-.24.25-.24.23-.25.23-.27.21-.27.19-.28.19-.3.17-.3.16-.31.14-.32.13-.32.11-.33.1-.34.08-.35.06-.34.05-.36.03-.35.01-.36-.01zm0 0a1.55 1.55 0 0 1-1.5-1.62 1.57 1.57 0 0 1 1.63-1.5l-.13 3.12z"/><path d="M1652.6 475.08c-.86-.03-1.53-.76-1.5-1.62.04-.87.77-1.54 1.63-1.5l-.13 3.12zm6.86 4.2l-3.12-.13v-.2l-.02-.4-.06-.38-.05-.19-.05-.18-.06-.18-.08-.18-.07-.17-.09-.17-.2-.32-.22-.3-.13-.14-.13-.13-.28-.26-.3-.22-.16-.1-.34-.18-.17-.08-.36-.12-.18-.05-.2-.05-.19-.03-.4-.04.13-3.12.36.03.36.04.34.06.35.07.34.1.32.1.33.13.31.14.31.15.29.17.29.18.28.2.27.2.25.22.25.23.23.25.22.25.21.27.2.27.18.28.17.29.16.3.14.31.13.32.11.33.1.33.08.34.07.34.04.35.03.35.02.36-.01.36zm0 0c-.03.86-.76 1.53-1.63 1.5-.86-.04-1.53-.77-1.49-1.63l3.12.13zm-7.32 6.73l.13-3.12h.2l.4-.02.38-.06.19-.05.18-.05.18-.06.18-.08.17-.07.17-.09.32-.2.15-.11.15-.12.14-.12.13-.13.13-.14.12-.14.12-.15.11-.15.1-.16.18-.34.08-.17.18-.54.04-.2.03-.19.04-.4 3.12.13-.02.36-.05.36-.06.34-.07.35-.09.34-.11.32-.13.33-.14.31-.15.31-.17.29-.18.29-.2.28-.2.26-.22.26-.23.25-.24.23-.26.22-.26.21-.28.2-.28.18-.29.17-.3.16-.31.14-.32.13-.33.11-.33.1-.34.08-.34.07-.35.04-.35.03-.36.02-.36-.01zm0 0c-.86-.03-1.53-.76-1.5-1.63.04-.86.77-1.53 1.63-1.49l-.13 3.12z"/><path d="M1652.75 475.09a1.57 1.57 0 0 1-1.43-1.69c.06-.86.82-1.5 1.68-1.43l-.25 3.12zm6.69 4.45l-3.11-.25.01-.2v-.2l-.01-.2-.02-.19-.06-.38-.05-.19-.05-.18-.07-.18-.07-.17-.08-.17-.09-.17-.2-.32-.11-.15-.24-.28-.14-.14-.13-.12-.3-.24-.16-.11-.16-.1-.16-.09-.17-.08-.18-.08-.36-.12-.19-.05-.19-.04-.2-.03-.2-.02.25-3.12.36.04.35.05.35.08.34.09.33.1.33.12.31.14.31.15.3.17.29.18.28.19.27.2.26.22.25.23.23.24.23.25.21.27.2.27.19.28.17.29.16.29.15.31.13.32.11.32.1.33.09.34.06.34.05.34.04.35.02.35-.01.36-.02.36zm0 0c-.06.86-.82 1.5-1.68 1.44a1.57 1.57 0 0 1-1.43-1.69l3.11.25zm-7.57 6.45l.25-3.12.2.01h.2l.2-.01.19-.01.2-.03.19-.04.36-.1.18-.06.34-.16.17-.09.16-.09.16-.11.15-.11.15-.12.14-.12.13-.13.13-.14.12-.14.11-.16.11-.15.1-.16.09-.17.16-.34.07-.18.06-.19.05-.19.04-.19.03-.2.02-.2 3.11.25-.03.36-.06.36-.07.34-.09.34-.11.33-.12.33-.14.32-.15.31-.16.3-.18.29-.19.28-.21.26-.22.26-.23.25-.24.24-.25.22-.26.22-.27.2-.28.18-.29.17-.3.16-.31.15-.31.13-.33.12-.33.1-.33.08-.34.07-.35.05-.35.03-.35.02h-.36l-.36-.02zm0 0c-.86-.07-1.5-.83-1.43-1.68.07-.86.82-1.51 1.68-1.44l-.25 3.12z"/><path d="M1653.31 464.08a1.56 1.56 0 0 1-1.46-1.66c.06-.86.8-1.51 1.66-1.45l-.2 3.11zm6.77 4.35l-3.12-.2.01-.2-.02-.4-.02-.19-.03-.19-.04-.19-.05-.19-.06-.17-.14-.36-.08-.16-.1-.17-.09-.16-.11-.15-.12-.15-.11-.15-.13-.14-.14-.13-.28-.24-.16-.11-.15-.11-.16-.09-.17-.09-.18-.09-.17-.06-.18-.07-.19-.06-.38-.08-.2-.03-.2-.02.2-3.11.36.03.35.05.35.06.35.09.33.1.32.11.33.14.31.14.3.16.29.18.29.19.27.19.26.22.25.23.24.23.23.25.22.26.2.26.19.28.18.29.32.6.13.31.12.32.11.33.09.34.07.33.06.35.04.35.02.36v.35l-.01.36zm0 0c-.06.86-.8 1.52-1.66 1.46-.86-.05-1.51-.8-1.46-1.66l3.12.2zm-7.47 6.57l.2-3.12.2.01h.2l.2-.02.19-.02.19-.03.19-.04.19-.05.18-.06.18-.07.17-.07.17-.08.16-.09.16-.1.16-.11.15-.11.14-.12.14-.13.26-.28.11-.14.12-.15.2-.32.09-.17.08-.17.07-.18.06-.18.06-.19.05-.19.03-.19.03-.2.02-.2 3.12.2-.03.36-.05.35-.07.36-.09.34-.09.33-.12.33-.13.32-.15.31-.16.3-.17.3-.19.28-.2.27-.21.26-.23.26-.48.46-.26.22-.27.2-.28.19-.28.18-.3.17-.31.15-.31.13-.32.12-.33.11-.33.09-.34.07-.35.06-.35.04-.35.02h-.36l-.36-.01zm0 0a1.57 1.57 0 0 1-1.46-1.66 1.57 1.57 0 0 1 1.66-1.46l-.2 3.12zm-1.59-37.84c-.62.6-1.61.58-2.21-.04s-.58-1.61.04-2.21l2.17 2.25zm7.77-2.08l-2.24 2.17-.15-.14-.15-.13-.15-.12-.16-.12-.16-.1-.17-.1-.17-.09-.17-.08-.18-.07-.18-.06-.17-.05-.19-.04-.18-.04-.38-.04-.19-.01h-.19l-.18.01-.19.02-.18.03-.19.04-.18.04-.36.12-.18.07-.34.18-.17.1-.16.11-.15.11-.16.13-.15.14-2.17-2.25.27-.24.27-.23.29-.22.29-.19.3-.18.3-.17.32-.14.31-.13.33-.12.32-.1.33-.08.33-.07.34-.05.33-.03.34-.02h.34l.34.01.33.03.33.05.34.06.33.08.32.09.33.11.31.13.32.14.31.16.29.17.3.19.28.21.28.22.27.24.25.25zm0 0c.6.62.59 1.61-.03 2.21s-1.62.58-2.21-.04l2.24-2.17zm-.17 9.95l-2.17-2.25.28-.3.12-.15.22-.32.09-.17.09-.16.08-.18.07-.18.06-.18.1-.36.03-.18.03-.19.02-.38v-.18l-.01-.19-.02-.19-.03-.18-.04-.19-.04-.18-.05-.18-.14-.36-.08-.17-.09-.17-.1-.16-.11-.17-.12-.15-.13-.16-.13-.15 2.24-2.17.25.27.23.27.21.29.19.29.18.3.17.3.15.32.13.32.11.32.1.33.08.32.07.33.05.34.04.34.02.67-.02.34-.03.33-.04.34-.14.66-.1.33-.11.32-.12.31-.15.32-.16.31-.17.3-.19.29-.21.28-.22.28-.24.27-.25.26zm0 0c-.62.59-1.61.58-2.21-.04s-.58-1.61.04-2.21l2.17 2.25zm29.75 8.12c-.86 0-1.56-.7-1.56-1.56a1.57 1.57 0 0 1 1.56-1.57v3.13zm7.03 3.91h-3.12l-.01-.21-.01-.2-.06-.38-.1-.38-.06-.18-.07-.17-.08-.18-.09-.17-.09-.16-.1-.16-.11-.15-.12-.15-.12-.14-.13-.14-.14-.13-.14-.12-.14-.11-.16-.12-.16-.1-.16-.09-.34-.16-.18-.07-.36-.12-.38-.08-.4-.04h-.2v-3.13l.36.01.35.03.36.05.35.06.33.08.34.09.33.11.32.13.31.14.3.15.3.17.56.38.26.21.26.22.24.23.23.25.22.25.21.27.2.27.18.29.17.3.16.3.14.31.12.32.11.33.1.33.08.34.06.35.04.35.03.36.01.36zm0 0c0 .86-.7 1.56-1.56 1.56s-1.56-.7-1.56-1.56h3.12zm-7.03 7.03v-3.13h.2l.4-.04.38-.08.18-.05.18-.06.18-.07.17-.08.17-.09.16-.09.16-.1.16-.11.28-.24.14-.13.13-.14.12-.14.12-.15.11-.15.1-.16.09-.16.09-.17.08-.18.07-.17.06-.18.1-.38.06-.38.02-.4h3.12l-.01.36-.03.35-.04.35-.06.35-.08.34-.1.34-.11.32-.12.32-.14.31-.16.31-.17.29-.18.29-.2.27-.21.27-.22.25-.23.25-.24.23-.26.22-.26.21-.56.38-.3.17-.3.15-.31.14-.32.13-.33.11-.34.09-.33.08-.35.07-.36.04-.35.03-.36.01zm0 0c-.86 0-1.56-.7-1.56-1.57 0-.86.7-1.56 1.56-1.56v3.13z"/><path d="M1653.47 464.09c-.86 0-1.56-.7-1.56-1.57 0-.86.7-1.56 1.56-1.56v3.13zm34.9 0h-34.9v-3.13h34.9v3.13zm0-3.13c.86 0 1.56.7 1.56 1.56 0 .87-.7 1.57-1.56 1.57v-3.13zm0-10.94a1.57 1.57 0 0 1 1.56 1.57c0 .86-.7 1.56-1.56 1.56v-3.13zm-43.43 0h43.43v3.13h-43.43v-3.13zm0 3.13c-.86 0-1.56-.7-1.56-1.56a1.57 1.57 0 0 1 1.56-1.57v3.13zm10.17-5.02c-.65.57-1.63.51-2.2-.14-.57-.64-.51-1.63.13-2.2l2.07 2.34zm3.46-3.06l-3.46 3.06-2.07-2.34 3.46-3.06 2.07 2.34zm-2.07-2.34c.65-.57 1.64-.51 2.21.14.57.64.51 1.63-.14 2.2l-2.07-2.34zm-11.24-5.09c.64-.58 1.63-.54 2.21.1s.53 1.63-.11 2.21l-2.1-2.31zm-13.85 7.88l.05-3.13h1.19l.57-.02.56-.04.55-.04.53-.06.53-.07.51-.08.51-.09.49-.1.48-.1.47-.12.45-.13.45-.14.44-.15.43-.15.41-.16.42-.18.4-.18.38-.18.76-.4.36-.21.35-.21.35-.22.34-.23.33-.23.32-.25.32-.24.31-.25.3-.26.29-.26 2.1 2.31-.34.31-.35.3-.36.29-.37.29-.38.28-.39.28-.4.27-.41.26-.42.26-.43.24-.44.24-.45.23-.46.22-.47.21-.48.2-.49.19-.51.19-1.03.33-.53.15-.54.13-.56.13-.56.11-.58.11-.58.09-.6.07-.61.07-.62.05-.63.04-.64.02-.66.01h-.66zm0 0c-.86-.02-1.55-.73-1.54-1.59.02-.86.73-1.55 1.59-1.54l-.05 3.13z"/><path d="M1648.99 434.79c.68-.52 1.66-.39 2.19.29a1.57 1.57 0 0 1-.29 2.19l-1.9-2.48zm-3.72 2.85l3.72-2.85 1.9 2.48-3.72 2.85-1.9-2.48zm1.9 2.48a1.57 1.57 0 0 1-2.19-.29c-.53-.68-.4-1.67.29-2.19l1.9 2.48z"/><path d="M1710.7 500.01v-6.83c0-8.53 8.54-15.36 17.07-15.36 10.24 8.53 20.48 8.53 30.72 0 8.54 0 17.07 6.83 17.07 15.36v6.83h-64.86zm0 0h0z" fill="#92d3f5"/><path d="M1712.41 476.63c1.88 1.7 4.1 3.24 6.14 4.6 2.91-2.04 6.15-3.41 9.22-3.58 10.58 8.53 21.34 8.53 31.92 0 2.39.17 4.95 1.02 7.17 2.56 1.88-1.2 3.58-2.56 5.12-3.93 2.05-1.19 5.29-14.16.68-22.18-.68-1.54-1.37-2.91-2.05-4.44-2.56-5.64-3.41-7.68-3.92-17.92 0-6.32-6.49-11.61-12.8-12.12-.52 0-.86-.17-1.2-.51-.17-.18-4.1-4.61-12.29-4.61-10.58 0-19.46 5.8-21.68 13.99-.85 3.42-1.19 7-1.02 10.59.34 3.41-.17 6.99-1.36 10.24-.35 1.36-1.03 2.56-1.88 3.58-6.49 7.34-1.71 24.24-2.05 23.73z" fill="#a57939"/><path d="M1725.04 446.07v1.71c0 12.97 7.85 23.21 17.92 23.21s17.92-10.24 17.92-23.21c0-8.02-3.07-12.8-9.04-18.95-4.78 3.76-9.9 7-15.36 9.9-4.44 2.39-10.76 5.98-11.44 7.34z" class="AK"/><path d="M1715.22 474.52c.5.8.26 1.86-.54 2.36s-1.85.25-2.35-.54l2.89-1.82zm-.99-24.79l3.19 1.22-.01.01-.3.76-.31.75-.32.74-.65 1.46-.32.73-.31.71-.31.72-.3.71-.29.7-.27.71-.26.69-.24.7-.22.7-.2.7-.17.69-.14.7-.12.69-.08.7-.06.71-.02.7.02.72.05.72.09.73.14.75.18.75.23.78.29.79.33.81.4.82.45.85.52.87-2.89 1.82-.6-1-.53-1-.47-.97-.4-.97-.34-.96-.28-.95-.23-.93-.17-.93-.12-.92-.06-.9-.02-.89.02-.87.07-.87.1-.85.14-.83.17-.82.2-.81.23-.8.25-.79.26-.78.28-.76.3-.76.31-.75.31-.74.32-.74.64-1.46.64-1.44.6-1.42.28-.71v.01zm0-.01a1.72 1.72 0 0 1 2.22-.97c.87.34 1.31 1.34.96 2.21l-3.18-1.24zm2.17-20.31l3.29.9-.22.82-.18.79-.15.76-.13.73-.11.71-.08.69-.07.66-.05.65-.03.63-.02.61-.01.61v.59l.02 1.16.08 2.3.02 1.16-.02 1.19-.03.6-.05.62-.06.62-.09.64-.11.65-.14.66-.16.68-.2.69-.22.7-.26.72-3.19-1.22.22-.6.19-.59.16-.57.13-.56.11-.54.1-.53.07-.53.05-.53.04-.52.03-.52.01-.52v-1.07l-.01-.54-.08-2.29-.02-1.23v-.64l.01-.66.02-.69.04-.7.05-.72.07-.75.1-.77.12-.8.14-.82.18-.85.2-.87.24-.91zm0 0c.24-.91 1.18-1.44 2.09-1.2a1.71 1.71 0 0 1 1.2 2.1l-3.29-.9zm25.03-16.62v3.41l-.97.02-.95.05-.95.08-.94.11-.93.15-.91.17-.9.21-.89.23-.88.26-.85.29-.84.32-.83.35-.8.38-.78.4-.76.42-.73.45-.71.48-.69.5-.66.52-.63.55-.61.57-.57.59-.55.61-.51.63-.48.66-.45.67-.42.69-.38.71-.35.73-.31.75-.28.77-.23.79-3.29-.9.28-.95.33-.94.38-.9.42-.89.46-.86.5-.83.54-.81.58-.78.61-.75.65-.73.68-.7.71-.67.74-.63.77-.62.8-.58.83-.55.84-.52.88-.49.89-.46.92-.43.93-.39.96-.37.97-.33.99-.3 1-.26 1.02-.23 1.03-.2 1.05-.16 1.05-.13 1.06-.09 1.08-.05 1.08-.02zm0 0a1.7 1.7 0 1 1 0 3.41v-3.41zm13.81 5.13l-.32 3.4-1.13-.58h.01l-.35-.35-.14-.13-.17-.14-.2-.17-.22-.18-.25-.19-.27-.19-.29-.2-.32-.22-.35-.21-.37-.22-.4-.21-.42-.22-.44-.21-.48-.21-.5-.2-.52-.19-.55-.19-.57-.17-.6-.16-.63-.14-.66-.13-.68-.1-.7-.09-.74-.06-.76-.04-.79-.02v-3.41l.91.02.88.04.85.08.82.1.8.12.77.15.74.17.71.18.68.21.65.21.63.23.59.24.56.25.54.26.51.26.48.26.45.26.81.52.37.25.33.25.31.24.28.22.25.21.23.19.19.19.17.16.14.13.11.11.09.1.06.06.03.04-1.13-.58zm1.13.58a1.71 1.71 0 0 1-.17 2.41 1.72 1.72 0 0 1-2.41-.17l2.58-2.24zm13.04 14.68l-3.4.19-.01-.1-.01-.57-.04-.56-.07-.56-.09-.55-.12-.54-.15-.53-.17-.53-.19-.51-.22-.5-.23-.5-.27-.48-.28-.47-.3-.46-.32-.44-.35-.42-.36-.42-.38-.39-.4-.38-.42-.36-.43-.35-.45-.32-.47-.3-.48-.29-.49-.26-.51-.24-.52-.22-.53-.2-.54-.17-.56-.14-.57-.13-.57-.09-.59-.07.32-3.4.75.09.73.12.73.16.71.18.69.22.68.25.67.28.64.31.64.34.61.36.59.39.57.41.56.44.53.46.51.48.49.51.46.53.44.54.42.57.39.58.36.6.33.62.31.64.28.65.25.66.22.68.18.69.16.69.12.72.09.72.05.73.02.73-.01-.09zm.01.09c0 .94-.77 1.71-1.71 1.71s-1.71-.77-1.71-1.71h3.42zm5.66 21.17l-3.13 1.36v-.01l-.38-.86-.35-.81-.34-.76-.32-.72-.31-.68-.29-.65-.28-.62-.26-.59-.26-.58-.24-.56-.23-.54-.22-.54-.21-.54-.19-.53-.19-.54-.18-.54-.16-.55-.16-.57-.14-.58-.14-.61-.13-.62-.12-.65-.11-.68-.1-.71-.1-.75-.09-.8-.08-.83-.08-.89-.08-.94-.07-1-.07-1.06-.06-1.12 3.4-.19.07 1.11.07 1.03.06.97.08.91.07.85.09.8.08.75.09.7.09.65.1.62.11.58.11.56.12.52.13.51.14.49.14.48.15.47.17.48.18.47.18.49.2.49.22.51.23.54.24.55.26.58.28.62.29.65.31.68.33.73.34.78.36.82.38.88v-.01zm0 .01a1.71 1.71 0 0 1-.89 2.24c-.87.37-1.87-.03-2.24-.9l3.13-1.34zm-2.58 21.65l-2.75-2.02.36-.51.34-.51.32-.52.31-.53.29-.54.27-.54.25-.55.23-.56.22-.56.19-.57.18-.57.16-.57.14-.58.12-.58.1-.59.08-.59.07-.59.04-.59.03-.59v-.59l-.01-.6-.04-.59-.05-.6-.08-.59-.09-.59-.11-.59-.14-.59-.15-.58-.18-.59-.2-.58-.21-.58-.24-.57 3.13-1.36.28.68.26.68.23.69.21.7.19.69.16.7.13.71.11.7.09.71.07.71.04.7.01.71v.71l-.03.7-.05.7-.08.71-.1.69-.12.7-.14.69-.17.68-.19.68-.21.68-.23.67-.25.66-.28.66-.29.64-.32.65-.34.63-.36.62-.38.61-.4.61-.42.59zm0 0a1.71 1.71 0 0 1-2.39.36c-.75-.55-.92-1.62-.36-2.38l2.75 2.02z"/><path d="M1712.41 498.13a1.71 1.71 0 0 1-1.71 1.71c-.94 0-1.7-.77-1.7-1.71h3.41zm0-5.12v5.12H1709v-5.12h3.41zm-3.41 0c0-.94.76-1.71 1.7-1.71a1.71 1.71 0 0 1 1.71 1.71H1709zm19.86-16.67l-2.18 2.62 1.09.4-.71.01-.72.06-.72.08-.71.13-.71.15-.7.19-.69.21-.69.25-.68.28-.66.31-.65.33-.63.36-.62.39-.59.41-.58.44-.56.46-.53.48-.5.5-.48.52-.45.54-.42.56-.39.57-.36.59-.33.6-.29.62-.26.62-.21.64-.19.65-.14.66-.11.67-.06.68-.02.69H1709l.02-.9.09-.89.13-.87.19-.86.24-.84.28-.83.33-.8.37-.78.41-.76.45-.74.49-.71.52-.69.55-.67.59-.63.61-.62.65-.58.67-.55.69-.53.72-.5.74-.46.76-.44.78-.4.8-.37.81-.33.82-.3.84-.26.85-.23.86-.19.87-.14.88-.11.88-.06.88-.03 1.09.4zm-1.09-.4c.94 0 1.71.77 1.71 1.71s-.77 1.71-1.71 1.71v-3.42zm30.72 0v3.42l1.1-.4-1.01.81-1 .76-1.01.71-1.01.66-1.02.61-1.02.55-1.02.51-1.03.46-1.03.4-1.04.35-1.04.3-1.04.24-1.04.19-1.05.14-1.05.08-1.05.03-1.05-.03-1.04-.08-1.05-.14-1.05-.19-1.04-.24-1.04-.3-1.03-.35-1.03-.4-1.03-.46-1.03-.51-1.02-.55-1.01-.61-1.02-.66-1-.71-1.01-.76-1-.81 2.18-2.62.92.74.92.69.91.64.91.59.9.54.9.5.9.44.89.4.89.34.88.3.88.25.88.21.87.16.88.11.87.07.87.02.87-.02.88-.07.87-.11.87-.16.88-.21.88-.25.89-.3.89-.34.89-.4.89-.44.9-.5.91-.54.91-.59.91-.64.91-.69.92-.74 1.09-.4zm-1.09.4a1.707 1.707 0 0 1 2.19 2.62l-2.19-2.62zm19.87 16.67h-3.41l-.03-.69-.06-.68-.11-.67-.14-.66-.18-.65-.22-.64-.26-.62-.29-.62-.32-.6-.36-.59-.39-.57-.42-.56-.45-.54-.48-.52-.51-.5-.53-.48-.55-.46-.58-.44-.6-.41-.61-.39-.64-.36-.65-.33-.66-.31-.67-.28-.69-.25-.7-.21-.7-.19-.71-.15-.71-.13-.71-.08-.72-.06-.72-.01v-3.42l.89.03.88.06.87.11.87.14.86.19.85.23.84.26.83.3.81.33.79.37.78.4.76.44.74.46.72.5.7.53.67.55.64.58.62.62.58.63.56.67.52.69.49.71.45.74.41.76.37.78.33.8.28.83.23.84.19.86.14.87.08.89.03.9zm0 0c0 .94-.77 1.71-1.71 1.71s-1.7-.77-1.7-1.71h3.41zm-3.41 5.12v-5.12h3.41v5.12h-3.41zm3.41 0c0 .94-.77 1.71-1.71 1.71s-1.7-.77-1.7-1.71h3.41zm-23.9-51.2c0 1.87-1.53 3.41-3.41 3.41s-3.41-1.54-3.41-3.41c0-1.88 1.53-3.42 3.41-3.42s3.41 1.54 3.41 3.42z"/><path d="M1739.72 446.93a3.43 3.43 0 0 1-3.41 3.41 3.43 3.43 0 0 1-3.42-3.41c0-1.88 1.54-3.42 3.42-3.42a3.43 3.43 0 0 1 3.41 3.42zm3.41 23.89v3.42l-1.06-.04-1.05-.09-1.03-.17-1.02-.22-1.01-.29-.98-.34-.96-.4-.93-.46-.92-.51-.88-.57-.86-.61-.84-.66-.8-.72-.77-.75-.74-.8-.71-.84-.67-.89-.64-.92-.6-.96-.57-1-.52-1.03-.49-1.07-.44-1.1-.41-1.13-.36-1.17-.32-1.19-.27-1.22-.22-1.24-.18-1.27-.13-1.29-.07-1.32-.03-1.34h3.41l.03 1.21.07 1.18.11 1.16.16 1.13.2 1.11.24 1.09.28 1.05.32 1.03.36 1 .39.96.42.94.46.9.49.86.52.84.55.79.58.76.6.71.63.68.65.64.67.59.69.55.71.51.73.47.75.41.76.38.78.32.79.28.8.23.82.18.83.13.83.08.85.02zm0 0c.94 0 1.71.77 1.71 1.71s-.77 1.71-1.71 1.71v-3.42zm17.07-22.19h3.41l-.02 1.34-.08 1.32-.13 1.29-.17 1.27-.23 1.24-.27 1.22-.32 1.19-.36 1.17-.4 1.13-.45 1.1-.48 1.07-.53 1.03-.56 1-.61.96-.63.92-.68.89-.7.84-.75.8-.77.75-.8.72-.83.66-.86.61-.89.57-.91.51-.94.46-.96.4-.98.34-1 .29-1.02.22-1.04.17-1.05.09-1.06.04v-3.42l.85-.02.84-.08.83-.13.81-.18.8-.23.8-.28.77-.32.76-.38.75-.41.73-.47.71-.51.69-.55.68-.59.65-.64.62-.68.61-.71.57-.76.55-.79.52-.84.49-.86.46-.9.43-.94.39-.96.35-1 .32-1.03.28-1.05.24-1.09.21-1.11.15-1.13.12-1.16.07-1.18.02-1.21zm0 0a1.705 1.705 0 0 1 3.41 0h-3.41zm-7.33-19.27l-2.41-2.42h2.41l.64.65 1.23 1.27 1.15 1.25.54.61.53.62.51.62.49.61.47.62.45.61.44.62.41.62.39.63.38.64.35.64.34.65.31.65.29.67.27.67.25.69.23.69.2.71.19.72.16.73.14.74.12.75.09.77.08.79.05.8.03.82.01.83h-3.41l-.01-.74-.03-.73-.04-.71-.07-.68-.08-.67-.11-.65-.12-.64-.13-.62-.16-.61-.17-.6-.2-.59-.21-.58-.23-.57-.25-.57-.26-.56-.29-.55-.31-.56-.32-.55-.35-.55-.36-.56-.39-.55-.41-.56-.43-.56-.45-.56-.47-.57-.49-.57-.51-.58-1.09-1.19-.58-.6-.6-.62-.62-.62h2.41zm-2.41 0a1.71 1.71 0 0 1 0-2.42c.66-.66 1.75-.66 2.41 0l-2.41 2.42zm-24.4 17.57h-3.41l.15-.87.33-.71.42-.59.49-.55.57-.52.63-.52.7-.53.76-.53.83-.56.88-.56.93-.58.98-.59 1.03-.6 1.05-.62 1.09-.63 1.11-.63 1.13-.65 1.14-.65 1.15-.66 1.14-.66 1.14-.67 1.13-.67 1.1-.67 1.08-.67 1.04-.67 1.01-.66.96-.66.9-.64.84-.64.78-.63.7-.61.62-.59 2.41 2.42-.74.7-.8.7-.87.7-.92.69-.96.7-1.02.69-1.05.7-1.08.69-1.11.69-1.13.69-1.15.68-1.16.68-1.15.67-1.16.66-1.14.66-2.24 1.27-1.08.63-1.04.6-1 .59-.95.57-.9.56-.83.53-.76.51-.69.48-.59.45-.5.41-.39.37-.27.29-.14.19-.01.02.02-.2zm0 0a1.705 1.705 0 0 1-3.41 0h3.41zm0 1.7h-3.41v-1.7h3.41v1.7zm0 0a1.7 1.7 0 0 1-1.7 1.71c-.95 0-1.71-.76-1.71-1.71h3.41zm11.16 13.8c-.84-.43-1.16-1.47-.72-2.3.44-.84 1.47-1.16 2.31-.72l-1.59 3.02zm10.24-3.02l1.59 3.02-.35.18-.36.17-.36.15-.35.15-.37.13-.37.12-.37.11-.37.1-.37.09-.37.07-.76.12-.38.04-.38.03-.76.02-.76-.02-.38-.03-.38-.04-.37-.06-.38-.06-.37-.07-.38-.09-.37-.1-.37-.11-.36-.12-.37-.13-.72-.3-.35-.17-.35-.18 1.59-3.02.52.26.26.11.27.11.27.1.26.08.28.09.26.07.28.06.27.05.28.05.27.04.28.03.27.02.55.02.55-.02.28-.02.27-.03.28-.04.27-.05.28-.05.27-.06.27-.07.27-.09.27-.08.26-.1.27-.11.26-.11.27-.13.26-.13zm0 0c.83-.44 1.86-.12 2.3.72a1.7 1.7 0 0 1-.71 2.3l-1.59-3.02z"/></g><path d="M1581.17 639.95h219.24v219.24h-219.24z" class="y AC AE AF"/><g class="x AJ"><circle cx="1719.71" cy="677.79" r="6.88"/><path d="M1720.41 699.56s-.7 8.5-7.58 20.73l-3.51 6.38 14.91 24.28.57 41.28h-7.85l-4.19-34.4-13.76-13.76-13.75-11.46v-9.17l13.75-25.23 21.41 1.35zm0 0h0z"/><path d="M1685.25 730.32l-16.05 22.93-23.32 13.75 2.29 6.88 27.9-11.46 20.64-18.35zm13.75-32.11c4.59-9.17 10-9.7 13.83-8.21a9.42 9.42 0 0 1 5.52 8.57 9.4 9.4 0 0 1-1 4.23l-18.35-4.59zm0 0h0z"/></g><g stroke-width="4.59" class="AB AD"><circle cx="1719.71" cy="677.79" r="6.88"/><g class="y z AA"><path d="M1685.25 730.32l-13.43 19.17a25.4 25.4 0 0 1-6.57 6.09l-15.42 9.09a5.43 5.43 0 0 0-2.89 4.8c0 .33.03.65.09.97.64 1.34 2 2.2 3.49 2.2.66 0 1.32-.17 1.9-.5l19.41-7.98c2.77-1.23 5.36-2.84 7.67-4.79l17.21-15.3"/><path d="M1710.28 720.2l-1.32 3.02c-.28.96-.41 1.96-.41 2.95 0 1.74.41 3.45 1.21 4.99l12 15.92c1.49 2.58 2.36 5.48 2.53 8.46l.45 32.1c.01.12.01.24.01.36 0 2.21-1.68 4.04-3.87 4.23-2.4-.24-4.29-2.16-4.49-4.56l-3.07-25.28c-.51-2.91-1.82-5.62-3.8-7.8l-7.27-7.27-6.77-6.18-6.71-5.6c-2.1-1.95-3.36-4.65-3.52-7.52h0c-.53-4.56 6.75-13.26 7.96-15.47l5.78-14.35m.17-.45c3.51-9.31 9.84-9.24 13.67-7.75a8.85 8.85 0 0 1 5.46 8.17c0 .21-.01.41-.02.62m-7.66-.58l3.26 11.65c.81 2.53 3.12 4.29 5.77 4.4h16.05"/></g></g><path d="M1741.71 824.64h-101.85v-8h101.85v8zm7.84-4l-29.16 16.04V804.6l29.16 16.04z" fill="#063" class="x"/><g class="y"><path d="M1581.17 932.27h219.24v219.24h-219.24z" class="AC AE AF"/><g class="x"><path d="M1738.7 967.65v5.16h23.22v23.22h5.17v-23.22h23.22v-5.16h-23.22v-23.23h-5.17v23.23h-23.22zm-61.21 0v5.16h23.23v23.22h5.16v-23.22h23.23v-5.16h-23.23v-23.23h-5.16v23.23h-23.23zm11.62 0" fill="#063" stroke="#063" stroke-width="2.36"/><g class="z AL"><path d="M1645.63 986.92c-2.71-4.56-5.87-7.59-5.87-7.59s-5.45 2.95-5.37 10.69c-6.91-6.64-14.25-7.72-14.25-7.72s.02 7.41 5.6 15.2c-1.77-.28-3.33-.22-4.67.04-4.5.82-6.69 3.75-6.69 3.75s6.6 9.2 15.78 11.91c1.88.56 3.57.74 5.05.69 5.77-.18 15.42-7.72 14.07-17.24-.51-3.59-2-6.94-3.65-9.73z" stroke="#b1cc33" fill="#b1cc33"/><path d="M1658.84 1002.94c6.86 2.6 15.09 9.33 21.49 18.41l52.7 74.76c19.15 27.16 2.36 40.93-20.52 16.83l-62.98-66.34c-12.39-13.04-17.81-29.61-11.42-34.85l10.28-8.43c2.45-2.01 6.19-1.99 10.45-.38z" stroke="#f4aa41" fill="#f4aa41"/></g></g></g><path d="M1635.81 1015.4c.39-1.35 1-2.49 1.94-3.34l-1.94 3.34zm0 0h0z" fill="#d22f27" class="x"/><g class="y z AL"><path d="M1635.81 1015.4c.39-1.35 1-2.49 1.94-3.34m-1.94 3.34h0z" stroke="#d22f27" class="AB"/><path d="M1635.93 1023.13c.29 1.35.7 2.76 1.23 4.22l.53 1.35c.18.5.38.99.61 1.46l.85 1.82c1.26 2.52 2.81 5.12 4.66 7.67l1.14 1.55 1.23 1.62 3.34 3.77 63 66.34c10.72 11.31 20.09 14.26 25.07 11.42-18.79.36-104.71-109.47-99.84-117.62 0 0-3.9 11.37-1.82 16.4z" stroke="#e27022" fill="#e27022" class="x"/></g><path d="M1614.39 1001.28s6.59 9.2 15.76 11.92c1.9.56 3.57.74 5.06.71 2.7-.12 6.27-1.82 9.11-4.57l-24.19-27.03s.03 7.41 5.62 15.2c-1.78-.3-3.33-.24-4.68.03-4.51.82-6.68 3.74-6.68 3.74z" fill="#5c9e31" class="x"/><g class="y z AB AD AL"><path d="M1663.57 1005.26c5.69 3.38 11.78 9.03 16.76 16.09l52.7 74.76c19.15 27.16 2.36 40.93-20.52 16.83l-62.98-66.34c-5.85-6.15-10.14-13.09-12.37-19.25" class="AA"/><path d="M1645.63 986.92c-2.71-4.56-5.87-7.59-5.87-7.59s-5.45 2.95-5.37 10.69c-6.91-6.64-14.25-7.72-14.25-7.72s.02 7.41 5.6 15.2c-1.77-.28-3.33-.22-4.67.04-4.5.82-6.69 3.75-6.69 3.75s6.6 9.2 15.78 11.91c1.88.56 3.57.74 5.05.69 5.77-.18 15.42-7.72 14.07-17.24-.51-3.59-2-6.94-3.65-9.73"/></g><defs ><path id="B" d="M1763.49 184.06c-.04.59-.55 1.03-1.14.99s-1.03-.55-.99-1.14l2.13.15zm3.93-11.59l1.51 1.51-.67.67-.31.33-.3.32-.29.31-.28.3-.52.6-.24.29-.23.29-.22.28-.4.56-.36.56-.32.56-.28.58-.13.29-.12.29-.11.3-.1.31-.18.64-.08.34-.07.34-.06.36-.05.37-.05.38-.04.4-.03.41-2.13-.15.08-.9.05-.43.07-.42.07-.41.08-.41.09-.39.1-.39.12-.38.12-.37.13-.36.15-.36.15-.35.17-.35.17-.34.18-.33.4-.66.22-.33.22-.32.48-.64.26-.32.54-.64.28-.32.3-.32.31-.33.31-.34.33-.33.33-.35.35-.35zm0 0a1.08 1.08 0 0 1 1.51 0 1.06 1.06 0 0 1 0 1.51l-1.51-1.51zm5.55-12.24h2.13l-.01.51-.02.5-.03.5-.05.49-.07.49-.07.48-.09.49-.22.94-.13.47-.14.46-.32.9-.18.45-.18.44-.2.43-.21.43-.22.42-.23.42-.24.41-.25.41-.26.4-.27.4-.27.38-.29.39-.29.38-.3.37-.31.37-.32.37-.66.7-.34.35-1.51-1.51.62-.64.3-.33.29-.33.28-.33.28-.34.52-.7.25-.35.25-.36.23-.36.22-.36.22-.37.2-.37.2-.38.18-.38.18-.39.16-.38.16-.39.28-.8.12-.41.22-.82.09-.42.08-.42.06-.42.06-.43.04-.44.03-.43.02-.45.01-.44zm0 0a1.07 1.07 0 0 1 1.07-1.07 1.07 1.07 0 0 1 1.06 1.07h-2.13zm-18.75-17.26v-2.13l1.07.02 1.06.08 1.04.12 1.03.17 1.01.21.99.26.97.3.94.35.93.39.9.42.87.47.85.5.81.53.79.58.76.61.73.64.69.67.66.7.62.73.58.76.54.79.51.81.46.84.42.86.38.89.33.9.28.92.23.94.19.96.13.98.08.99.03 1h-2.13l-.02-.89-.08-.87-.11-.86-.17-.85-.2-.83-.25-.81-.29-.8-.34-.78-.37-.77-.41-.74-.45-.72-.48-.7-.52-.68-.55-.65-.59-.63-.62-.6-.65-.57-.68-.55-.71-.51-.73-.49-.76-.45-.79-.41-.81-.39-.83-.35-.86-.31-.87-.27-.9-.24-.91-.19-.93-.15-.94-.11-.96-.07-.97-.02zm0 0a1.07 1.07 0 0 1-1.07-1.07c0-.59.48-1.06 1.07-1.06v2.13zm-18.75 17.26h-2.13l.02-1 .08-.99.14-.98.18-.96.24-.94.28-.92.33-.9.37-.89.42-.86.47-.84.5-.81.55-.79.58-.76.62-.73.66-.7.69-.67.73-.64.75-.61.79-.58.82-.53.85-.5.87-.47.9-.42.92-.39.95-.35.97-.3.99-.26 1.01-.21 1.02-.17 1.05-.12 1.06-.08 1.07-.02v2.13l-.98.02-.95.07-.95.11-.93.15-.91.19-.89.24-.88.27-.85.31-.83.35-.81.39-.79.41-.76.45-.74.49-.7.51-.68.55-.65.57-.62.6-.59.63-.55.65-.52.68-.49.7-.44.72-.42.74-.37.77-.33.78-.29.8-.25.81-.21.83-.16.85-.12.86-.07.87-.02.89zm0 0c0 .59-.48 1.06-1.07 1.06s-1.06-.47-1.06-1.06h2.13zm5.54 12.24l-1.5 1.51-.34-.35-.66-.7-.32-.37-.31-.37-.3-.37-.3-.38-.28-.39-.28-.38-.52-.8-.25-.41-.24-.41-.23-.42-.22-.42-.21-.43-.2-.43-.19-.44-.34-.9-.15-.45-.14-.46-.13-.47-.12-.47-.1-.47-.09-.48-.08-.49-.06-.49-.05-.49-.04-.5-.02-.5v-.51h2.13v.44l.02.45.03.43.05.44.05.43.07.42.08.42.09.42.1.41.11.41.13.41.13.4.15.39.15.4.17.38.18.39.18.38.2.38.2.37.22.37.22.36.23.36.24.36.25.35.26.35.27.35.28.34.28.33.29.33.3.33.3.32.31.32zm0 0a1.06 1.06 0 0 1 0 1.51 1.07 1.07 0 0 1-1.5 0l1.5-1.51zm6.07 11.44l-2.13.15-.03-.41-.04-.4-.05-.38-.05-.37-.07-.36-.07-.34-.08-.34-.08-.32-.1-.32-.1-.31-.11-.3-.24-.58-.14-.29-.15-.29-.15-.28-.16-.28-.18-.28-.38-.56-.21-.28-.22-.28-.23-.29-.24-.29-.25-.3-.26-.3-.57-.61-.3-.32-.64-.66-.34-.34 1.5-1.51.35.35.34.35.33.33.31.34.31.33.58.64.54.64.5.64.46.64.42.66.38.66.17.35.17.34.15.35.28.72.12.37.11.38.1.39.09.39.09.41.07.41.06.42.06.43.08.9zm0 0c.04.59-.41 1.1-.99 1.14-.59.04-1.1-.4-1.14-.99l2.13-.15z"/></defs></svg>
