<svg xmlns="http://www.w3.org/2000/svg" width="1782" height="395" viewBox="0 0 1752.55 388.75" shape-rendering="geometricPrecision" image-rendering="optimizeQuality" fill-rule="evenodd" xmlns:v="https://vecta.io/nano"><path d="M503.93 209.11c-16.05 9.03-33.08 13.53-51.03 13.53-11.34 0-21.52-1.94-30.56-5.84-8.99-3.86-16.69-9.29-23.01-16.2-6.32-6.96-11.18-15.21-14.57-24.84-3.38-9.62-5.05-20.18-5.05-31.74 0-7.62.82-14.94 2.45-22.01 1.64-7.02 4.05-13.64 7.21-19.81s7.03-11.74 11.6-16.76c4.61-5.02 9.85-9.33 15.76-12.94 5.95-3.64 12.49-6.43 19.59-8.4 7.14-1.97 14.83-2.93 23.05-2.93 15.46 0 29.29 2.75 41.44 8.25V85.4c-13.38-7.4-27.77-11.08-43.19-11.08-9.55 0-18.14 1.75-25.87 5.25-7.7 3.45-14.28 8.25-19.7 14.34-5.39 6.1-9.59 13.31-12.6 21.64-2.98 8.32-4.5 17.32-4.58 27.06-.07 9.66 1.19 18.58 3.76 26.72 2.6 8.18 6.43 15.24 11.52 21.19s11.38 10.6 18.85 13.94c7.51 3.35 16.17 5.02 25.98 5.02 13.23 0 24.72-2.75 34.46-8.29V153.5h-35.46v-13.16h49.95v68.77zm26.53 10.85V54.92h14.06v165.04zm87.94 2.68c-8.25 0-15.69-1.38-22.23-4.13-6.58-2.79-12.19-6.69-16.84-11.75-4.64-5.05-8.17-11.07-10.63-18.13-2.49-7.07-3.71-14.87-3.71-23.46 0-9.29 1.3-17.62 3.9-24.94 2.64-7.36 6.35-13.57 11.15-18.7 4.83-5.13 10.67-9.03 17.47-11.71 6.84-2.71 14.46-4.05 22.86-4.05 8.07 0 15.32 1.34 21.75 3.98 6.46 2.64 11.93 6.5 16.43 11.48 4.49 5.02 7.95 11.16 10.33 18.33 2.42 7.21 3.61 15.39 3.61 24.53 0 8.74-1.27 16.66-3.76 23.83s-6.06 13.31-10.7 18.47c-4.65 5.17-10.3 9.15-16.99 12.01-6.66 2.83-14.2 4.24-22.64 4.24zm1.12-104.83c-6.14 0-11.64 1.05-16.58 3.16-4.95 2.12-9.18 5.17-12.72 9.22-3.53 4.02-6.24 8.96-8.14 14.83-1.89 5.84-2.82 12.49-2.82 19.89 0 6.99.93 13.27 2.82 18.85 1.9 5.61 4.58 10.4 8.03 14.42 3.46 3.98 7.66 7.06 12.6 9.18 4.95 2.16 10.45 3.23 16.58 3.23 6.25 0 11.79-1.04 16.58-3.12a32.05 32.05 0 0 0 12.19-9.03c3.35-3.98 5.88-8.81 7.59-14.57 1.71-5.73 2.56-12.27 2.56-19.63 0-15.02-3.34-26.54-10.04-34.49-6.69-7.96-16.24-11.94-28.65-11.94zm88.04 84.23v17.92h-14.05V54.92h14.05v74.83h.45c4.13-7.77 9.63-13.72 16.54-17.81 6.91-4.12 14.72-6.17 23.38-6.17 7.1 0 13.46 1.3 19.07 3.87 5.61 2.6 10.33 6.28 14.2 11.07 3.9 4.8 6.84 10.56 8.92 17.33 2.05 6.76 3.09 14.27 3.09 22.56 0 9.25-1.19 17.66-3.54 25.24-2.34 7.58-5.68 14.12-10.03 19.59-4.35 5.42-9.59 9.66-15.8 12.67-6.17 3.01-13.12 4.54-20.78 4.54-15.72 0-27.39-6.88-35.05-20.6h-.45zm0-28.51c0 5.1.86 9.85 2.57 14.32 1.67 4.49 4.05 8.4 7.1 11.78s6.73 6.06 11.04 8.03 9.07 2.93 14.27 2.93c5.58 0 10.6-1.19 15.09-3.53 4.5-2.38 8.33-5.72 11.49-10.11 3.12-4.35 5.57-9.63 7.25-15.8 1.71-6.17 2.56-13.08 2.56-20.7 0-6.54-.78-12.45-2.38-17.73-1.59-5.28-3.86-9.74-6.8-13.46-2.93-3.71-6.47-6.54-10.63-8.51s-8.81-2.94-13.98-2.94c-5.79 0-11 1.08-15.64 3.24-4.61 2.12-8.59 5.05-11.83 8.77-3.27 3.68-5.76 8.03-7.5 13.01-1.75 4.98-2.61 10.26-2.61 15.87v14.83zm167.86 46.43v-19.85h-.45c-3.6 7.14-8.59 12.68-14.87 16.62s-13.38 5.91-21.3 5.91c-5.39 0-10.22-.78-14.53-2.31-4.35-1.52-7.99-3.68-11-6.46-3.05-2.83-5.36-6.18-6.99-10.12-1.64-3.94-2.45-8.25-2.45-13 0-10.12 3.12-18.18 9.36-24.17 6.25-6.02 15.69-9.92 28.33-11.74l33.9-4.91c0-21.41-8.33-32.12-25.02-32.12-13.05 0-25.16 4.76-36.31 14.28v-15.24c2.34-1.64 4.98-3.16 7.91-4.5 2.98-1.34 6.1-2.49 9.37-3.49 3.27-.97 6.65-1.71 10.11-2.27a63.66 63.66 0 0 1 10.15-.82c12.45 0 21.89 3.5 28.25 10.45 6.39 6.98 9.59 17.36 9.59 31.18v72.56h-14.05zm-28.81-54.16c-5.06.71-9.33 1.6-12.9 2.72-3.57 1.07-6.5 2.56-8.85 4.42-2.34 1.86-4.05 4.13-5.12 6.84-1.08 2.75-1.64 6.09-1.64 10.11 0 2.97.52 5.72 1.6 8.29 1.04 2.53 2.56 4.72 4.57 6.58s4.42 3.31 7.32 4.31c2.86 1 6.14 1.52 9.78 1.52 4.94 0 9.48-.93 13.64-2.82a33.24 33.24 0 0 0 10.74-7.84c3.01-3.35 5.39-7.36 7.1-12.01s2.57-9.7 2.57-15.17v-11l-28.81 4.05zm68.98 54.16V54.92h14.05v165.04zm107.2-22.9c2.6 1.97 5.5 3.72 8.66 5.28 3.12 1.56 6.36 2.86 9.67 3.94 3.27 1.04 6.61 1.82 9.92 2.38 3.35.56 6.54.82 9.59.82 11.78 0 20.63-2.27 26.5-6.84 5.88-4.57 8.81-11.12 8.81-19.66 0-4.13-.7-7.77-2.08-10.86-1.37-3.08-3.49-5.95-6.39-8.66-2.94-2.68-6.58-5.35-11-7.99-4.43-2.64-9.67-5.65-15.69-9-6.65-3.64-12.38-7.06-17.14-10.29-4.75-3.24-8.62-6.54-11.63-9.93-3.01-3.38-5.24-7.02-6.65-10.93-1.42-3.94-2.12-8.4-2.12-13.41 0-6.32 1.34-11.97 4.01-16.99 2.71-5.02 6.32-9.29 10.89-12.79 4.58-3.53 9.93-6.24 16.06-8.14 6.13-1.89 12.68-2.82 19.63-2.82 12.26 0 22.56 1.71 30.81 5.13v15.98c-9.22-5.32-20-7.96-32.41-7.96-4.65 0-9 .56-13.12 1.68-4.09 1.15-7.66 2.79-10.75 4.98-3.08 2.19-5.53 4.9-7.28 8.14-1.79 3.23-2.68 6.99-2.68 11.26 0 4.09.6 7.58 1.79 10.52 1.22 2.94 3.12 5.72 5.8 8.33 2.63 2.64 6.09 5.24 10.44 7.8 4.31 2.57 9.59 5.54 15.84 8.89 6.5 3.49 12.23 6.87 17.06 10.18 4.87 3.31 8.92 6.77 12.15 10.34 3.24 3.6 5.65 7.43 7.25 11.44 1.6 4.06 2.38 8.52 2.38 13.46 0 6.84-1.26 12.82-3.79 18.03-2.57 5.2-6.1 9.51-10.67 12.93-4.57 3.39-10 5.99-16.32 7.74-6.32 1.74-13.23 2.6-20.78 2.6-2.45 0-5.39-.19-8.81-.6s-6.84-1-10.33-1.74c-3.49-.78-6.8-1.71-9.96-2.76-3.16-1.07-5.69-2.23-7.66-3.45v-17.03zm138.19 43.2c-4.38 10.89-9.37 18.95-15.05 24.23-5.65 5.24-12.53 7.88-20.56 7.88-4.01 0-7.36-.48-10.15-1.41v-13.05c1.6.6 3.24 1.01 4.84 1.3a27.51 27.51 0 0 0 4.94.45c4.57 0 8.55-1.45 11.93-4.31 3.35-2.86 6.28-7.21 8.74-13.01l9.66-22.9-42.82-110.99h15.46l31.9 88.32a49.62 49.62 0 0 1 1.26 3.97l1.15 4.43h.52c.38-1.23.71-2.49 1.04-3.76a42.41 42.41 0 0 1 1.38-4.2l33.86-88.76h14.69l-52.79 131.81zm204.99-20.3v-65.64c0-6.66-.52-12.31-1.52-16.95-1.01-4.61-2.61-8.37-4.73-11.27-2.15-2.9-4.86-5.01-8.14-6.32-3.3-1.3-7.24-1.97-11.82-1.97-4.05 0-7.88.97-11.52 2.9-3.6 1.94-6.76 4.58-9.51 7.96-2.72 3.38-4.84 7.36-6.4 11.93s-2.34 9.52-2.34 14.83v64.53h-14.05V152.9c0-23.38-8.92-35.09-26.8-35.09-4.13 0-7.96.93-11.49 2.79-3.57 1.86-6.65 4.43-9.29 7.77-2.64 3.35-4.68 7.36-6.17 12.08-1.49 4.69-2.23 9.85-2.23 15.5v64.01h-14.05V108.45h14.05v18.06h.45c7.84-13.83 19.25-20.74 34.27-20.74 3.9 0 7.62.6 11.11 1.79 3.46 1.22 6.58 2.9 9.33 5.01 2.79 2.16 5.13 4.72 7.14 7.7 2.01 3.01 3.49 6.28 4.53 9.85 3.91-7.96 9-13.98 15.28-18.14 6.28-4.13 13.38-6.21 21.26-6.21 24.46 0 36.69 15.09 36.69 45.31v68.88h-14.05zm54.3-17.92v17.92h-14.05V54.92h14.05v74.83h.44c4.13-7.77 9.63-13.72 16.54-17.81 6.92-4.12 14.72-6.17 23.38-6.17 7.1 0 13.46 1.3 19.07 3.87a38.99 38.99 0 0 1 14.2 11.07c3.91 4.8 6.84 10.56 8.92 17.33 2.05 6.76 3.09 14.27 3.09 22.56 0 9.25-1.19 17.66-3.53 25.24s-5.69 14.12-10.04 19.59c-4.35 5.42-9.59 9.66-15.8 12.67-6.17 3.01-13.12 4.54-20.77 4.54-15.73 0-27.4-6.88-35.06-20.6h-.44zm0-28.51c0 5.1.85 9.85 2.56 14.32 1.67 4.49 4.05 8.4 7.1 11.78s6.73 6.06 11.04 8.03 9.07 2.93 14.27 2.93c5.58 0 10.6-1.19 15.1-3.53 4.49-2.38 8.32-5.72 11.48-10.11 3.13-4.35 5.58-9.63 7.25-15.8 1.71-6.17 2.57-13.08 2.57-20.7 0-6.54-.78-12.45-2.38-17.73s-3.87-9.74-6.81-13.46c-2.93-3.71-6.46-6.54-10.63-8.51-4.16-1.97-8.81-2.94-13.97-2.94-5.8 0-11.01 1.08-15.65 3.24-4.61 2.12-8.59 5.05-11.82 8.77-3.27 3.68-5.76 8.03-7.51 13.01s-2.6 10.26-2.6 15.87v14.83zm151.94 49.11c-8.25 0-15.68-1.38-22.23-4.13-6.58-2.79-12.19-6.69-16.84-11.75-4.64-5.05-8.17-11.07-10.63-18.13-2.49-7.07-3.71-14.87-3.71-23.46 0-9.29 1.3-17.62 3.9-24.94 2.64-7.36 6.36-13.57 11.15-18.7 4.83-5.13 10.67-9.03 17.47-11.71 6.84-2.71 14.46-4.05 22.86-4.05 8.07 0 15.32 1.34 21.75 3.98 6.46 2.64 11.93 6.5 16.43 11.48 4.5 5.02 7.95 11.16 10.33 18.33 2.42 7.21 3.61 15.39 3.61 24.53 0 8.74-1.27 16.66-3.76 23.83s-6.06 13.31-10.7 18.47c-4.65 5.17-10.3 9.15-16.99 12.01-6.65 2.83-14.2 4.24-22.64 4.24zm1.12-104.83c-6.14 0-11.64 1.05-16.58 3.16-4.94 2.12-9.18 5.17-12.71 9.22-3.54 4.02-6.25 8.96-8.14 14.83-1.9 5.84-2.83 12.49-2.83 19.89 0 6.99.93 13.27 2.83 18.85 1.89 5.61 4.57 10.4 8.02 14.42 3.46 3.98 7.66 7.06 12.61 9.18 4.94 2.16 10.44 3.23 16.57 3.23 6.25 0 11.79-1.04 16.58-3.12a32.05 32.05 0 0 0 12.19-9.03c3.35-3.98 5.88-8.81 7.59-14.57 1.71-5.73 2.56-12.27 2.56-19.63 0-15.02-3.34-26.54-10.03-34.49-6.69-7.96-16.25-11.94-28.66-11.94zm73.99 102.15V54.92h14.06v165.04zm36.31-20.03a45.43 45.43 0 0 0 6.84 4.46c2.45 1.3 5.02 2.41 7.62 3.38 2.6.93 5.2 1.63 7.88 2.12 2.64.48 5.13.7 7.55.7 16.5 0 24.75-6.2 24.75-18.58 0-2.83-.59-5.28-1.75-7.36-1.15-2.08-2.82-3.98-4.98-5.69-2.19-1.71-4.79-3.27-7.84-4.72s-6.5-2.97-10.33-4.57c-5.17-2.12-9.59-4.28-13.31-6.43-3.68-2.2-6.73-4.57-9.14-7.14-2.38-2.6-4.17-5.43-5.32-8.51-1.15-3.09-1.75-6.62-1.75-10.52 0-4.94 1.08-9.37 3.2-13.2a30.9 30.9 0 0 1 8.62-9.81c3.65-2.68 7.81-4.76 12.53-6.17 4.76-1.41 9.74-2.12 14.94-2.12 9.63 0 17.99 1.82 25.17 5.43v14.68c-8.33-5.39-17.32-8.07-26.95-8.07-3.46 0-6.62.45-9.48 1.31-2.86.89-5.32 2.11-7.36 3.71-2.01 1.6-3.6 3.53-4.72 5.76s-1.67 4.69-1.67 7.36c0 2.79.44 5.21 1.3 7.25.89 2.08 2.23 3.98 4.09 5.65 1.86 1.64 4.23 3.24 7.17 4.8 2.94 1.52 6.51 3.16 10.74 4.9 5.36 2.16 10 4.32 13.91 6.47 3.94 2.16 7.17 4.46 9.7 6.99 2.52 2.49 4.42 5.28 5.65 8.4 1.22 3.09 1.86 6.65 1.86 10.71 0 5.01-1.05 9.51-3.09 13.42-2.08 3.94-4.94 7.24-8.59 9.92-3.64 2.68-7.95 4.72-12.86 6.1-4.9 1.37-10.26 2.08-16.06 2.08-11.22 0-20.66-2.38-28.32-7.1v-15.61z" fill="#206eb5" fill-rule="nonzero"/><path d="M288.08 288.24l-68.25-24.85c-21.55 13.62-47.07 21.51-74.44 21.51-77.05 0-139.52-62.46-139.52-139.51S68.34 5.87 145.39 5.87 284.9 68.34 284.9 145.39c0 27.46-7.94 53.06-21.64 74.65l24.82 68.2h0z" stroke="#206eb5" stroke-width="11.75" stroke-linejoin="round" stroke-miterlimit="22.9256" fill="#cdeafb"/><g fill-rule="nonzero"><path d="M172.61 69.07c-7.34-.88-14.93-1.79-25.6-1.3h0 0c.39 2.66 1.73 5.5 4.1 8.3h0c7.16-3.06 14.38-5.43 21.5-7zm12.01-8.52c-4.94 2.65-9.56 6.42-12.01 8.52.56-5.44.8-9.85.75-13.26h0c3.95 1.02 7.83 2.65 11.26 4.74zm1.4.9c2.28 1.54 4.33 3.3 6.03 5.23 1.55 1.78 2.69 3.58 3.44 5.34h0 0c-8.85-2.2-15.99-2.58-22.88-2.95 3.17-2.24 8.15-5.49 13.41-7.62zm-13.41 7.62c8.36.56 16.16 1.96 23.31 4.09h0 0c.91 2.74.83 5.36-.16 7.64h0 0c-8.96-5.74-16.18-8.78-23.15-11.73zM191.6 90.6c3.52-1.42 6.05-3.54 7.51-6.1 5.74 4.35 11 9.11 15.72 14.18h0c-2.41 4.23-6.57 7.73-12.37 10.08h0c-3.19-6.32-6.82-12.42-10.86-18.16zm-2.68-3.69c-4.92-6.52-10.37-12.53-16.31-17.84 8.14 3.52 15.74 7.79 22.69 12.65h0c-1.24 2.18-3.39 3.98-6.38 5.19zm-2.38-27.32c-4.04-2.47-8.59-4.37-13.24-5.58-.14-2.6-.49-4.47-1.04-5.62h0c7.66 2 15.16 5.13 21.81 9.19-2.37.02-4.96.82-7.53 2.01zm8.86-1.94c-7.17-4.37-15.26-7.75-23.52-9.9-.25-.33-.54-.59-.85-.7a101.13 101.13 0 0 1 27.12 11.49c-.85-.48-1.77-.76-2.75-.89zm1.39 1.67c4.43 2.98 8.44 6.42 11.73 10.18 3.59 4.4 4.41 5.56 6.69 10.35h0c-4.77-2.75-10.08-5.03-15.88-6.77h0c-.87-2.07-2.22-4.18-4.05-6.28h0c-1.99-2.28-4.4-4.34-7.09-6.15 2.93-.99 5.88-1.55 8.6-1.33zm1.55.21c1.25.26 2.44.7 3.53 1.38 16.07 10.76 28.9 25.97 36.72 43.88-1.68-3.71-3.83-7.2-6.37-10.44-1.98-4.66-4.93-9.42-8.89-14.13l-1.48-1.74h0c-.38-.43-.78-.86-1.19-1.27 4.27 4.87 7.4 9.8 9.45 14.62h0c-3.37-3.78-7.34-7.18-11.87-10.12-1.56-3.69-3.96-7.45-7.22-11.18-8.07-8.61-12.64-10.98-12.68-11zm-56.03 8.55c.45 3.13 2.03 6.47 4.82 9.77-6.11 2.84-12.15 6.16-18.04 9.88h0c-4.59-5.44-7.21-10.96-7.95-16.12 6.87-1.72 13.96-2.92 21.17-3.53zm-25.62 4.73c.81 5.57 3.63 11.52 8.59 17.4h0c-5.82 3.89-11.46 8.17-16.83 12.75h0c-6.49-7.69-10.18-15.48-11.24-22.77 6.18-2.94 12.71-5.42 19.48-7.38zM76.38 92.94c5.17-4.01 10.82-7.61 16.85-10.76h0c1.1 7.62 4.96 15.77 11.75 23.81-5.25 4.7-10.21 9.7-14.8 14.9h0c-7.97-9.44-12.5-19-13.8-27.95zm-3.3 2.67c1.33 9.19 5.98 19.01 14.17 28.7-4.41 5.29-8.42 10.76-11.94 16.35-8.95-10.6-14.03-21.33-15.49-31.38 3.85-4.91 8.3-9.49 13.26-13.67zm-28.8 53.74c.22-5.58 1.22-11.26 3.08-16.98 1.51 10.48 6.82 21.67 16.16 32.72v-.02l-.01.02c-1.88 5.66-3.04 11.02-3.54 16.03-9.06-10.73-14.21-21.6-15.69-31.77zm4.4-20.7c2.2-5.67 5.15-11.06 8.72-16.12 1.48 10.18 6.63 21.05 15.69 31.78h0c-3.3 5.63-6.08 11.34-8.25 17.06-9.33-11.05-14.64-22.24-16.16-32.72zm-4.42 24.32c1.45 10.04 6.54 20.78 15.49 31.37h0c-.2 4.85.25 9.35 1.33 13.43-6.12-7.24-10.26-14.55-12.52-21.61l1.33 3.89.81 2.16c2.34 5.98 6.04 12.1 11.17 18.16h0 0c1.26 3.7 3.06 7.01 5.37 9.91-11.96-14.38-20.02-32.11-22.57-51.58a57.43 57.43 0 0 1-.41-5.73zm-.35-7.44c-1.6-21.77 8-44.8 20.11-60.96-5.03 6.93-7.43 15.04-7.02 23.77h0 0c-3.58 4.99-6.53 10.33-8.73 15.99-.26-5.61.42-11.15 2.36-16.12-2.73 7.69-3.62 11.45-3.69 19.84h0 0c-1.85 5.73-2.82 11.83-3.03 17.48zm37.21-77.76c-5.95 6.78-8.82 15.05-8.41 24.05h0 0c-4.97 4.04-9.43 8.5-13.29 13.32-.42-9.17 2.28-17.65 7.91-24.76 4.19-4.95 8.33-8.96 13.79-12.61zm-5.09 21.48c-.41-8.77 2.39-16.82 8.18-23.42l-.05.03.05-.03h0c4.84-2.86 10.1-5.11 15.69-6.74-4.94 5.62-7.32 12.48-6.97 19.95h0c-6.05 2.94-11.72 6.36-16.9 10.21zm45.53-33.31c-3.6 4.11-5.34 9.12-5.09 14.58h0c-6.8 1.7-13.35 3.94-19.55 6.67-.33-7.14 1.95-13.7 6.66-19.08 5.73-1.36 11.75-2.09 17.98-2.17zm-.63 13.55c-.23-5.06 1.38-9.7 4.72-13.5 6.31.2 12.81 1.07 19.39 2.62a11.38 11.38 0 0 0-2.86 8.19 128.49 128.49 0 0 0-21.25 2.69zm51.68-.42c-8.54-1.8-17.12-2.27-25.7-2.39-.12-2.61.71-5 2.43-6.96h0c7.72 2.16 15.53 5.26 23.27 9.35zm0 0c-6.76 1.96-13.63 4.73-20.46 8.16h0c2.59 2.73 5.89 5.06 9.52 6.9 3.79-5.64 7.47-10.71 10.94-15.06zm-3.09 97.29c-1.24 6.91-2.67 13.7-4.28 20.26-14.95-1.99-30.14-6.4-44.22-12.78l8.04-19.17c12.88 5.84 26.78 9.87 40.46 11.69zm-12.2 46.68c-2.05 5.58-4.15 10.46-6.26 14.64-15.15-2.02-30.53-6.48-44.8-12.95 1.32-4.41 2.96-9.42 4.93-15.02 14.68 6.66 30.53 11.26 46.13 13.33zm-44.81-17.05c2.09-5.79 4.4-11.85 6.87-18.07 14.26 6.47 29.65 10.93 44.79 12.95-1.67 6.45-3.52 12.64-5.53 18.45-15.59-2.08-31.44-6.68-46.13-13.33zm27.15-64.82c10.69 4.84 22.21 8.19 33.56 9.7-.78 6.99-1.75 14.03-2.91 20.98-13.32-1.78-26.86-5.71-39.4-11.39l8.75-19.29h0zm10.96-22.56c7.8 3.53 16.22 5.98 24.51 7.08-.26 6.73-.75 13.64-1.43 20.62-10.85-1.45-21.87-4.65-32.09-9.28l9.01-18.42zm1.94-3.84l8.8-16.59h0c4.38 1.99 9.11 3.37 13.77 3.99.28 6.09.32 12.52.15 19.16-7.68-1.02-15.48-3.28-22.72-6.56zm22.35-16.53c-3.95-.53-7.97-1.69-11.7-3.38h0 0c3.29-5.87 6.46-11.19 9.4-15.79 1.1 5.77 1.86 12.23 2.3 19.17zm-31.56 151.58c-13.68-1.82-27.58-5.85-40.46-11.69.53-2.91 1.39-6.46 2.56-10.6h0c14.08 6.38 29.28 10.79 44.23 12.78h0c-2.12 3.87-4.24 7.05-6.33 9.51zm-9.32 6.18c-.78.17-.97.21-1.72.14-10.22-1.32-19.97-4.16-29.01-8.28-.34-.21-.59-.6-.78-1.13 10.22 4.63 20.66 7.83 31.51 9.27zm-31.45-16.06c12.55 5.69 26.09 9.61 39.41 11.39h0c-2.08 2.15-4.13 3.59-6.1 4.31-11.35-1.51-22.87-4.86-33.56-9.7-.23-1.35-.14-3.36.25-6zm45.77-150.73c3.05 3.21 6.92 5.96 11.2 8.11-3.27 5-6.61 10.37-9.96 16.03-7.06-3.56-13.45-8.09-18.49-13.38 5.64-4 11.42-7.61 17.25-10.76zm-20.9 13.42c5.43 5.71 12.33 10.6 19.95 14.44-3.35 5.77-6.7 11.79-10 17.95-9.97-5.02-19-11.43-26.11-18.9 5.17-4.81 10.59-9.33 16.16-13.49zm-19.49 16.67c7.43 7.81 16.87 14.51 27.31 19.76-3.27 6.23-6.46 12.57-9.53 18.93-12.25-6.17-23.34-14.04-32.06-23.21 4.43-5.37 9.22-10.56 14.28-15.48zm-17.13 19c8.97 9.43 20.35 17.5 32.93 23.84-3.01 6.35-5.87 12.7-8.54 18.93-13.74-6.92-26.19-15.75-35.99-26.05 3.43-5.68 7.33-11.27 11.6-16.72h0zm-13.77 20.43c9.92 10.43 22.53 19.38 36.45 26.39-2.58 6.17-4.94 12.2-7.04 17.98-14.34-7.22-27.32-16.44-37.54-27.18 2.16-5.73 4.9-11.49 8.13-17.19zm-9.46 20.92c10.22 10.74 23.2 19.95 37.54 27.17h0c-1.96 5.6-3.53 10.65-4.75 15.11-13.92-7.01-26.52-15.96-36.45-26.39.57-4.93 1.77-10.24 3.66-15.89zm-2.24 34.61c8.72 9.18 19.81 17.05 32.06 23.21h0c-.18 2.75 0 4.88.51 6.37-10.43-5.26-19.87-11.96-27.3-19.77.36.44.75.88 1.14 1.3l1.75 1.8c6.89 6.89 15.43 12.83 24.8 17.55h0c.31.48.88 1.01 1.32 1.38-10.98-5.55-20.81-13.03-29.05-22l.04-.03c-2.31-2.79-4.08-6.07-5.27-9.81zm-.7-2.5c-.93-3.93-1.28-8.29-.99-13.05h0c9.79 10.29 22.24 19.12 35.99 26.04h0c-1.05 4.21-1.74 7.83-2.07 10.84-12.58-6.33-23.96-14.41-32.93-23.83zM199.65 83.41c1.17-2.68 1.25-5.76.19-8.98 5.91 2.05 11.33 4.62 16.21 7.65h0c1.75 5.31 1.6 10.39-.32 14.81h0c-4.83-4.86-10.21-9.38-16.08-13.48zm19.16 16.69c2.07-4.77 2.22-10.25.33-15.99 4.63 3.21 8.7 6.86 12.15 10.86h0c2.48 7.51 2.27 14.69-.44 20.93h0c-3.42-5.51-7.45-10.81-12.04-15.8zm22.78 40.53c3.37-7.76 3.66-16.66.68-26l-.27-.84c-.28-.84-.57-1.67-.89-2.49l.62 1.63c3.21 9.54 5.05 19.7 5.28 30.26 0-.15-.01-.31-.01-.46l-.03 6.14h0c-.16 4.75-1.17 9.28-3.01 13.51h0c-.26 5.94-1.29 11.84-3.15 17.6-.2.62-.41 1.25-.64 1.87-.22.62-.45 1.24-.69 1.85l-.73 1.91c5.33-12.33 8.29-25.93 8.29-40.22 0-.65-.02-1.29-.03-1.93.05 5.31-.96 10.36-2.99 15.03h0c-.07-5.96-.9-11.95-2.43-17.86zm-1.1-3.85c-1.83-5.88-4.35-11.66-7.5-17.26 2.84-6.52 3.05-14.03.46-21.88 3.18 4.16 5.73 8.67 7.58 13.45h0c3.04 9.23 2.79 18.04-.54 25.69zm-51.36 100.08c1.87-.75 3.64-1.58 5.31-2.47-3.18 1.76-6.47 3.35-9.85 4.76 1.55-.67 3.07-1.44 4.54-2.29zm2.63-1.62c3.96-2.64 7.6-5.96 10.84-9.94 7.7-3.13 13.93-7.29 18.6-12.23-6.05 6.76-12.99 12.71-20.63 17.65l-4.88 2.98a99.73 99.73 0 0 0 3.83-2.31c-2.37 1.42-4.96 2.71-7.76 3.85zm20.33-102.57c-2.07-6.71-4.62-13.34-7.62-19.76 6.27-2.54 10.76-6.31 13.36-10.87 4.49 5.21 8.42 10.71 11.75 16.4h0c-3.41 5.96-9.29 10.91-17.49 14.23zm1.28 4.39c8.58-3.47 14.73-8.64 18.29-14.88 3.06 5.77 5.5 11.71 7.27 17.72h0c-4.18 7.33-11.41 13.4-21.48 17.48-.84-6.76-2.22-13.57-4.08-20.32zm4.56 24.72c10.34-4.19 17.76-10.43 22.05-17.95 1.47 6.04 2.25 12.13 2.28 18.17h0 0c-4.69 8.22-12.8 15.03-24.1 19.61.48-6.45.39-13.1-.23-19.83zm-.16 24.01c11.44-4.64 19.66-11.54 24.41-19.87-.29 6.01-1.34 11.95-3.2 17.71h0l-.01.03.01-.03c-4.89 8.58-13.36 15.68-25.14 20.46 1.91-5.8 3.2-11.94 3.93-18.3zm-5.26 22.02c11.79-4.77 20.25-11.88 25.14-20.46-1.03 2.65-2.18 5.16-3.5 7.58a102.43 102.43 0 0 1-8.25 12.48l-2.81 3.48c.83-.98 1.64-1.98 2.44-2.99-4.9 6.02-11.89 11.06-20.88 14.7 3.07-4.27 5.71-9.2 7.86-14.79zM77.09 70.2a101.98 101.98 0 0 1 11.34-8.94c-1.68 1.19-3.24 2.45-4.66 3.78l-6.68 5.16zm9.71-7.04c2.42-2.26 5.24-4.32 8.44-6.13-1.76 1-3.49 2.06-5.18 3.16l5.33-3.24a100.79 100.79 0 0 1 31.78-11.52c.56-.08 1.15-.14 1.68-.2-1.9.22-3.81.62-5.67 1.07-8.96 2.14-16.04 5.8-21.08 10.52l-15.3 6.34zm46.3-18.63c4.04-.48 8.15-.74 12.32-.74 7.42 0 14.65.8 21.61 2.31.5.14.96.43 1.39.83-8.3-1.8-16.67-2.33-24.37-1.34h0c-3.55-1.02-7.25-1.44-10.95-1.06zm13.39 1.87c7.12-.92 14.88-.44 22.57 1.23h0 0c.94 1.24 1.72 3.21 2.3 5.92-4.67-1.02-9.37-1.31-13.69-.75h0 0c-3.7-2.88-7.45-5.01-11.18-6.4zm26.12 22.67c-4.03-5.79-8.24-10.55-12.53-14.29 3.67-.48 7.67-.23 11.63.63h0 0c.58 3.54.89 8.09.9 13.66zm0 0c-7.47-4.36-15.02-7.73-22.5-10.14 1.76-1.65 4.22-2.93 7.35-3.67a19.85 19.85 0 0 1 1.11-.24c4.78 3.66 9.49 8.34 14.04 14.05zM154.6 53.36c-3.68.88-6.59 2.38-8.66 4.32-6.37-1.76-12.67-2.83-18.8-3.23 3.41-3.19 8.2-5.67 14.27-7.12.71-.17 1.42-.33 2.15-.47 4.1 1.34 8.23 3.41 12.34 6.22 0 .03-1.19.25-1.3.28zm-13.71-7.26c-.78.15-1.55.31-2.32.5-6.55 1.56-11.71 4.24-15.4 7.69h0c-6.05-.11-11.91.45-17.48 1.65 4.82-4.51 11.59-8.01 20.16-10.06 1-.24 2.01-.46 3.03-.65l12.01.87zm23.46 199.12c-7.49 1.41-15.51 1.67-23.75.94 2.28-.68 4.6-2.09 6.91-4.22h0c11.09.98 21.92.41 31.77-1.95a81.13 81.13 0 0 0 5.5-1.54 41.14 41.14 0 0 1-7.17 3.32 101.17 101.17 0 0 1-13.26 3.45zm22.94-8.36c-1.81.59-3.7 1.12-5.65 1.59-10.12 2.42-21.23 3.01-32.62 2 2.32-2.44 4.61-5.59 6.86-9.45h0c12.45 1.09 24.6.45 35.65-2.2a81.58 81.58 0 0 0 6.18-1.73c-3.14 3.95-6.64 7.21-10.42 9.79zm12.41-12.46c-2 .65-4.09 1.24-6.25 1.76-11.2 2.68-23.5 3.33-36.11 2.22 2.22-4.17 4.39-9.05 6.45-14.62h0c12.98 1.14 25.65.47 37.18-2.29 2.23-.53 4.38-1.14 6.44-1.8-2.14 5.58-4.73 10.49-7.71 14.73zm2.6-16.65c-11.53 2.76-24.2 3.43-37.19 2.29 2-5.81 3.78-12.01 5.35-18.48 12.6 1.12 24.91.46 36.1-2.22 2.17-.52 4.26-1.1 6.26-1.75-.82 6.39-2.16 12.55-4.08 18.35 0 .13-5.89 1.68-6.44 1.81zm4.8-22.63c-11.06 2.65-23.21 3.29-35.65 2.19 1.47-6.57 2.72-13.39 3.75-20.32h0c11.38 1.01 22.5.42 32.61-2 1.96-.47 3.84-1 5.65-1.59.45 6.8.39 13.5-.19 19.99 0 .12-5.64 1.6-6.17 1.73zm.49-24.62c-9.84 2.36-20.67 2.94-31.76 1.96.93-6.98 1.63-14.04 2.1-21.07h0c9.44.83 18.66.34 27.05-1.67a61.21 61.21 0 0 0 4.68-1.31c1.62 6.84 2.78 13.73 3.44 20.55 0 .11-5.03 1.43-5.51 1.54zm-3.53-25.28c-8.02 1.91-16.83 2.38-25.86 1.59.36-7.02.49-13.97.37-20.74 6.91.61 13.64.25 19.77-1.21a51.24 51.24 0 0 0 3.42-.96 160.4 160.4 0 0 1 6.78 20.06c0 .09-4.09 1.16-4.48 1.26zm-27-42.84c3.87.34 7.66.14 11.1-.68.66-.16 1.31-.34 1.92-.54 3.69 5.86 6.98 12.08 9.86 18.51.02.06-2.91.83-3.17.89-5.67 1.36-11.91 1.69-18.31 1.13h0c-.22-6.69-.68-13.17-1.4-19.31zm-.5-3.96c-.97-7-2.28-13.52-3.95-19.35 5.49 5.47 10.51 11.64 15.01 18.31l.01.01a24.4 24.4 0 0 1-1.64.45c-2.92.7-6.14.87-9.43.58zM139.11 246.5c5.02.45 9.97.5 14.76.13a102.68 102.68 0 0 1-8.45.35 103.64 103.64 0 0 1-8.49-.36 10.01 10.01 0 0 0 2.18-.12h0zm101.7-66.52c-.2.62-.41 1.25-.64 1.87-.22.62-.45 1.24-.69 1.85.38-.87 1.89-5.01 1.33-3.72zm-18.96-101.5l-4.54-4.85 3.35 3.58c.41.41.81.84 1.19 1.27z" fill="#206eb5"/><path d="M1023.47 387.12v-95.37h26.05c3.95 0 7.51.52 10.67 1.59 3.18 1.06 5.88 2.56 8.11 4.49 2.25 1.93 3.95 4.25 5.15 6.95 1.21 2.7 1.8 5.68 1.8 8.92 0 2.75-.39 5.32-1.14 7.72-.75 2.39-1.84 4.57-3.25 6.54-1.43 1.98-3.15 3.71-5.22 5.14-2.07 1.45-4.4 2.59-7.01 3.43v.27c3.2.29 6.13 1.07 8.76 2.32 2.61 1.24 4.88 2.86 6.75 4.85 1.86 2 3.31 4.34 4.33 7.02s1.55 5.61 1.55 8.81c0 4.02-.73 7.72-2.21 11.06-1.45 3.34-3.52 6.22-6.15 8.65-2.63 2.41-5.79 4.29-9.42 5.61-3.64 1.34-7.66 2-12.06 2h-26.71zm8.86-87.2v33.79h12.38c3.22 0 6.15-.43 8.76-1.27 2.63-.84 4.86-2.05 6.72-3.63a15.95 15.95 0 0 0 4.29-5.8c1-2.24 1.5-4.79 1.5-7.63 0-10.3-6.42-15.46-19.28-15.46h-14.37zm0 41.83v37.33h16.44c7.06 0 12.49-1.66 16.28-4.95s5.7-7.97 5.7-14.06c0-12.21-8.33-18.32-24.98-18.32h-13.44zm89.14 47c-5.04 0-9.58-.84-13.57-2.52-4.02-1.7-7.45-4.08-10.29-7.17s-5-6.77-6.5-11.08c-1.52-4.32-2.27-9.09-2.27-14.33 0-5.68.8-10.77 2.39-15.24 1.61-4.5 3.88-8.29 6.81-11.42 2.95-3.13 6.52-5.52 10.67-7.15 4.18-1.66 8.84-2.48 13.97-2.48 4.93 0 9.35.82 13.28 2.43 3.95 1.61 7.29 3.97 10.04 7.02 2.75 3.06 4.86 6.81 6.31 11.19 1.48 4.41 2.2 9.4 2.2 14.99 0 5.34-.77 10.17-2.29 14.55-1.52 4.39-3.7 8.13-6.54 11.29s-6.29 5.59-10.38 7.34c-4.06 1.72-8.67 2.58-13.83 2.58zm.69-64.03c-3.75 0-7.11.63-10.13 1.93-3.02 1.29-5.61 3.15-7.77 5.63-2.16 2.45-3.81 5.47-4.97 9.06-1.16 3.56-1.73 7.63-1.73 12.15 0 4.27.57 8.11 1.73 11.51 1.16 3.43 2.79 6.36 4.9 8.81 2.12 2.43 4.68 4.32 7.7 5.61 3.02 1.32 6.38 1.98 10.13 1.98 3.81 0 7.2-.64 10.13-1.91 2.93-1.25 5.4-3.09 7.45-5.52 2.04-2.43 3.58-5.38 4.63-8.9 1.04-3.5 1.56-7.49 1.56-11.99 0-9.17-2.04-16.21-6.13-21.07-4.08-4.86-9.92-7.29-17.5-7.29zm82.65 62.4v-12.13h-.28c-2.2 4.36-5.24 7.75-9.08 10.15-3.84 2.41-8.17 3.61-13.01 3.61-3.29 0-6.25-.47-8.88-1.4-2.66-.93-4.88-2.25-6.72-3.95-1.86-1.73-3.27-3.77-4.27-6.18s-1.5-5.04-1.5-7.95c0-6.18 1.91-11.1 5.72-14.76 3.82-3.68 9.59-6.06 17.31-7.17l20.71-3c0-13.08-5.09-19.62-15.29-19.62-7.97 0-15.37 2.9-22.18 8.72v-9.31c1.43-1 3.04-1.93 4.83-2.75 1.82-.82 3.73-1.52 5.73-2.13a49.79 49.79 0 0 1 6.17-1.39 39.22 39.22 0 0 1 6.2-.5c7.61 0 13.38 2.14 17.26 6.38 3.91 4.27 5.86 10.61 5.86 19.05v44.33h-8.58zm-17.6-33.09c-3.09.44-5.7.98-7.88 1.66-2.18.66-3.98 1.57-5.41 2.7-1.43 1.14-2.47 2.52-3.13 4.18-.66 1.68-1 3.73-1 6.18 0 1.82.32 3.5.98 5.06.63 1.55 1.56 2.89 2.79 4.02 1.23 1.14 2.7 2.02 4.47 2.64 1.75.61 3.75.93 5.98.93 3.02 0 5.79-.57 8.33-1.73a20.28 20.28 0 0 0 6.56-4.79c1.84-2.04 3.29-4.5 4.34-7.34 1.04-2.83 1.57-5.92 1.57-9.26v-6.72l-17.6 2.47zm75.93-26.29c-2-1.48-4.57-2.2-7.72-2.2-2.25 0-4.25.43-5.98 1.29-1.74.86-3.24 2.02-4.56 3.5-1.32 1.45-2.41 3.15-3.32 5.08-.93 1.93-1.65 3.93-2.2 6.02-.57 2.09-.95 4.2-1.2 6.31-.25 2.14-.37 4.16-.37 6.07v33.31h-8.44V319h8.44v14.6h.28c.79-2.48 1.79-4.73 3.02-6.68 1.22-1.97 2.63-3.66 4.22-5a17.24 17.24 0 0 1 5.22-3.08 16.73 16.73 0 0 1 5.95-1.07c1.39 0 2.61.09 3.7.27 1.07.16 2.07.43 2.96.8v8.9zm53.79 59.38v-11.94h-.28c-2.25 4.29-5.49 7.65-9.67 10.01-4.2 2.38-8.97 3.56-14.28 3.56-4.27 0-8.13-.79-11.63-2.36-3.48-1.59-6.47-3.86-8.95-6.83-2.47-2.98-4.4-6.56-5.77-10.79-1.34-4.22-2.02-8.99-2.02-14.3 0-5.52.75-10.54 2.23-15.1 1.5-4.55 3.61-8.45 6.33-11.72 2.73-3.27 6.02-5.79 9.86-7.59 3.84-1.79 8.11-2.7 12.81-2.7 9.81 0 16.85 3.93 21.09 11.79h.28V286.3h8.58v100.82h-8.58zm0-41.15c0-2.97-.53-5.76-1.55-8.33s-2.43-4.81-4.25-6.72c-1.84-1.91-4.02-3.43-6.58-4.54-2.54-1.12-5.36-1.66-8.43-1.66-3.38 0-6.49.66-9.33 2s-5.29 3.24-7.31 5.76c-2.02 2.5-3.59 5.57-4.72 9.16-1.14 3.58-1.71 7.67-1.71 12.26 0 4.29.53 8.15 1.55 11.58s2.47 6.31 4.36 8.65c1.88 2.36 4.13 4.16 6.76 5.41 2.62 1.24 5.54 1.86 8.72 1.86 3.48 0 6.61-.62 9.38-1.86 2.77-1.25 5.13-2.96 7.07-5.14 1.93-2.18 3.42-4.72 4.47-7.65 1.04-2.93 1.57-6.06 1.57-9.4v-11.38zm69.23 41.15v-95.37h26.05c3.95 0 7.51.52 10.67 1.59 3.18 1.06 5.88 2.56 8.11 4.49 2.24 1.93 3.95 4.25 5.15 6.95s1.8 5.68 1.8 8.92c0 2.75-.39 5.32-1.14 7.72-.75 2.39-1.84 4.57-3.25 6.54-1.43 1.98-3.15 3.71-5.22 5.14-2.07 1.45-4.41 2.59-7.02 3.43v.27c3.2.29 6.13 1.07 8.77 2.32 2.61 1.24 4.88 2.86 6.74 4.85 1.86 2 3.32 4.34 4.34 7.02s1.54 5.61 1.54 8.81c0 4.02-.72 7.72-2.2 11.06-1.45 3.34-3.52 6.22-6.15 8.65-2.64 2.41-5.79 4.29-9.43 5.61-3.63 1.34-7.65 2-12.05 2h-26.71zm8.86-87.2v33.79h12.37c3.23 0 6.16-.43 8.77-1.27 2.63-.84 4.86-2.05 6.72-3.63a15.95 15.95 0 0 0 4.29-5.8c1-2.24 1.5-4.79 1.5-7.63 0-10.3-6.43-15.46-19.28-15.46h-14.37zm0 41.83v37.33h16.44c7.06 0 12.49-1.66 16.28-4.95s5.7-7.97 5.7-14.06c0-12.21-8.34-18.32-24.98-18.32h-13.44zm105.97 45.37v-11.54h-.27c-4.61 8.79-11.77 13.17-21.48 13.17-16.2 0-24.3-9.9-24.3-29.68V319h8.58v38.44c0 8.17 1.46 14.19 4.36 18.1 2.88 3.9 7.34 5.86 13.31 5.86 2.93 0 5.58-.57 8.01-1.71 2.41-1.13 4.5-2.72 6.25-4.79 1.75-2.04 3.11-4.52 4.09-7.4.97-2.88 1.45-6.09 1.45-9.58V319h8.58v68.12h-8.58zm30.24-85.29a5.9 5.9 0 0 1-4.27-1.73c-1.23-1.16-1.82-2.63-1.82-4.4 0-1.73.59-3.16 1.82-4.3 1.2-1.13 2.61-1.7 4.27-1.7.84 0 1.66.14 2.41.43a6.09 6.09 0 0 1 1.97 1.23c.57.54 1 1.18 1.34 1.91.34.72.5 1.54.5 2.43 0 .84-.16 1.63-.47 2.4a5.4 5.4 0 0 1-1.34 1.96c-.57.56-1.23 1-1.96 1.29-.75.32-1.56.48-2.45.48zm-4.22 85.29V319h8.58v68.12h-8.58zm25.99 0V286.3h8.58v100.82zm73.68 0v-11.94h-.27a24.23 24.23 0 0 1-9.67 10.01c-4.21 2.38-8.97 3.56-14.29 3.56-4.27 0-8.13-.79-11.63-2.36-3.47-1.59-6.47-3.86-8.94-6.83-2.48-2.98-4.41-6.56-5.77-10.79-1.34-4.22-2.02-8.99-2.02-14.3 0-5.52.75-10.54 2.22-15.1 1.5-4.55 3.62-8.45 6.34-11.72 2.73-3.27 6.02-5.79 9.86-7.59 3.83-1.79 8.1-2.7 12.8-2.7 9.81 0 16.85 3.93 21.1 11.79h.27V286.3h8.58v100.82h-8.58zm0-41.15c0-2.97-.52-5.76-1.54-8.33s-2.43-4.81-4.25-6.72c-1.84-1.91-4.02-3.43-6.58-4.54-2.55-1.12-5.36-1.66-8.43-1.66-3.38 0-6.49.66-9.33 2s-5.29 3.24-7.31 5.76c-2.03 2.5-3.59 5.57-4.73 9.16-1.13 3.58-1.7 7.67-1.7 12.26 0 4.29.52 8.15 1.54 11.58 1.03 3.43 2.48 6.31 4.36 8.65 1.89 2.36 4.14 4.16 6.77 5.41 2.61 1.24 5.54 1.86 8.72 1.86 3.48 0 6.61-.62 9.38-1.86 2.77-1.25 5.13-2.96 7.06-5.14s3.43-4.72 4.47-7.65c1.05-2.93 1.57-6.06 1.57-9.4v-11.38zm30.01 8.59c.05 4.17.6 7.92 1.66 11.26 1.07 3.32 2.59 6.15 4.59 8.45a19.64 19.64 0 0 0 7.29 5.29c2.86 1.22 6.08 1.84 9.67 1.84 7.68 0 14.92-2.68 21.76-8.06v8.42c-6.52 4.66-14.42 6.99-23.69 6.99-4.56 0-8.72-.79-12.44-2.4a25.87 25.87 0 0 1-9.52-6.95c-2.61-3.04-4.63-6.79-6.04-11.22-1.43-4.45-2.13-9.51-2.13-15.19 0-5.11.77-9.83 2.32-14.19 1.56-4.34 3.7-8.11 6.44-11.29 2.77-3.18 6.02-5.65 9.79-7.45 3.77-1.79 7.88-2.7 12.35-2.7 4.41 0 8.27.77 11.65 2.29 3.36 1.55 6.2 3.73 8.47 6.57 2.3 2.83 4.02 6.29 5.23 10.37 1.2 4.09 1.79 8.66 1.79 13.7v4.27h-49.19zm40.47-7.5c-.14-7.08-1.82-12.58-5.06-16.48-3.25-3.91-7.77-5.86-13.54-5.86-2.88 0-5.56.5-8.04 1.52-2.45 1.02-4.63 2.5-6.49 4.43s-3.41 4.29-4.63 7.06c-1.23 2.77-2.07 5.88-2.57 9.33h40.33zm54.88-19.32c-2-1.48-4.56-2.2-7.72-2.2-2.25 0-4.25.43-5.97 1.29-1.75.86-3.25 2.02-4.57 3.5-1.31 1.45-2.4 3.15-3.31 5.08a33.36 33.36 0 0 0-2.21 6.02c-.56 2.09-.95 4.2-1.2 6.31-.25 2.14-.36 4.16-.36 6.07v33.31h-8.45V319h8.45v14.6h.27c.79-2.48 1.79-4.73 3.02-6.68 1.23-1.97 2.63-3.66 4.22-5 1.59-1.36 3.34-2.38 5.23-3.08a16.69 16.69 0 0 1 5.95-1.07c1.38 0 2.61.09 3.7.27 1.06.16 2.06.43 2.95.8v8.9z" fill="#434242"/></g></svg>