<svg xmlns="http://www.w3.org/2000/svg" width="299" height="299" viewBox="0 0 186.46 186.56"
     shape-rendering="geometricPrecision" image-rendering="optimizeQuality" fill-rule="evenodd"><path d="M182.73 182.83l-43.29-15.76c-13.67 8.64-29.86 13.64-47.22 13.64-48.87 0-88.49-39.62-88.49-88.49S43.35 3.73 92.22 3.73s88.49 39.62 88.49 88.49c0 17.42-5.03 33.66-13.72 47.35l15.74 43.26z" stroke="#fefefe" stroke-width="7.45" stroke-linejoin="round" stroke-miterlimit="22.9256" fill="#206eb5"/><path d="M109.49 43.81c-4.66-.55-9.47-1.13-16.24-.82h0c.25 1.68 1.1 3.49 2.6 5.26h0c4.54-1.94 9.12-3.44 13.64-4.44zm7.61-5.4c-3.13 1.68-6.05 4.07-7.61 5.4.36-3.45.51-6.25.47-8.41h0c2.51.65 4.97 1.68 7.14 3.01zm.9.57c1.44.98 2.74 2.09 3.82 3.32.98 1.13 1.71 2.26 2.18 3.38h0c-5.62-1.39-10.14-1.63-14.51-1.87 2.01-1.42 5.17-3.48 8.51-4.83zm-8.51 4.83c5.3.36 10.25 1.25 14.79 2.6h0c.57 1.74.52 3.4-.11 4.84h0c-5.68-3.64-10.26-5.57-14.68-7.44zm12.05 13.66c2.23-.9 3.83-2.25 4.76-3.87a77.53 77.53 0 0 1 9.97 9h0c-1.53 2.68-4.17 4.9-7.85 6.39h0c-2.02-4.01-4.33-7.88-6.88-11.52zm-1.71-2.34c-3.11-4.14-6.58-7.95-10.34-11.32 5.16 2.23 9.98 4.94 14.39 8.03h0c-.79 1.38-2.15 2.52-4.05 3.29zm-1.51-17.33c-2.56-1.57-5.45-2.78-8.39-3.54-.09-1.65-.32-2.84-.66-3.56h0c4.85 1.26 9.61 3.25 13.83 5.82-1.5.01-3.15.52-4.78 1.28zm5.63-1.23c-4.55-2.77-9.69-4.92-14.93-6.28-.16-.21-.34-.37-.53-.44 6.13 1.59 11.92 4.07 17.2 7.28-.54-.3-1.13-.48-1.74-.56zm.87 1.05c2.82 1.9 5.36 4.08 7.45 6.47 2.27 2.78 2.79 3.52 4.24 6.56h0c-3.03-1.74-6.39-3.19-10.07-4.3h0c-.56-1.31-1.41-2.65-2.57-3.98h0c-1.27-1.44-2.8-2.75-4.5-3.9 1.86-.63 3.73-.98 5.45-.85zm.99.14a6.76 6.76 0 0 1 2.24.88c10.19 6.82 18.33 16.47 23.29 27.83-1.06-2.35-2.43-4.57-4.04-6.62-1.26-2.96-3.13-5.98-5.64-8.97l-.94-1.1a27.68 27.68 0 0 0-.75-.81c2.7 3.1 4.69 6.22 5.99 9.28h0c-2.13-2.4-4.66-4.56-7.53-6.42-.99-2.34-2.51-4.73-4.58-7.09-5.12-5.46-8.02-6.97-8.04-6.98zm-35.54 5.43c.28 1.98 1.29 4.1 3.05 6.19-3.87 1.8-7.7 3.91-11.44 6.27h0c-2.91-3.46-4.57-6.95-5.04-10.23a84.21 84.21 0 0 1 13.43-2.23zm-16.25 3c.51 3.53 2.3 7.3 5.45 11.03h0a115.21 115.21 0 0 0-10.68 8.09h0c-4.12-4.88-6.46-9.82-7.13-14.44a80.58 80.58 0 0 1 12.36-4.68zM48.45 58.95c3.28-2.54 6.86-4.83 10.68-6.82h0c.71 4.83 3.15 10 7.46 15.1-3.33 2.98-6.48 6.15-9.39 9.45h0c-5.05-5.98-7.93-12.05-8.75-17.73zm-2.1 1.7c.85 5.83 3.8 12.06 8.99 18.2-2.79 3.36-5.34 6.83-7.57 10.37-5.68-6.72-8.9-13.53-9.83-19.9 2.44-3.12 5.27-6.02 8.41-8.67zM28.09 94.73c.14-3.53.77-7.14 1.95-10.77.96 6.65 4.33 13.75 10.25 20.76v-.02.02c-1.2 3.59-1.93 6.99-2.25 10.17-5.75-6.81-9.01-13.7-9.95-20.16zm2.79-13.13c1.4-3.59 3.26-7.01 5.53-10.22.94 6.46 4.2 13.35 9.95 20.16h0c-2.09 3.57-3.85 7.19-5.23 10.82-5.92-7.01-9.29-14.11-10.25-20.76zm-2.81 15.43c.93 6.37 4.15 13.18 9.83 19.9h0c-.13 3.08.16 5.93.84 8.52-3.88-4.59-6.5-9.23-7.94-13.71l.84 2.46.52 1.38c1.48 3.79 3.83 7.67 7.08 11.52h0c.81 2.34 1.94 4.45 3.41 6.28-7.58-9.12-12.7-20.37-14.31-32.72-.15-1.2-.24-2.41-.27-3.63zm-.22-4.72C26.84 78.5 32.93 63.9 40.61 53.64c-3.19 4.4-4.71 9.54-4.46 15.08h0c-2.27 3.17-4.14 6.56-5.53 10.14-.17-3.56.27-7.07 1.5-10.22-1.74 4.87-2.3 7.26-2.35 12.59h0c-1.17 3.63-1.78 7.5-1.92 11.08zm23.6-49.32c-3.77 4.3-5.59 9.54-5.33 15.25h0c-3.15 2.56-5.98 5.39-8.43 8.45-.27-5.82 1.45-11.19 5.02-15.7 2.66-3.14 5.28-5.69 8.74-8zm-3.22 13.62c-.26-5.56 1.51-10.67 5.19-14.86l-.03.02.03-.02c3.06-1.8 6.4-3.23 9.95-4.27-3.13 3.57-4.64 7.92-4.43 12.66h0c-3.83 1.86-7.42 4.03-10.71 6.47zm28.88-21.12c-2.29 2.6-3.39 5.78-3.23 9.24h0c-4.31 1.08-8.47 2.5-12.4 4.23-.21-4.53 1.23-8.69 4.22-12.1a51.8 51.8 0 0 1 11.41-1.37zm-.4 8.59c-.15-3.21.87-6.15 2.99-8.57 4.01.13 8.13.68 12.3 1.67-1.28 1.46-1.9 3.25-1.81 5.19a81.99 81.99 0 0 0-13.48 1.71zm32.78-.27c-5.42-1.14-10.86-1.44-16.31-1.52a6.15 6.15 0 0 1 1.55-4.41h0c4.9 1.37 9.85 3.34 14.76 5.93zm0 0c-4.29 1.25-8.65 3-12.98 5.18h0c1.64 1.73 3.73 3.21 6.04 4.37 2.4-3.57 4.74-6.79 6.94-9.55zm-1.96 61.72a212.57 212.57 0 0 1-2.72 12.85c-9.48-1.27-19.12-4.06-28.05-8.11l5.11-12.16c8.17 3.7 16.98 6.26 25.66 7.42zm-7.74 29.6c-1.3 3.54-2.63 6.64-3.97 9.29-9.61-1.28-19.37-4.11-28.42-8.21.84-2.8 1.88-5.98 3.13-9.53 9.31 4.22 19.36 7.14 29.26 8.45zm-28.42-10.81c1.32-3.67 2.79-7.52 4.36-11.46 9.04 4.1 18.8 6.93 28.41 8.21-1.07 4.09-2.24 8.02-3.51 11.7-9.89-1.31-19.95-4.23-29.26-8.45zM88.59 83.2c6.78 3.07 14.09 5.19 21.29 6.15-.5 4.44-1.11 8.9-1.85 13.31-8.45-1.12-17.04-3.62-25-7.22l5.56-12.24zm6.95-14.31c4.95 2.24 10.29 3.79 15.55 4.49a230.2 230.2 0 0 1-.91 13.08c-6.88-.91-13.87-2.94-20.36-5.88l5.72-11.69zm1.23-2.43l5.58-10.52a31.3 31.3 0 0 0 8.74 2.52c.17 3.87.2 7.95.09 12.16-4.87-.65-9.82-2.08-14.41-4.16zm14.18-10.49c-2.51-.33-5.06-1.07-7.42-2.14h0c2.09-3.73 4.09-7.1 5.96-10.02.7 3.66 1.18 7.76 1.46 12.16zm-20.02 96.15c-8.68-1.15-17.5-3.71-25.67-7.42.34-1.84.88-4.09 1.63-6.72h0c8.93 4.05 18.57 6.84 28.05 8.11h0c-1.34 2.46-2.69 4.47-4.01 6.03zm-5.92 3.92c-.49.11-.61.13-1.08.09a64.08 64.08 0 0 1-18.41-5.26c-.21-.13-.37-.37-.49-.71 6.48 2.94 13.1 4.97 19.98 5.88zm-19.94-10.19c7.96 3.61 16.54 6.1 24.99 7.23h0c-1.32 1.36-2.61 2.28-3.86 2.73-7.2-.96-14.51-3.08-21.29-6.15-.14-.86-.09-2.13.16-3.81zM94.1 50.24c1.93 2.04 4.39 3.78 7.11 5.15-2.08 3.17-4.2 6.58-6.32 10.16-4.48-2.25-8.54-5.13-11.73-8.48a106.38 106.38 0 0 1 10.94-6.83zm-13.26 8.51c3.45 3.63 7.83 6.73 12.66 9.17-2.13 3.65-4.25 7.47-6.34 11.38-6.33-3.18-12.06-7.25-16.57-11.99a125.25 125.25 0 0 1 10.25-8.56zM68.48 69.33c4.71 4.95 10.7 9.21 17.32 12.54-2.07 3.94-4.1 7.97-6.04 12-7.77-3.91-14.8-8.9-20.34-14.72 2.81-3.41 5.85-6.7 9.06-9.82zM57.62 81.38C63.3 87.36 70.53 92.49 78.5 96.5c-1.9 4.03-3.72 8.06-5.41 12.01-8.72-4.39-16.62-9.99-22.83-16.52 2.17-3.6 4.65-7.15 7.36-10.61h0zm-8.74 12.96c6.29 6.62 14.29 12.29 23.12 16.74-1.63 3.91-3.13 7.74-4.47 11.4-9.09-4.58-17.33-10.42-23.81-17.23 1.37-3.64 3.11-7.29 5.16-10.91zm-6 13.27c6.48 6.81 14.72 12.65 23.81 17.23h0c-1.24 3.56-2.24 6.76-3.01 9.59-8.83-4.45-16.83-10.12-23.12-16.74.36-3.13 1.12-6.5 2.32-10.08zm-1.42 21.96c5.53 5.81 12.57 10.81 20.34 14.72h0c-.12 1.74-.01 3.09.32 4.04-6.62-3.34-12.61-7.59-17.32-12.54a13.83 13.83 0 0 0 .73.82l1.1 1.14c4.38 4.37 9.79 8.14 15.74 11.13h0c.19.31.55.64.83.88-6.96-3.52-13.2-8.27-18.43-13.95l.03-.02c-1.47-1.77-2.59-3.86-3.34-6.22zm-.44-1.59c-.6-2.49-.82-5.26-.64-8.28h0c6.22 6.53 14.11 12.13 22.83 16.52h0c-.66 2.67-1.1 4.97-1.31 6.88-7.98-4.02-15.2-9.15-20.88-15.12zm85.62-75.07c.74-1.7.8-3.66.12-5.7 3.75 1.3 7.19 2.93 10.28 4.85h0c1.11 3.37 1.02 6.6-.2 9.4h0c-3.06-3.08-6.48-5.95-10.2-8.55zm12.15 10.58c1.32-3.02 1.41-6.5.21-10.14 2.94 2.04 5.52 4.35 7.71 6.89h0c1.57 4.77 1.44 9.32-.28 13.27h0c-2.17-3.49-4.73-6.85-7.64-10.02zm14.45 25.71c2.14-4.92 2.33-10.57.43-16.49l-.17-.53a29.63 29.63 0 0 0-.56-1.58l.39 1.03a64.2 64.2 0 0 1 3.35 19.2c0-.1 0-.2-.01-.3l-.02 3.9c-.1 3.01-.74 5.89-1.9 8.57h0c-.17 3.77-.82 7.51-2 11.16a27.93 27.93 0 0 1-.41 1.19l-.43 1.17c-.16.41-.3.81-.47 1.21 3.38-7.82 5.26-16.45 5.26-25.51 0-.41-.01-.82-.02-1.22.03 3.36-.61 6.57-1.9 9.53h0c-.04-3.78-.57-7.58-1.54-11.33zm-.69-2.44a57.2 57.2 0 0 0-4.76-10.95c1.8-4.13 1.93-8.89.29-13.88 2.02 2.64 3.63 5.5 4.81 8.53v.01c1.93 5.85 1.77 11.44-.34 16.29zm-32.58 63.48c1.18-.48 2.31-1 3.37-1.56-2.02 1.11-4.11 2.12-6.25 3.02a29.93 29.93 0 0 0 2.88-1.46zm1.66-1.03c2.52-1.67 4.82-3.78 6.88-6.3 4.89-1.98 8.84-4.63 11.8-7.76a64.93 64.93 0 0 1-13.09 11.2l-3.09 1.89a60.32 60.32 0 0 0 2.43-1.47c-1.5.91-3.15 1.72-4.93 2.44zm12.9-65.06c-1.31-4.26-2.93-8.46-4.83-12.53 3.97-1.61 6.82-4.01 8.47-6.9 2.85 3.31 5.34 6.8 7.45 10.41h0c-2.16 3.78-5.89 6.92-11.09 9.02zm.81 2.79c5.44-2.21 9.35-5.48 11.61-9.44 1.94 3.66 3.48 7.43 4.6 11.24h0c-2.65 4.65-7.23 8.5-13.62 11.09-.53-4.29-1.41-8.61-2.59-12.89zm2.9 15.68c6.55-2.66 11.26-6.61 13.98-11.38.93 3.83 1.43 7.69 1.45 11.52h0c-2.97 5.21-8.12 9.53-15.29 12.44.31-4.1.25-8.31-.14-12.58zm-.11 15.23c7.26-2.94 12.47-7.32 15.49-12.6a43.56 43.56 0 0 1-2.03 11.23h0l-.01.02.01-.02c-3.11 5.44-8.47 9.95-15.95 12.98 1.21-3.68 2.03-7.58 2.49-11.61zm-3.33 13.97c7.47-3.03 12.84-7.54 15.95-12.98a42.21 42.21 0 0 1-2.23 4.81c-1.55 2.77-3.3 5.41-5.23 7.91l-1.78 2.21c.52-.62 1.04-1.26 1.54-1.9-3.1 3.82-7.54 7.02-13.24 9.33 1.95-2.71 3.63-5.84 4.99-9.38zM48.9 44.53a63.55 63.55 0 0 1 7.19-5.67 27.18 27.18 0 0 0-2.95 2.39l-4.24 3.28zm6.16-4.47c1.53-1.43 3.32-2.74 5.35-3.89a68.47 68.47 0 0 0-3.28 2.01l3.38-2.06c6.16-3.49 12.95-6 20.16-7.3.35-.06.73-.09 1.06-.13-1.2.14-2.42.39-3.6.68-5.68 1.36-10.17 3.68-13.37 6.67l-9.7 4.02zm29.37-11.81a64.99 64.99 0 0 1 7.81-.47 65.14 65.14 0 0 1 13.71 1.46c.31.09.61.27.88.53-5.27-1.15-10.58-1.48-15.45-.85h0c-2.26-.65-4.61-.92-6.95-.67zm8.49 1.18c4.52-.58 9.44-.28 14.32.78h0c.6.79 1.09 2.04 1.46 3.75-2.96-.64-5.95-.82-8.69-.47h0c-2.34-1.82-4.72-3.18-7.09-4.06zm16.57 14.38c-2.56-3.67-5.23-6.69-7.95-9.06 2.33-.31 4.86-.15 7.38.4h0c.37 2.24.56 5.13.57 8.66zm0 0c-4.74-2.76-9.53-4.9-14.28-6.43 1.12-1.05 2.69-1.86 4.67-2.33.23-.06.46-.11.7-.15 3.03 2.32 6.02 5.29 8.91 8.91zm-11.43-9.96c-2.33.56-4.17 1.51-5.49 2.74-4.04-1.12-8.04-1.8-11.92-2.05 2.16-2.03 5.2-3.6 9.05-4.52.45-.11.9-.21 1.36-.29 2.6.84 5.22 2.16 7.83 3.94 0 .02-.76.16-.83.18zm-8.69-4.61c-.5.1-.99.2-1.47.32-4.16.99-7.43 2.69-9.77 4.87h0c-3.84-.06-7.56.29-11.09 1.06 3.06-2.87 7.35-5.09 12.79-6.39a38.34 38.34 0 0 1 1.92-.41l7.62.55zm14.88 126.3c-4.75.9-9.84 1.06-15.07.6 1.45-.43 2.92-1.33 4.39-2.68h0c7.03.63 13.9.26 20.15-1.23a47.76 47.76 0 0 0 3.49-.98 26.39 26.39 0 0 1-4.55 2.11 63.64 63.64 0 0 1-8.41 2.18zm14.55-5.3c-1.15.38-2.34.71-3.59 1.01-6.41 1.53-13.46 1.91-20.68 1.27 1.46-1.55 2.92-3.55 4.35-6h0c7.89.7 15.6.29 22.61-1.39a48.62 48.62 0 0 0 3.92-1.1c-1.99 2.51-4.21 4.58-6.61 6.21zm7.87-7.9a54.21 54.21 0 0 1-3.96 1.11c-7.11 1.7-14.91 2.12-22.91 1.41 1.41-2.64 2.78-5.74 4.09-9.27h0c8.24.73 16.27.3 23.59-1.45a51.44 51.44 0 0 0 4.08-1.15c-1.35 3.54-3 6.66-4.89 9.35zm1.65-10.56c-7.31 1.75-15.35 2.17-23.59 1.45 1.27-3.69 2.4-7.62 3.39-11.72 8 .71 15.8.29 22.9-1.41a53.11 53.11 0 0 0 3.97-1.11c-.51 4.06-1.37 7.96-2.58 11.64 0 .08-3.74 1.06-4.09 1.15zm3.04-14.36c-7.01 1.68-14.71 2.09-22.61 1.39.93-4.17 1.73-8.49 2.38-12.88h0c7.22.63 14.27.26 20.69-1.28a45.49 45.49 0 0 0 3.58-1c.28 4.31.25 8.56-.12 12.67 0 .08-3.58 1.02-3.92 1.1zm.32-15.61c-6.25 1.49-13.11 1.86-20.15 1.24.59-4.43 1.03-8.91 1.33-13.37h0c5.99.53 11.84.22 17.16-1.05 1.03-.25 2.02-.53 2.97-.84 1.03 4.34 1.76 8.71 2.18 13.04 0 .07-3.19.91-3.49.98zm-2.24-16.04c-5.09 1.22-10.68 1.51-16.41 1.01a194.16 194.16 0 0 0 .24-13.15c4.38.38 8.65.16 12.54-.78.75-.18 1.47-.38 2.17-.6a102.29 102.29 0 0 1 4.3 12.72c0 .06-2.6.74-2.84.8zM112.31 58.6c2.46.21 4.86.09 7.04-.44.42-.1.83-.21 1.22-.34 2.34 3.72 4.43 7.66 6.26 11.75.01.03-1.85.52-2.02.56-3.6.86-7.55 1.07-11.61.71h0c-.14-4.24-.43-8.35-.89-12.24zm-.32-2.51c-.61-4.45-1.44-8.58-2.5-12.28 3.48 3.47 6.67 7.39 9.52 11.62h0c-.33.11-.68.2-1.03.29-1.86.44-3.9.55-5.99.37zM88.24 156.36c3.18.28 6.33.31 9.36.08-1.77.14-3.55.22-5.36.22s-3.61-.08-5.38-.22c.46.02.92-.01 1.38-.08h0zm64.51-42.2a27.93 27.93 0 0 1-.41 1.19l-.43 1.17c.24-.55 1.19-3.17.84-2.36zm-12.03-64.38l-2.88-3.08 2.13 2.27a27.68 27.68 0 0 1 .75.81z" fill="#fefefe" fill-rule="nonzero"/></svg>
