<svg xmlns="http://www.w3.org/2000/svg" xmlns:xlink="http://www.w3.org/1999/xlink" width="1920" height="1200"
     shape-rendering="geometricPrecision" image-rendering="optimizeQuality" fill-rule="evenodd"><style>.G{fill-rule:nonzero}  .H{fill:#fff}  .I{fill:#b3b3b3}  .J{fill:#6b6b6b}  .K{fill:#206eb5}</style><path d="M1158.09 1101.28l-3.71 3.71-3.71-3.71V668.51h7.42v432.77zm-3.71 3.71h-3.71v-3.71l3.71 3.71zm306-7.42l3.71 3.71-3.71 3.71h-306v-7.42h306zm3.71 3.71v3.71h-3.71l3.71-3.71zm-7.42-432.77l3.71-3.71 3.71 3.71v432.77h-7.42V668.51zm3.71-3.71h3.71v3.71l-3.71-3.71zm-306 7.42l-3.71-3.71 3.71-3.71h306v7.42h-306zm-3.71-3.71v-3.71h3.71l-3.71 3.71z" class="G I"/><path d="M1129.45 643.59v432.77h306V643.59z" class="H"/><g class="G"><path d="M1133.16 1076.36l-3.71 3.7-3.71-3.7V643.59h7.42v432.77zm-3.71 3.7h-3.71v-3.7l3.71 3.7zm306-7.41l3.71 3.71-3.71 3.7h-306v-7.41h306zm3.71 3.71v3.7h-3.71l3.71-3.7zm-7.42-432.77l3.71-3.71 3.71 3.71v432.77h-7.42V643.59zm3.71-3.71h3.71v3.71l-3.71-3.71zm-306 7.41l-3.71-3.7 3.71-3.71h306v7.41h-306zm-3.71-3.7v-3.71h3.71l-3.71 3.71z" fill="#999"/><path d="M563.04 1101.28l-3.71 3.71-3.7-3.71V668.51h7.41v432.77zm-3.71 3.71h-3.7v-3.71l3.7 3.71zm306-7.42l3.71 3.71-3.71 3.71h-306v-7.42h306zm3.71 3.71v3.71h-3.71l3.71-3.71zm-7.41-432.77l3.7-3.71 3.71 3.71v432.77h-7.41V668.51zm3.7-3.71h3.71v3.71l-3.71-3.71zm-306 7.42l-3.7-3.71 3.7-3.71h306v7.42h-306zm-3.7-3.71v-3.71h3.7l-3.7 3.71z" class="I"/></g><path d="M534.41 643.59v432.77h306V643.59z" class="H"/><g class="G"><path d="M538.11 1076.36l-3.7 3.7-3.71-3.7V643.59h7.41v432.77zm-3.7 3.7h-3.71v-3.7l3.71 3.7zm306-7.41l3.7 3.71-3.7 3.7h-306v-7.41h306zm3.7 3.71v3.7h-3.7l3.7-3.7zm-7.41-432.77l3.71-3.71 3.7 3.71v432.77h-7.41V643.59zm3.71-3.71h3.7v3.71l-3.7-3.71zm-306 7.41l-3.71-3.7 3.71-3.71h306v7.41h-306zm-3.71-3.7v-3.71h3.71l-3.71 3.71z" fill="#999"/><path d="M631.2 202.14H198.43v-7.42H631.2l3.71 3.71-3.71 3.71zm0-7.42h3.71v3.71l-3.71-3.71zm-3.71 309.71v-306h7.42v306l-3.71 3.71-3.71-3.71zm7.42 0v3.71h-3.71l3.71-3.71zm-436.48-3.71H631.2v7.42H198.43l-3.71-3.71 3.71-3.71zm0 7.42h-3.71v-3.71l3.71 3.71zm3.71-309.71v306h-7.42v-306l3.71-3.71 3.71 3.71zm-7.42 0v-3.71h3.71l-3.71 3.71z" class="I"/></g><path d="M173.5 173.5h432.77v306H173.5z" class="H"/><g class="G"><path d="M606.27 177.21H173.5v-7.42h432.77l3.71 3.71-3.71 3.71zm0-7.42h3.71v3.71l-3.71-3.71zm-3.71 309.71v-306h7.42v306l-3.71 3.71-3.71-3.71zm7.42 0v3.71h-3.71l3.71-3.71zm-436.48-3.71h432.77v7.42H173.5l-3.71-3.71 3.71-3.71zm0 7.42h-3.71v-3.71l3.71 3.71zm3.71-309.71v306h-7.42v-306l3.71-3.71 3.71 3.71zm-7.42 0v-3.71h3.71l-3.71 3.71z" fill="#999"/><path d="M1226.24 202.14H793.47v-7.42h432.77l3.71 3.71-3.71 3.71zm0-7.42h3.71v3.71l-3.71-3.71zm-3.71 309.71v-306h7.42v306l-3.71 3.71-3.71-3.71zm7.42 0v3.71h-3.71l3.71-3.71zm-436.48-3.71h432.77v7.42H793.47l-3.71-3.71 3.71-3.71zm0 7.42h-3.71v-3.71l3.71 3.71zm3.71-309.71v306h-7.42v-306l3.71-3.71 3.71 3.71zm-7.42 0v-3.71h3.71l-3.71 3.71z" class="I"/></g><path d="M768.54 173.5h432.77v306H768.54z" class="H"/><g class="G"><path d="M1201.31 177.21H768.54v-7.42h432.77l3.71 3.71-3.71 3.71zm0-7.42h3.71v3.71l-3.71-3.71zm-3.71 309.71v-306h7.42v306l-3.71 3.71-3.71-3.71zm7.42 0v3.71h-3.71l3.71-3.71zm-436.48-3.71h432.77v7.42H768.54l-3.71-3.71 3.71-3.71zm0 7.42h-3.71v-3.71l3.71 3.71zm3.71-309.71v306h-7.42v-306l3.71-3.71 3.71 3.71zm-7.42 0v-3.71h3.71l-3.71 3.71z" fill="#999"/><use xlink:href="#B" class="I"/></g><path d="M1363.58 173.5h432.77v306h-432.77z" class="H"/><path d="M1796.35 177.21h-432.77v-7.42h432.77l3.71 3.71-3.71 3.71zm0-7.42h3.71v3.71l-3.71-3.71zm-3.7 309.71v-306h7.41v306l-3.71 3.71-3.7-3.71zm7.41 0v3.71h-3.71l3.71-3.71zm-436.48-3.71h432.77v7.42h-432.77l-3.7-3.71 3.7-3.71zm0 7.42h-3.7v-3.71l3.7 3.71zm3.71-309.71v306h-7.41v-306l3.7-3.71 3.71 3.71zm-7.41 0v-3.71h3.7l-3.7 3.71z" fill="#999" class="G"/><path d="M1104.52 618.66h306v432.77h-306z" class="H"/><use xlink:href="#C" class="G J"/><g class="K"><path d="M1182.98 677.04l10.92 14.7-6.58 4.48-16.98-22.85-22.66 30.48 84.77.06-34.73-46.69z"/><path d="M1366.39 686.12h-94.56V675h94.56z" class="G"/><path d="M1182.98 777.9l10.92 14.7-6.58 4.48-16.98-22.85-22.66 30.47 84.77.06-34.73-46.68z"/><path d="M1366.39 786.98h-94.56v-11.12h94.56z" class="G"/><path d="M1182.98 878.76l10.92 14.7-6.58 4.48-16.99-22.85-22.65 30.47 84.77.06-34.73-46.69z"/><path d="M1366.39 887.84h-94.56v-11.12h94.56z" class="G"/><path d="M1182.98 979.62l10.92 14.69-6.58 4.49-16.99-22.86-22.65 30.48 84.77.06-34.73-46.69z"/><path d="M1366.39 988.7h-94.56v-11.13h94.56z" class="G"/></g><path d="M509.48 618.66h306v432.77h-306z" class="H"/><use xlink:href="#C" x="-595.04" class="G J"/><g class="K"><use xlink:href="#D"/><path d="M609.8 709.2h-70.68v-7.12h70.68z" class="G"/><use xlink:href="#D" x="88.02"/><path d="M697.82 709.35h-70.68v-7.41h70.68z" class="G"/><use xlink:href="#E"/><path d="M697.82 814.74h-70.68v-7.42h70.68z" class="G"/><use xlink:href="#E" x="-88.02"/><path d="M609.8 814.74h-70.68v-7.42h70.68z" class="G"/><use xlink:href="#F"/><path d="M697.82 920.12h-70.68v-7.42h70.68z" class="G"/><use xlink:href="#F" x="-88.02"/><path d="M609.8 920.12h-70.68v-7.42h70.68z" class="G"/><use xlink:href="#F" y="105.38"/><path d="M697.82 1025.5h-70.68v-7.42h70.68z" class="G"/><use xlink:href="#F" x="-88.02" y="105.38"/><path d="M609.8 1025.5h-70.68v-7.42h70.68z" class="G"/><use xlink:href="#D" x="176.04"/><path d="M785.84 709.35h-70.68v-7.41h70.68z" class="G"/><use xlink:href="#E" x="88.02"/><path d="M785.84 814.74h-70.68v-7.42h70.68z" class="G"/><use xlink:href="#F" x="88.02"/><path d="M785.84 920.12h-70.68v-7.42h70.68z" class="G"/><use xlink:href="#F" x="88.02" y="105.38"/><path d="M785.84 1025.5h-70.68v-7.42h70.68z" class="G"/></g><path d="M743.61 148.57h432.77v306H743.61z" class="H"/><path d="M1176.38 152.28H743.61v-7.42h432.77l3.71 3.71-3.71 3.71zm0-7.42h3.71v3.71l-3.71-3.71zm-3.7 309.71v-306h7.41v306l-3.71 3.71-3.7-3.71zm7.41 0v3.71h-3.71l3.71-3.71zm-436.48-3.71h432.77v7.42H743.61l-3.71-3.71 3.71-3.71zm0 7.42h-3.71v-3.71l3.71 3.71zm3.71-309.71v306h-7.42v-306l3.71-3.71 3.71 3.71zm-7.42 0v-3.71h3.71l-3.71 3.71z" class="G J"/><g class="K"><path d="M797.54 201.81l8.36 11.25-5.04 3.43-13-17.48-17.33 23.32 64.87.04-26.58-35.73z"/><path d="M937.9 208.76h-72.36v-8.51h72.36z" class="G"/><path d="M797.54 293.62l8.36 11.25-5.04 3.43-13-17.49-17.33 23.32 64.87.05-26.58-35.73z"/><path d="M937.9 300.57h-72.36v-8.51h72.36z" class="G"/><path d="M797.54 385.36l8.36 11.25-5.04 3.43-13-17.49-17.33 23.33 64.87.04-26.58-35.73z"/><path d="M937.9 392.31h-72.36v-8.51h72.36z" class="G"/><path d="M1009.79 201.81l8.36 11.25-5.04 3.43-13-17.48-17.33 23.32 64.87.04-26.58-35.73z"/><path d="M1150.15 208.76h-72.36v-8.51h72.36z" class="G"/><path d="M1009.79 293.62l8.36 11.25-5.04 3.43-13-17.49-17.33 23.32 64.87.05-26.58-35.73z"/><path d="M1150.15 300.57h-72.36v-8.51h72.36z" class="G"/><path d="M1009.79 385.36l8.36 11.25-5.04 3.43-13-17.49-17.33 23.33 64.87.04-26.58-35.73z"/><path d="M1150.15 392.31h-72.36v-8.51h72.36z" class="G"/></g><path d="M1338.66 148.57h432.77v306h-432.77z" class="H"/><use xlink:href="#B" x="-49.85" y="-49.86" class="G J"/><g class="K"><path d="M1445.25 360.57l16.2 21.78-9.76 6.65-25.18-33.88-33.58 45.18 125.66.09-51.49-69.21z"/><path d="M1717.16 374.02h-140.18v-16.48h140.18z" class="G"/><path d="M1445.25 225.07l16.2 21.79-9.76 6.65-25.18-33.88-33.58 45.18 125.66.09-51.49-69.22z"/><path d="M1717.16 238.53h-140.18v-16.48h140.18z" class="G"/></g><path d="M148.57 148.57h432.77v306H148.57z" class="H"/><path d="M581.34 152.28H148.57v-7.42h432.77l3.71 3.71-3.71 3.71zm0-7.42h3.71v3.71l-3.71-3.71zm-3.71 309.71v-306h7.42v306l-3.71 3.71-3.71-3.71zm7.42 0v3.71h-3.71l3.71-3.71zm-436.48-3.71h432.77v7.42H148.57l-3.71-3.71 3.71-3.71zm0 7.42h-3.71v-3.71l3.71 3.71zm3.71-309.71v306h-7.42v-306l3.71-3.71 3.71 3.71zm-7.42 0v-3.71h3.71l-3.71 3.71z" class="G J"/><g class="K"><use xlink:href="#F" x="-440.3" y="-683.23"/><use xlink:href="#G" class="G"/><path d="M312.07 190.65l8.16 10.99-4.92 3.35-12.7-17.08-16.93 22.78 63.37.04-25.97-34.9z"/><use xlink:href="#G" x="95.18" class="G"/><use xlink:href="#F" x="-249.93" y="-683.23"/><use xlink:href="#G" x="190.37" class="G"/><path d="M502.44 190.65l8.16 10.99-4.92 3.35-12.69-17.08-16.94 22.78 63.36.04-25.96-34.9z"/><use xlink:href="#G" x="285.55" class="G"/><use xlink:href="#F" x="-440.3" y="-591.67"/><use xlink:href="#G" y="91.56" class="G"/><path d="M312.07 282.21l8.16 10.99-4.92 3.35-12.7-17.08-16.93 22.78 63.37.04-25.97-34.9z"/><use xlink:href="#G" x="95.18" y="91.56" class="G"/><use xlink:href="#F" x="-249.93" y="-591.67"/><use xlink:href="#G" x="190.37" y="91.56" class="G"/><path d="M502.44 282.21l8.16 10.99-4.92 3.35-12.69-17.08-16.94 22.78 63.36.04-25.96-34.9z"/><use xlink:href="#G" x="285.55" y="91.56" class="G"/><path d="M216.88 373.78l8.17 10.98-4.92 3.35-12.7-17.08-16.93 22.78 63.36.04-25.96-34.89z"/><use xlink:href="#G" y="183.12" class="G"/><path d="M312.07 373.78l8.16 10.98-4.92 3.35-12.7-17.08-16.93 22.78 63.37.04-25.97-34.89z"/><use xlink:href="#G" x="95.18" y="183.12" class="G"/><path d="M407.25 373.78l8.17 10.98-4.92 3.35-12.7-17.08-16.93 22.78 63.36.04-25.96-34.89z"/><use xlink:href="#G" x="190.37" y="183.12" class="G"/><path d="M502.44 373.78l8.16 10.98-4.92 3.35-12.69-17.08-16.94 22.78 63.36.04-25.96-34.89z"/><use xlink:href="#G" x="285.55" y="183.12" class="G"/></g><defs ><path id="B" d="M1821.28 202.14h-432.77v-7.42h432.77l3.71 3.71-3.71 3.71zm0-7.42h3.71v3.71l-3.71-3.71zm-3.71 309.71v-306h7.42v306l-3.71 3.71-3.71-3.71zm7.42 0v3.71h-3.71l3.71-3.71zm-436.48-3.71h432.77v7.42h-432.77l-3.71-3.71 3.71-3.71zm0 7.42h-3.71v-3.71l3.71 3.71zm3.71-309.71v306h-7.42v-306l3.71-3.71 3.71 3.71zm-7.42 0v-3.71h3.71l-3.71 3.71z"/><path id="C" d="M1410.52 622.36h-306v-7.41h306l3.71 3.71-3.71 3.7zm0-7.41h3.71v3.71l-3.71-3.71zm-3.71 436.48V618.66h7.42v432.77l-3.71 3.71-3.71-3.71zm7.42 0v3.71h-3.71l3.71-3.71zm-309.71-3.71h306v7.42h-306l-3.71-3.71 3.71-3.71zm0 7.42h-3.71v-3.71l3.71 3.71zm3.71-436.48v432.77h-7.42V618.66l3.71-3.71 3.71 3.71zm-7.42 0v-3.71h3.71l-3.71 3.71z"/><path id="D" d="M569.16 663.11l8.17 10.99-4.92 3.35-12.7-17.08-16.93 22.78 63.36.04-25.96-34.89z"/><path id="E" d="M657.18 768.5l8.17 10.98-4.92 3.36-12.7-17.09-16.93 22.78 63.36.05-25.96-34.9z"/><path id="F" d="M657.18 873.88l8.17 10.99-4.92 3.35-12.7-17.08-16.93 22.78 63.36.04-25.96-34.9z"/><path id="G" d="M257.52 236.9h-70.68v-7.43h70.68z"/></defs></svg>
