<svg xmlns="http://www.w3.org/2000/svg" width="1092" height="807" viewBox="0 0 597.91 441.94"
     shape-rendering="geometricPrecision" image-rendering="optimizeQuality" fill-rule="evenodd"><style>.F{stroke-width:9.12}  .G{stroke-miterlimit:22.9256}  .H{fill:#206eb5}  .I{stroke:#206eb5}  .J{fill:none}</style><g stroke="#6b6b6b" fill="#fff" class="F G"><path d="M60.9 60.9h532.45v376.48H60.9z"/><path d="M32.73 32.73h532.45v376.48H32.73z"/><path d="M4.56 4.56h532.45v376.48H4.56z"/></g><path d="M88.61 56.33l10.04 13.52-6.05 4.12-15.62-21.01-20.84 28.02 77.96.06-31.94-42.94z" class="H"/><path d="M51.64 108.66h86.96" class="F G I J"/><path d="M443.63 56.33l10.05 13.52-6.05 4.12-15.62-21.01-20.84 28.02 77.96.06-31.94-42.94z" class="H"/><path d="M406.67 108.66h86.96" class="F G I J"/><path d="M325.29 56.33l10.05 13.52-6.05 4.12-15.63-21.01-20.83 28.02 77.96.06-31.95-42.94z" class="H"/><path d="M288.33 108.66h86.96" class="F G I J"/><path d="M206.95 56.33L217 69.85l-6.06 4.12-15.62-21.01-20.83 28.02 77.95.06L220.5 38.1z" class="H"/><path d="M169.99 108.66h86.96" class="F G I J"/><path d="M443.63 169.26l10.05 13.51-6.05 4.13-15.62-21.02-20.84 28.03 77.96.05-31.94-42.93z" class="H"/><path d="M406.67 221.58h86.96" class="F G I J"/><path d="M325.29 169.26l10.05 13.51-6.05 4.13-15.63-21.02-20.83 28.03 77.96.05-31.95-42.93z" class="H"/><path d="M288.33 221.58h86.96" class="F G I J"/><path d="M206.95 169.26L217 182.77l-6.06 4.13-15.62-21.02-20.83 28.03 77.95.05-31.94-42.93z" class="H"/><path d="M169.99 221.58h86.96" class="F G I J"/><path d="M88.61 169.26l10.04 13.51-6.05 4.13-15.62-21.02-20.84 28.03 77.96.05-31.94-42.93z" class="H"/><path d="M51.64 221.58h86.96" class="F G I J"/><path d="M443.63 282.18l10.05 13.52-6.05 4.12-15.62-21.01-20.84 28.02 77.96.05-31.94-42.93z" class="H"/><path d="M406.67 334.51h86.96" class="F G I J"/><path d="M325.29 282.18l10.05 13.52-6.05 4.12-15.63-21.01-20.83 28.02 77.96.05-31.95-42.93z" class="H"/><path d="M288.33 334.51h86.96" class="F G I J"/><path d="M206.95 282.18L217 295.7l-6.06 4.12-15.62-21.01-20.83 28.02 77.95.05-31.94-42.93z" class="H"/><path d="M169.99 334.51h86.96" class="F G I J"/><path d="M88.61 282.18l10.04 13.52-6.05 4.12-15.62-21.01-20.84 28.02 77.96.05-31.94-42.93z" class="H"/><path d="M51.64 334.51h86.96" class="F G I J"/></svg>
