<svg xmlns="http://www.w3.org/2000/svg" xmlns:xlink="http://www.w3.org/1999/xlink" width="1920" height="1200"
     shape-rendering="geometricPrecision" image-rendering="optimizeQuality" fill-rule="evenodd"><style>.Z{fill-rule:nonzero}  .a{fill:#6b6b6b}  .b{stroke-miterlimit:22.9256}  .c{stroke:#6b6b6b}  .d{fill:#e6e6e6}  .e{stroke-width:2.36}  .f{stroke-width:5.91}</style><path d="M0 65.91h265.72v1068.17H0z" class="d"/><path d="M0 65.91h265.72v84.97H0z" fill="#8ebeec"/><path d="M33.65 108.4h151.58" stroke="#206eb5" fill="none" class="b f"/><path d="M0 1049.12h265.72v84.97H0z" fill="#8ebeec"/><circle cx="219.65" cy="1091.6" r="26.8" fill="#206eb5"/><path d="M1491.02 65.91H1920v1068.17h-428.98z" class="d"/><path d="M1491.02 230.03h143.71v53.26h-143.71z" fill="#ccc"/><path d="M308.06 189.9h1135.98v803.22H308.06z" fill="#fff"/><path d="M1444.04 195.82H308.06v-11.83h1135.98l5.92 5.91-5.92 5.92zm0-11.83h5.92v5.91l-5.92-5.91zm-5.91 809.13V189.9h11.83v803.22l-5.92 5.92-5.91-5.92zm11.83 0v5.92h-5.92l5.92-5.92zm-1141.9-5.91h1135.98v11.83H308.06l-5.92-5.92 5.92-5.91zm0 11.83h-5.92v-5.92l5.92 5.92zm5.91-809.14v803.22h-11.83V189.9l5.92-5.91 5.91 5.91zm-11.83 0v-5.91h5.92l-5.92 5.91z" class="Z a"/><g fill="#206eb5"><path d="M487.36 300.36l21.44 28.84-12.91 8.79-33.33-44.83-44.45 59.79 166.32.11-68.15-91.6z"/><path d="M594.04 421.75H408.5v-19.51h185.54z" class="Z"/><path d="M737.22 300.36l21.43 28.84-12.91 8.79-33.33-44.83-44.45 59.79 166.32.11-68.15-91.6z"/><path d="M843.89 421.75H658.35v-19.51h185.54z" class="Z"/><path d="M987.07 300.36l21.43 28.84-12.91 8.79-33.33-44.83-44.45 59.79 166.32.11-68.15-91.6z"/><path d="M1093.74 421.75H908.21v-19.51h185.53z" class="Z"/><path d="M1236.92 300.36l21.44 28.84-12.92 8.79-33.33-44.83-44.45 59.79 166.32.11-68.14-91.6z"/><path d="M1343.59 421.75h-185.53v-19.51h185.53z" class="Z"/><path d="M487.36 540.7l21.44 28.84-12.91 8.8-33.33-44.84-44.45 59.79 166.32.11-68.15-91.6z"/><path d="M594.04 662.09H408.5v-19.51h185.54z" class="Z"/><use xlink:href="#B"/><path d="M843.89 662.09H658.35v-19.51h185.54z" class="Z"/><use xlink:href="#B" x="249.85"/><path d="M1093.74 662.09H908.21v-19.51h185.53z" class="Z"/><path d="M1236.92 540.7l21.44 28.84-12.92 8.8-33.33-44.84-44.45 59.79 166.32.11-68.14-91.6z"/><path d="M1343.59 662.09h-185.53v-19.51h185.53z" class="Z"/><path d="M487.36 781.04l21.44 28.84-12.91 8.8-33.33-44.84-44.45 59.79 166.32.11-68.15-91.6z"/><path d="M594.04 902.43H408.5v-19.51h185.54z" class="Z"/><use xlink:href="#B" y="240.34"/><path d="M843.89 902.43H658.35v-19.51h185.54z" class="Z"/><use xlink:href="#B" x="249.85" y="240.34"/><path d="M1093.74 902.43H908.21v-19.51h185.53z" class="Z"/><path d="M1236.92 781.04l21.44 28.84-12.92 8.8-33.33-44.84-44.45 59.79 166.32.11-68.14-91.6z"/><path d="M1343.59 902.43h-185.53v-19.51h185.53z" class="Z"/></g><path d="M1716.37 111.36h-191.7v-5.92h191.7z" class="Z a"/><path d="M1901.41 77.87h-391.79v-2.8h391.79v2.8zm9.13 6.3h-2.86l-.01-.32-.03-.32-.04-.32-.05-.31-.07-.3-.09-.3-.1-.3-.11-.28-.13-.28-.14-.28-.15-.26-.17-.26-.17-.24-.19-.24-.2-.23-.21-.22-.22-.21-.23-.2-.24-.19-.24-.17-.26-.17-.26-.15-.27-.13-.28-.13-.28-.11-.29-.1-.29-.09-.3-.07-.31-.05-.31-.04-.32-.02-.31-.01v-2.8l.47.02.46.03.46.06.45.08.44.1.44.13.42.14.42.17.4.18.4.2.38.22.37.24.36.26.34.27.33.28.32.31.3.31.29.33.27.35.25.35.24.37.22.38.2.4.18.4.17.41.14.42.12.43.11.44.08.45.05.45.04.46.01.46zm-2.86 48.45V84.17h2.86v48.45h-2.86zm-6.27 9.1v-2.79l.31-.01.32-.02.31-.04.31-.06.3-.07.29-.08.29-.1.28-.11.28-.13.27-.14.26-.15.26-.16.48-.36.23-.2.22-.21.21-.22.2-.23.19-.24.34-.5.15-.27.14-.27.13-.28.11-.29.1-.29.09-.3.07-.3.05-.31.04-.32.03-.32.01-.33h2.86l-.01.47-.04.46-.05.45-.08.45-.11.44-.12.43-.14.42-.17.41-.18.4-.2.39-.22.39-.24.36-.25.36-.27.34-.29.33-.3.32-.32.3-.33.29-.34.27-.36.26-.37.23-.38.22-.4.21-.4.18-.42.17-.42.14-.44.12-.44.11-.45.08-.46.06-.46.03-.47.01zm-391.79-2.79h391.79v2.79h-391.79v-2.79zm-9.14-6.31h2.87l.01.33.02.32.04.32.06.31.07.3.08.3.1.29.12.29.12.28.14.27.15.27.17.25.18.25.19.24.19.23.21.22.22.21.23.19.24.19.25.18.25.16.26.15.27.14.28.13.28.11.29.1.29.08.31.07.3.06.31.04.32.02.32.01v2.79l-.47-.01-.46-.03-.46-.06-.46-.08-.44-.11-.43-.12-.43-.14-.42-.17-.4-.18-.39-.21-.39-.22-.37-.24-.36-.25-.34-.27-.33-.29-.32-.3-.3-.32-.29-.33-.27-.34-.25-.35-.24-.37-.22-.39-.2-.39-.18-.4-.16-.41-.15-.42-.12-.43-.1-.44-.08-.45-.06-.45-.04-.46-.01-.47zm2.87-48.45v48.45h-2.87V84.17h2.87zm6.27-9.1v2.8l-.32.01-.32.02-.31.04-.3.05-.31.07-.29.09-.29.1-.28.11-.28.13-.27.13-.26.15-.5.34-.24.19-.23.2-.22.21-.21.22-.19.23-.19.24-.18.24-.17.26-.15.26-.14.28-.12.28-.12.29-.1.29-.08.29-.07.31-.06.31-.04.32-.02.32-.01.32h-2.87l.01-.46.04-.46.06-.45.08-.45.1-.44.12-.43.15-.42.16-.41.18-.4.2-.4.22-.38.24-.37.25-.35.27-.34.29-.34.3-.31.32-.3.33-.29.34-.27.36-.26.37-.24.39-.22.39-.2.4-.18.42-.17.43-.14.43-.13.44-.1.46-.08.46-.06.46-.03.47-.02z" fill="#4d4d4d" class="Z"/><path d="M33.65 194.17h151.58M33.65 316.64h151.58M33.65 377.87h151.58M33.65 439.11h151.58" fill="none" class="b c f"/><path d="M0 227.52h265.72v55.77H0z" fill="#b3b3b3"/><g class="b"><g fill="none"><path d="M33.65 255.41h151.58" class="c f"/><g stroke="#8ebeec" stroke-width="3.55"><path d="M219.65 1078.67v25.86"/><path d="M232.59 1091.6h-25.87"/></g></g><path d="M1879.14 344.47l3.44 2.38 12 12-2.53 2.52-12-11.99-2.34-3.39z" class="a c e"/></g><path d="M1861.17 327.97a12.29 12.29 0 0 1 17.38 17.38 12.29 12.29 0 0 1-17.38-17.38z" class="d"/><path d="M1880.07 326.45l-3.04 3.03h.01l-.39-.36-.39-.33-.4-.32-.42-.29-.42-.26-.44-.25-.45-.22-.45-.19-.46-.18-.47-.15-.47-.13-.48-.1-.48-.08-.49-.06-.48-.04-.49-.01-.49.01-.48.04-.49.06-.48.08-.48.1-.47.13-.47.15-.46.18-.45.19-.45.22-.43.25-.43.26-.41.29-.41.32-.39.33-.38.36-3.04-3.03.54-.51.56-.48.57-.44.6-.42.61-.38.62-.34.63-.32.65-.28.66-.25.66-.21.67-.18.68-.15.69-.12.69-.08.69-.05.69-.02.69.02.69.05.69.08.69.12.68.15.67.18.66.21.66.25.65.28.64.32.62.34.61.38.59.42.58.44.55.48.54.51zm0 20.41l-3.03-3.03h-.01l.37-.38.33-.39.32-.41.29-.41.26-.43.25-.44.22-.44.19-.45.18-.47.15-.46.12-.47.11-.48.08-.48.06-.49.03-.48.02-.49-.02-.49-.03-.49-.06-.48-.08-.48-.11-.48-.12-.47-.15-.47-.18-.46-.19-.46-.22-.44-.25-.44-.26-.42-.29-.42-.32-.4-.33-.4-.37-.38 3.04-3.03.51.54.48.55.44.58.42.59.38.61.34.62.32.64.28.65.25.65.21.67.18.67.15.68.12.69.08.69.05.69.02.69-.02.69-.05.69-.08.69-.12.68-.15.68-.18.68-.21.66-.25.66-.28.65-.32.63-.34.62-.38.61-.42.6-.44.57-.48.56-.51.53zm-20.42 0l3.04-3.03.38.36.39.34.4.31.42.29.43.27.43.24.45.22.45.2.46.17.47.15.47.13.48.11.48.08.49.06.48.03.49.01.49-.01.48-.03.49-.06.48-.08.48-.11.47-.13.47-.15.46-.17.45-.2.45-.22.43-.24.43-.27.42-.29.4-.31.39-.34.39-.36 3.03 3.03-.54.52-.55.47-.58.45-.59.41-.61.38-.62.35-.64.32-.65.28-.66.25-.66.21-.67.18-.68.15-.69.12-.69.08-.69.05-.69.01-.69-.01-.69-.05-.69-.08-.69-.12-.67-.15-.68-.18-.66-.21-.66-.25-.65-.28-.63-.32-.63-.35-.6-.38-.6-.41-.57-.45-.56-.47-.54-.52zm0-20.41l3.04 3.03-.36.38-.34.4-.32.4-.28.42-.27.42-.24.44-.23.45-.19.45-.18.46-.15.47-.12.47-.11.48-.08.48-.06.48-.03.49-.01.49.01.48.03.49.06.49.08.48.11.48.12.47.15.47.18.46.19.45.23.44.24.44.27.43.28.41.32.41.34.39.36.38-3.04 3.03-.51-.53-.47-.56-.45-.57-.41-.6-.38-.61-.35-.62-.32-.63-.28-.65-.25-.66-.21-.67-.18-.67-.15-.68-.12-.68-.08-.69-.05-.69-.01-.69.01-.69.05-.69.08-.69.12-.69.15-.68.18-.67.21-.66.25-.66.28-.65.32-.64.35-.62.38-.61.41-.59.45-.58.47-.55.51-.54zm-143.28 19.38h-191.7v-5.92h191.7z" class="Z a"/><path d="M1901.41 312.34h-391.79v-2.79h391.79v2.79zm9.13 6.3h-2.86l-.01-.32-.03-.32-.04-.32-.05-.31-.07-.3-.09-.3-.1-.29-.11-.29-.13-.28-.14-.27-.15-.27-.34-.5-.19-.24-.2-.23-.21-.22-.22-.21-.23-.2-.48-.36-.26-.16-.26-.15-.27-.14-.28-.13-.28-.11-.29-.1-.29-.08-.3-.07-.31-.06-.31-.04-.32-.02-.31-.01v-2.79l.47.01.46.03.46.06.45.08.44.11.44.12.42.14.42.17.4.18.4.2.38.23.37.23.36.26.34.27.33.29.32.3.3.32.29.33.27.34.25.36.24.36.22.39.2.39.18.4.17.41.14.42.12.43.11.44.08.45.05.45.04.46.01.46zm-2.86 48.46v-48.46h2.86v48.46h-2.86zm-6.27 9.1v-2.8l.31-.01.32-.02.31-.04.31-.05.3-.08.29-.08.29-.1.28-.11.28-.13.27-.14.26-.15.26-.16.24-.17.24-.19.23-.2.22-.21.21-.22.2-.23.19-.24.17-.24.17-.26.15-.26.14-.28.13-.28.11-.28.1-.3.09-.3.07-.3.05-.31.04-.32.03-.32.01-.32h2.86l-.01.46-.04.46-.05.45-.08.45-.11.44-.12.43-.14.42-.17.41-.18.4-.2.4-.22.38-.24.37-.25.35-.27.35-.29.33-.3.31-.32.31-.33.28-.34.27-.36.26-.37.24-.38.22-.4.2-.4.18-.42.17-.42.14-.44.13-.44.1-.45.08-.46.06-.46.03-.47.02zm-391.79-2.8h391.79v2.8h-391.79v-2.8zm-9.14-6.3h2.87l.01.32.02.32.04.32.06.31.07.31.08.29.1.29.12.29.12.28.14.28.15.26.17.26.18.24.19.24.19.23.21.22.22.21.23.2.24.19.25.17.25.16.26.15.27.14.28.13.28.11.29.1.29.08.31.08.3.05.31.04.32.02.32.01v2.8l-.47-.02-.46-.03-.46-.06-.46-.08-.44-.1-.43-.13-.43-.14-.42-.17-.4-.18-.39-.2-.39-.22-.37-.24-.36-.26-.34-.27-.33-.29-.32-.3-.3-.31-.29-.34-.27-.34-.25-.35-.24-.37-.22-.38-.2-.4-.18-.4-.16-.41-.15-.42-.12-.43-.1-.44-.08-.45-.06-.45-.04-.46-.01-.46zm2.87-48.46v48.46h-2.87v-48.46h2.87zm6.27-9.09v2.79l-.32.01-.32.02-.31.04-.3.06-.31.07-.29.08-.29.1-.28.11-.28.13-.27.14-.26.15-.25.16-.25.18-.24.19-.23.19-.22.21-.21.22-.19.23-.19.24-.18.25-.17.25-.15.27-.14.27-.12.28-.12.29-.1.29-.08.3-.07.3-.06.31-.04.32-.02.32-.01.32h-2.87l.01-.46.04-.46.06-.45.08-.45.1-.44.12-.43.15-.42.16-.41.18-.4.2-.39.22-.39.24-.37.25-.35.27-.34.29-.33.3-.32.32-.3.33-.29.34-.27.36-.25.37-.24.39-.23.39-.2.4-.18.42-.17.43-.14.43-.12.44-.11.46-.08.46-.06.46-.03.47-.01z" fill="#4d4d4d" class="Z"/><path d="M1634.73 230.03h141.56v53.26h-141.56z" fill="#b3b3b3"/><path d="M1776.29 230.03H1920v53.26h-143.71z" fill="#ccc"/><g class="b e"><g fill="none"><path d="M1491.02 283.29H1920" class="c"/><path d="M1634.73 283.29h141.56" stroke="#206eb5"/></g><path d="M1708.04 258.12l3.77 2.61 11.99 12-2.53 2.52-11.99-11.99-2.43-3.5z" class="a c"/></g><path d="M1690.39 241.85c4.8-4.8 12.59-4.8 17.39 0a12.29 12.29 0 0 1 0 17.38c-4.8 4.8-12.59 4.8-17.39 0a12.29 12.29 0 0 1 0-17.38z" class="d"/><g class="a"><path d="M1709.29 240.33l-3.03 3.03-.38-.36-.39-.33-.41-.32-.41-.29-.43-.26-.44-.25-.44-.22-.45-.19-.47-.18-.46-.15-.48-.13-.48-.1-.47-.08-.49-.06-.49-.03-.48-.02-.49.02-.49.03-.48.06-.48.08-.48.1-.48.13-.46.15-.46.18-.46.19-.44.22-.44.25-.43.26-.41.29-.4.32-.4.33-.38.36-3.03-3.03.53-.51.56-.48.58-.44.59-.42.61-.38.62-.34.64-.32.64-.28.66-.25.67-.21.67-.18.68-.15.69-.12.68-.08.69-.05.7-.02.69.02.69.05.68.08.69.12.68.15.67.18.67.21.66.25.65.28.63.32.62.34.61.38.59.42.58.44.56.48.53.51zm0 20.42l-3.03-3.04.36-.38.34-.39.31-.41.29-.41.27-.43.24-.44.22-.44.2-.45.17-.46.15-.47.13-.48.11-.47.08-.48.05-.49.04-.48.01-.49-.01-.49-.04-.48-.05-.49-.08-.48-.11-.48-.13-.47-.15-.47-.17-.46-.2-.45-.22-.45-.24-.44-.27-.42-.29-.42-.31-.4-.34-.39-.36-.39 3.03-3.03.51.54.48.55.45.58.41.59.38.61.35.62.31.64.28.65.25.66.22.66.18.67.15.68.11.69.08.69.05.69.02.69-.02.69-.05.69-.08.69-.11.68-.15.68-.18.68-.22.66-.25.66-.28.65-.31.63-.35.62-.38.61-.41.6-.45.57-.48.56-.51.54zm-20.41 0l3.03-3.04.38.36.4.34.4.32.41.28.43.27.44.24.44.23.46.19.46.18.46.15.48.12.48.11.48.08.48.06.49.03.49.01.48-.01.49-.03.48-.06.48-.08.48-.11.48-.12.46-.15.47-.18.45-.19.44-.23.44-.24.43-.27.41-.28.41-.32.39-.34.38-.36 3.03 3.04-.53.51-.56.47-.58.45-.59.41-.61.38-.62.35-.63.32-.65.28-.66.25-.67.21-.67.18-.68.15-.68.12-.69.08-.69.05-.69.01-.7-.01-.69-.05-.69-.08-.68-.12-.68-.15-.67-.18-.67-.21-.66-.25-.64-.28-.64-.32-.62-.35-.61-.38-.59-.41-.58-.45-.56-.47-.53-.51zm0-20.42l3.03 3.03-.36.39-.34.39-.31.4-.29.42-.27.43-.24.43-.22.45-.2.45-.17.46-.15.47-.13.47-.1.48-.09.48-.05.49-.04.48-.01.49.01.49.04.48.05.49.09.48.1.48.13.47.15.47.17.46.2.45.22.44.24.44.27.43.29.42.31.4.34.39.36.38-3.03 3.04-.51-.54-.48-.56-.45-.57-.41-.6-.38-.61-.35-.62-.31-.63-.28-.65-.25-.66-.22-.66-.18-.68-.15-.68-.11-.68-.08-.69-.05-.69-.02-.69.02-.69.05-.69.08-.69.11-.69.15-.67.18-.68.22-.66.25-.66.28-.65.31-.64.35-.62.38-.61.41-.59.45-.58.48-.55.51-.54z" class="Z"/><path d="M1844 254.6l6.39 8.6-3.85 2.62-9.94-13.37-13.25 17.83 49.59.04-20.32-27.32zm-271.89 2.95l-18.1-18.09-2.85 2.85 4.82 4.82-10.43 10.42c-1.19 1.19-1.19 3.12 0 4.29l11.14 11.13c.58.59 1.37.89 2.14.89s1.56-.3 2.15-.89l11.13-11.13c1.19-1.17 1.19-3.1 0-4.29zm-22.97 2.14l9.69-9.69 9.7 9.69h-19.39zm27.91 3.04s-4.05 4.39-4.05 7.08a4.06 4.06 0 0 0 4.05 4.05 4.06 4.06 0 0 0 4.04-4.05c0-2.69-4.04-7.08-4.04-7.08z"/></g><use xlink:href="#C" fill="#ccc"/><path d="M1987.34 379.85h10.89v10.89h-10.89z" stroke="#000" fill="none" class="b e"/><g fill="#ccc"><use xlink:href="#C" x="104.53"/><use xlink:href="#C" x="209.05"/><use xlink:href="#C" x="313.57"/><use xlink:href="#C" y="104.52"/><use xlink:href="#C" x="104.53" y="104.52"/><use xlink:href="#C" x="209.05" y="104.52"/><use xlink:href="#C" x="313.57" y="104.52"/><use xlink:href="#C" y="209.04"/><use xlink:href="#C" x="104.53" y="209.04"/><use xlink:href="#C" x="209.05" y="209.04"/><use xlink:href="#C" x="313.57" y="209.04"/><use xlink:href="#C" y="313.56"/><use xlink:href="#C" x="104.53" y="313.56"/><use xlink:href="#C" x="209.05" y="313.56"/><use xlink:href="#C" x="313.57" y="313.56"/><use xlink:href="#C" y="418.08"/><use xlink:href="#C" x="104.53" y="418.08"/><use xlink:href="#C" x="209.05" y="418.08"/><use xlink:href="#C" x="313.57" y="418.08"/><use xlink:href="#C" y="522.6"/><use xlink:href="#C" x="104.53" y="522.6"/><use xlink:href="#C" x="209.05" y="522.6"/><use xlink:href="#C" x="313.57" y="522.6"/><use xlink:href="#C" y="627.12"/><use xlink:href="#C" x="104.53" y="627.12"/><use xlink:href="#C" x="209.05" y="627.12"/><use xlink:href="#C" x="313.57" y="627.12"/></g><g fill="#999"><path d="M1784.34 430.52c-8.16 2.18-17.72 3.12-26.57 3.12-8.84 0-18.4-.94-26.56-3.12l-1.56 6.25c5.81 1.56 12.5 2.59 18.75 3.12v40.63h6.25v-18.75h6.25v18.75h6.25v-40.63c6.25-.53 12.94-1.56 18.75-3.12l-1.56-6.25zm-26.57 0c3.44 0 6.25-2.82 6.25-6.25a6.27 6.27 0 0 0-6.25-6.25c-3.43 0-6.25 2.81-6.25 6.25a6.28 6.28 0 0 0 6.25 6.25zm-104.52-10.94c-12.5 0-25 1.56-25 12.5v29.68c0 6.04 4.91 10.94 10.94 10.94l-4.69 4.69v1.56h6.97l6.25-6.25h11.78l6.25 6.25h6.25v-1.56l-4.69-4.69c6.04 0 10.94-4.9 10.94-10.93v-29.69c0-10.94-11.18-12.5-25-12.5zm-14.06 46.87c-2.59 0-4.69-2.09-4.69-4.69 0-2.59 2.1-4.68 4.69-4.68s4.69 2.09 4.69 4.69c0 2.59-2.1 4.68-4.69 4.68zm10.94-21.87h-15.63v-12.5h15.63v12.5zm6.25 0v-12.5H1672v12.5h-15.62zm10.93 21.87c-2.59 0-4.68-2.09-4.68-4.69 0-2.59 2.09-4.68 4.68-4.68 2.6 0 4.69 2.09 4.69 4.68a4.68 4.68 0 0 1-4.69 4.69zm-121.71-26.56h-6.25v-21.87h-6.24v21.87h-6.26v-21.87h-6.25v21.87c0 6.63 5.19 12 11.72 12.41v28.21h7.82V452.3c6.53-.41 11.72-5.78 11.72-12.41v-21.87h-6.26v21.87zm15.63-9.37v25h7.81v25l7.82-.01v-62.49c-8.63 0-15.63 7-15.63 12.5h0zm297.94 9.37h-6.25v-21.87h-6.25v21.87h-6.25v-21.87h-6.25v21.87c0 6.63 5.19 12 11.72 12.41v28.21h7.81V452.3c6.54-.41 11.72-5.78 11.72-12.41v-21.87h-6.25v21.87zm15.63-9.37v25h7.81v25l7.81-.01v-62.49c-8.62 0-15.62 7-15.62 12.5h0zm-326.07 93.58c-12.5 0-25 1.56-25 12.5v29.68c0 6.04 4.91 10.94 10.94 10.94l-4.69 4.69v1.56h6.97l6.25-6.25h11.78l6.25 6.25h6.25v-1.56l-4.69-4.69a10.95 10.95 0 0 0 10.94-10.93V536.6c0-10.94-11.19-12.5-25-12.5zm-14.06 46.87a4.68 4.68 0 0 1-4.69-4.69c0-2.59 2.09-4.68 4.69-4.68 2.59 0 4.69 2.09 4.69 4.69 0 2.59-2.1 4.68-4.69 4.68zm10.93-21.87h-15.62v-12.5h15.62v12.5zm6.26 0v-12.5h15.62v12.5h-15.62zm10.93 21.87c-2.59 0-4.69-2.09-4.69-4.69 0-2.59 2.1-4.68 4.69-4.68 2.6 0 4.69 2.09 4.69 4.68a4.68 4.68 0 0 1-4.69 4.69zm117.03-35.93c-8.16 2.18-17.72 3.12-26.57 3.12-8.84 0-18.4-.94-26.56-3.12l-1.56 6.25c5.81 1.56 12.5 2.59 18.75 3.12v40.63h6.25v-18.75h6.25v18.75h6.25v-40.63c6.25-.53 12.94-1.56 18.75-3.12l-1.56-6.25zm-26.57 0c3.44 0 6.25-2.82 6.25-6.25a6.27 6.27 0 0 0-6.25-6.25 6.27 6.27 0 0 0-6.25 6.25c0 3.43 2.81 6.25 6.25 6.25zm209.05-10.94c-12.5 0-25 1.56-25 12.5v29.68c0 6.04 4.9 10.94 10.94 10.94l-4.69 4.69v1.56h6.97l6.25-6.25h11.78l6.25 6.25h6.25v-1.56l-4.69-4.69a10.95 10.95 0 0 0 10.94-10.93V536.6c0-10.94-11.19-12.5-25-12.5zm-14.06 46.87a4.68 4.68 0 0 1-4.69-4.69c0-2.59 2.09-4.68 4.69-4.68 2.59 0 4.68 2.09 4.68 4.69 0 2.59-2.09 4.68-4.68 4.68zm10.93-21.87h-15.62v-12.5h15.62v12.5zm6.25 0v-12.5h15.63v12.5h-15.63zm10.94 21.87c-2.59 0-4.69-2.09-4.69-4.69 0-2.59 2.1-4.68 4.69-4.68s4.69 2.09 4.69 4.68c0 2.6-2.1 4.69-4.69 4.69zm-121.71-26.56h-6.25v-21.87h-6.25v21.87h-6.25v-21.87h-6.25v21.87c0 6.63 5.19 12 11.72 12.41v28.21h7.81v-28.21c6.53-.41 11.72-5.78 11.72-12.41v-21.87h-6.25v21.87zm15.62-9.38v25.01h7.82v25l7.81-.01v-62.49c-8.63 0-15.62 7-15.62 12.49h-.01zm-194.98 104.53c-8.15 2.18-17.72 3.12-26.56 3.12s-18.41-.94-26.56-3.12l-1.57 6.25c5.82 1.56 12.5 2.59 18.75 3.12v40.63l6.25-.01V670.8h6.26v18.75h6.25v-40.62c6.25-.53 12.93-1.56 18.75-3.13l-1.57-6.24zm-26.56 0c3.44 0 6.25-2.82 6.25-6.26 0-3.43-2.81-6.25-6.25-6.25s-6.25 2.82-6.25 6.25c0 3.44 2.81 6.26 6.25 6.26zm209.04-10.94c-12.5 0-25 1.56-25 12.5v29.68c0 6.04 4.91 10.94 10.94 10.94l-4.69 4.69v1.56h6.97l6.25-6.25h11.78l6.26 6.25h6.24v-1.56l-4.68-4.69c6.03 0 10.93-4.9 10.93-10.94v-29.68c0-10.94-11.18-12.5-25-12.5zm-14.06 46.87c-2.59 0-4.69-2.09-4.69-4.69 0-2.59 2.1-4.68 4.69-4.68 2.6 0 4.69 2.09 4.69 4.68a4.68 4.68 0 0 1-4.69 4.69zm10.94-21.87h-15.63v-12.5h15.63v12.5zm6.25 0v-12.5h15.62v12.5h-15.62zm10.94 21.87a4.68 4.68 0 0 1-4.69-4.69c0-2.59 2.09-4.68 4.69-4.68 2.59 0 4.68 2.09 4.68 4.68 0 2.6-2.09 4.69-4.68 4.69zm-121.71-26.56h-6.25v-21.88h-6.25v21.88h-6.25v-21.88h-6.25v21.88c0 6.62 5.18 12 11.71 12.41v28.21h7.82v-28.22c6.53-.4 11.72-5.78 11.72-12.4v-21.88h-6.25v21.88zm15.62-9.38v25h7.81v25h7.82v-62.5c-8.63 0-15.63 7-15.63 12.5h0zm223.11 0c-8.16 2.19-17.72 3.13-26.56 3.13-8.85 0-18.41-.94-26.57-3.13l-1.56 6.25c5.81 1.57 12.5 2.6 18.75 3.13v40.62h6.25V670.8h6.25v18.75h6.25v-40.62c6.25-.53 12.94-1.56 18.75-3.13l-1.56-6.25zm-26.56 0c3.43 0 6.25-2.81 6.25-6.25 0-3.43-2.81-6.25-6.25-6.25s-6.25 2.82-6.25 6.25a6.27 6.27 0 0 0 6.25 6.25zm-77.96 104.52c-8.16 2.19-17.72 3.13-26.57 3.13-8.84 0-18.4-.94-26.56-3.13l-1.56 6.25c5.81 1.57 12.5 2.6 18.75 3.13v40.62h6.25v-18.75h6.25v18.75h6.25v-40.62c6.25-.53 12.94-1.56 18.75-3.13l-1.56-6.25zm-26.57 0a6.27 6.27 0 0 0 6.25-6.25 6.27 6.27 0 0 0-6.25-6.25c-3.43 0-6.25 2.81-6.25 6.25s2.82 6.25 6.25 6.25zm-104.52-10.93c-12.5 0-25 1.56-25 12.49v29.69a10.96 10.96 0 0 0 10.94 10.94l-4.69 4.69v1.56h6.97l6.25-6.25h11.78l6.25 6.25h6.25v-1.56l-4.69-4.69c6.04 0 10.94-4.91 10.94-10.94v-29.69c0-10.93-11.18-12.49-25-12.49zm-14.06 46.87c-2.59 0-4.69-2.09-4.69-4.69 0-2.59 2.1-4.68 4.69-4.68s4.69 2.09 4.69 4.68c0 2.6-2.1 4.69-4.69 4.69zm10.94-21.88h-15.63v-12.5h15.63v12.5zm6.25 0v-12.5H1672v12.5h-15.62zm10.93 21.88c-2.59 0-4.68-2.09-4.68-4.69 0-2.59 2.09-4.69 4.68-4.69 2.6 0 4.69 2.1 4.69 4.69a4.68 4.68 0 0 1-4.69 4.69zm-121.71-26.56h-6.25v-21.88h-6.24v21.88h-6.26v-21.88h-6.25v21.88c0 6.62 5.19 12 11.72 12.4v28.22h7.82v-28.22c6.53-.4 11.72-5.78 11.72-12.4v-21.88h-6.26v21.88zm15.63-9.38v25h7.81v25h7.82v-62.5c-8.63 0-15.63 7-15.63 12.5h0zm297.94 9.38h-6.25v-21.88h-6.25v21.88h-6.25v-21.88h-6.25v21.88c0 6.62 5.19 12 11.72 12.4v28.22h7.81v-28.22c6.54-.4 11.72-5.78 11.72-12.4v-21.88h-6.25v21.88zm15.63-9.38v25h7.81v25h7.81v-62.5c-8.62 0-15.62 7-15.62 12.5h0z"/><path d="M1548.73 837.65c-12.5 0-25 1.57-25 12.5v29.69a10.96 10.96 0 0 0 10.94 10.94l-4.69 4.69v1.56h6.97l6.25-6.25h11.78l6.25 6.25h6.25v-1.56l-4.69-4.69a10.96 10.96 0 0 0 10.94-10.94v-29.69c0-10.93-11.19-12.5-25-12.5zm-14.06 46.88c-2.6 0-4.69-2.1-4.69-4.69s2.09-4.69 4.69-4.69a4.69 4.69 0 0 1 4.69 4.69c0 2.6-2.1 4.69-4.69 4.69zm10.93-21.88h-15.62v-12.5h15.62v12.5zm6.26 0v-12.5h15.62v12.5h-15.62zm10.93 21.88a4.69 4.69 0 1 1 0-9.38c2.6 0 4.69 2.1 4.69 4.69s-2.09 4.69-4.69 4.69zm117.03-35.94c-8.16 2.19-17.72 3.13-26.57 3.13-8.84 0-18.4-.94-26.56-3.13l-1.56 6.25c5.81 1.57 12.5 2.6 18.75 3.13v40.62h6.25v-18.75h6.25v18.75h6.25v-40.62c6.25-.53 12.94-1.57 18.75-3.13l-1.56-6.25zm-26.57 0a6.27 6.27 0 0 0 6.25-6.25 6.27 6.27 0 0 0-6.25-6.25 6.27 6.27 0 0 0-6.25 6.25 6.27 6.27 0 0 0 6.25 6.25zm209.05-10.94c-12.5 0-25 1.57-25 12.5v29.69c0 6.03 4.9 10.94 10.94 10.94l-4.69 4.69v1.56h6.97l6.25-6.25h11.78l6.25 6.25h6.25v-1.56l-4.69-4.69a10.96 10.96 0 0 0 10.94-10.94v-29.69c0-10.93-11.19-12.5-25-12.5zm-14.06 46.88c-2.6 0-4.69-2.1-4.69-4.69s2.09-4.69 4.69-4.69c2.59 0 4.68 2.1 4.68 4.69 0 2.6-2.09 4.69-4.68 4.69zm10.93-21.88h-15.62v-12.5h15.62v12.5zm6.25 0v-12.5h15.63v12.5h-15.63zm10.94 21.88a4.69 4.69 0 1 1 0-9.38 4.69 4.69 0 1 1 0 9.38zm-121.71-26.56h-6.25v-21.88h-6.25v21.88h-6.25v-21.88h-6.25v21.88c0 6.62 5.19 12 11.72 12.4v28.22h7.81v-28.22c6.53-.4 11.72-5.78 11.72-12.4v-21.88h-6.25v21.88zm15.62-9.38v25h7.82v25h7.81v-62.5c-8.63 0-15.62 7-15.62 12.5h-.01zm-194.98 104.52c-8.15 2.19-17.72 3.13-26.56 3.13s-18.41-.94-26.56-3.13l-1.57 6.25c5.82 1.56 12.5 2.6 18.75 3.13v40.62h6.25v-18.75h6.26v18.75h6.25v-40.62c6.25-.54 12.93-1.57 18.75-3.13l-1.57-6.25zm-26.56 0a6.27 6.27 0 0 0 6.25-6.25 6.27 6.27 0 0 0-6.25-6.25 6.27 6.27 0 0 0-6.25 6.25 6.27 6.27 0 0 0 6.25 6.25zm209.04-10.94c-12.5 0-25 1.57-25 12.5v29.69a10.96 10.96 0 0 0 10.94 10.94l-4.69 4.69v1.56h6.97l6.25-6.25h11.78l6.26 6.25h6.24v-1.56l-4.68-4.69a10.95 10.95 0 0 0 10.93-10.94v-29.69c0-10.93-11.18-12.5-25-12.5zm-14.06 46.88a4.69 4.69 0 1 1 0-9.38c2.6 0 4.69 2.1 4.69 4.69a4.68 4.68 0 0 1-4.69 4.69zm10.94-21.88h-15.63v-12.5h15.63v12.5zm6.25 0v-12.5h15.62v12.5h-15.62zm10.94 21.88c-2.6 0-4.69-2.1-4.69-4.69s2.09-4.69 4.69-4.69c2.59 0 4.68 2.1 4.68 4.69s-2.09 4.69-4.68 4.69zm-121.71-26.56h-6.25v-21.88h-6.25v21.88h-6.25v-21.88h-6.25v21.88c0 6.62 5.18 12 11.71 12.4v28.22h7.82v-28.22c6.53-.4 11.72-5.78 11.72-12.4v-21.88h-6.25v21.88zm15.62-9.38v25h7.81v25h7.82v-62.5c-8.63 0-15.63 7-15.63 12.5h0zm223.11 0c-8.16 2.19-17.72 3.13-26.56 3.13-8.85 0-18.41-.94-26.57-3.13l-1.56 6.25c5.81 1.56 12.5 2.59 18.75 3.13v40.62h6.25v-18.75h6.25v18.75h6.25v-40.62c6.25-.54 12.94-1.57 18.75-3.13l-1.56-6.25zm-26.56 0c3.43 0 6.25-2.81 6.25-6.25a6.27 6.27 0 0 0-6.25-6.25 6.27 6.27 0 0 0-6.25 6.25 6.27 6.27 0 0 0 6.25 6.25zm-77.96 104.52c-8.16 2.19-17.72 3.13-26.57 3.13-8.84 0-18.4-.94-26.56-3.13l-1.56 6.25c5.81 1.56 12.5 2.59 18.75 3.13v40.62h6.25v-18.75h6.25v18.75h6.25V1067c6.25-.53 12.94-1.56 18.75-3.12l-1.56-6.25zm-26.57 0a6.27 6.27 0 0 0 6.25-6.25 6.27 6.27 0 0 0-6.25-6.25c-3.43 0-6.25 2.81-6.25 6.25s2.82 6.25 6.25 6.25zm-104.52-10.94c-12.5 0-25 1.56-25 12.5v29.69a10.96 10.96 0 0 0 10.94 10.94l-4.69 4.68v1.57h6.97l6.25-6.25h11.78l6.25 6.25h6.25v-1.57l-4.69-4.68c6.04 0 10.94-4.91 10.94-10.94v-29.69c0-10.94-11.18-12.5-25-12.5zm-14.06 46.88a4.69 4.69 0 0 1-4.69-4.69c0-2.6 2.1-4.69 4.69-4.69a4.69 4.69 0 1 1 0 9.38zm10.94-21.88h-15.63v-12.5h15.63v12.5zm6.25 0v-12.5H1672v12.5h-15.62zm10.93 21.88c-2.59 0-4.68-2.1-4.68-4.69 0-2.6 2.09-4.69 4.68-4.69a4.68 4.68 0 0 1 4.69 4.69c0 2.59-2.09 4.69-4.69 4.69zM1545.6 1067h-6.25v-21.87h-6.24V1067h-6.26v-21.87h-6.25V1067c0 6.63 5.19 12 11.72 12.41v28.22h7.82v-28.22c6.53-.41 11.72-5.78 11.72-12.41v-21.87h-6.26V1067zm15.63-9.37v25h7.81v25h7.82v-62.5c-8.63 0-15.63 7-15.63 12.5h0zm297.94 9.37h-6.25v-21.87h-6.25V1067h-6.25v-21.87h-6.25V1067c0 6.63 5.19 12 11.72 12.41v28.22h7.81v-28.22c6.54-.41 11.72-5.78 11.72-12.41v-21.87h-6.25V1067zm15.63-9.37v25h7.81v25h7.81v-62.5c-8.62 0-15.62 7-15.62 12.5h0z"/></g><defs ><path id="B" d="M737.22 540.7l21.43 28.84-12.91 8.8-33.33-44.84-44.45 59.79 166.32.11-68.15-91.6z"/><path id="C" d="M1501.91 402.45h93.63v93.63h-93.63z"/></defs></svg>
